<mxfile host="app.diagrams.net" agent="Mozilla/5.0 (Windows NT 10.0; Win64; x64) AppleWebKit/537.36 (KHTML, like Gecko) Chrome/131.0.0.0 Safari/537.36" version="24.8.9">
  <diagram name="페이지-1" id="LYvgoB9Kt_8U00m6s_47">
    <mxGraphModel dx="929" dy="485" grid="1" gridSize="10" guides="1" tooltips="1" connect="1" arrows="1" fold="1" page="1" pageScale="1" pageWidth="827" pageHeight="1169" math="0" shadow="0">
      <root>
        <mxCell id="0" />
        <mxCell id="1" parent="0" />
        <mxCell id="aSS4Eyh5r4q3BVwhuA5f-6" value="devices" style="sketch=0;outlineConnect=0;gradientColor=none;fontColor=#545B64;strokeColor=none;fillColor=#879196;dashed=0;verticalLabelPosition=bottom;verticalAlign=top;align=center;html=1;fontSize=12;fontStyle=0;aspect=fixed;shape=mxgraph.aws4.illustration_devices;pointerEvents=1" vertex="1" parent="1">
          <mxGeometry x="210" y="47" width="100" height="73" as="geometry" />
        </mxCell>
        <mxCell id="aSS4Eyh5r4q3BVwhuA5f-7" value="users" style="sketch=0;outlineConnect=0;gradientColor=none;fontColor=#545B64;strokeColor=none;fillColor=#879196;dashed=0;verticalLabelPosition=bottom;verticalAlign=top;align=center;html=1;fontSize=12;fontStyle=0;aspect=fixed;shape=mxgraph.aws4.illustration_users;pointerEvents=1" vertex="1" parent="1">
          <mxGeometry x="390" y="20" width="100" height="100" as="geometry" />
        </mxCell>
        <mxCell id="aSS4Eyh5r4q3BVwhuA5f-5" value="" style="group" vertex="1" connectable="0" parent="1">
          <mxGeometry x="580" y="42" width="84" height="78" as="geometry" />
        </mxCell>
        <mxCell id="aSS4Eyh5r4q3BVwhuA5f-2" value="" style="sketch=0;points=[[0,0,0],[0.25,0,0],[0.5,0,0],[0.75,0,0],[1,0,0],[0,1,0],[0.25,1,0],[0.5,1,0],[0.75,1,0],[1,1,0],[0,0.25,0],[0,0.5,0],[0,0.75,0],[1,0.25,0],[1,0.5,0],[1,0.75,0]];outlineConnect=0;fontColor=#232F3E;fillColor=#C925D1;strokeColor=#ffffff;dashed=0;verticalLabelPosition=bottom;verticalAlign=top;align=center;html=1;fontSize=12;fontStyle=0;aspect=fixed;shape=mxgraph.aws4.resourceIcon;resIcon=mxgraph.aws4.database;" vertex="1" parent="aSS4Eyh5r4q3BVwhuA5f-5">
          <mxGeometry width="78" height="78" as="geometry" />
        </mxCell>
        <mxCell id="aSS4Eyh5r4q3BVwhuA5f-3" value="&lt;font style=&quot;vertical-align: inherit;&quot;&gt;&lt;font style=&quot;vertical-align: inherit;&quot;&gt;&lt;font style=&quot;vertical-align: inherit;&quot;&gt;&lt;font style=&quot;vertical-align: inherit;&quot;&gt;NoSQL&lt;/font&gt;&lt;/font&gt;&lt;/font&gt;&lt;/font&gt;" style="text;html=1;align=center;verticalAlign=middle;whiteSpace=wrap;rounded=0;fontColor=#ffffff;fontStyle=1" vertex="1" parent="aSS4Eyh5r4q3BVwhuA5f-5">
          <mxGeometry x="24" y="17" width="60" height="30" as="geometry" />
        </mxCell>
        <mxCell id="aSS4Eyh5r4q3BVwhuA5f-29" value="" style="group" vertex="1" connectable="0" parent="1">
          <mxGeometry x="279" y="183" width="290.5" height="320" as="geometry" />
        </mxCell>
        <mxCell id="aSS4Eyh5r4q3BVwhuA5f-17" value="" style="group" vertex="1" connectable="0" parent="aSS4Eyh5r4q3BVwhuA5f-29">
          <mxGeometry y="192.41" width="270" height="82.22" as="geometry" />
        </mxCell>
        <mxCell id="aSS4Eyh5r4q3BVwhuA5f-13" value="" style="shape=image;verticalLabelPosition=bottom;labelBackgroundColor=default;verticalAlign=top;aspect=fixed;imageAspect=0;image=data:image/png,iVBORw0KGgoAAAANSUhEUgAABLAAAAFBCAYAAABn11bUAAAACXBIWXMAAAsTAAALEwEAmpwYAAAKTWlDQ1BQaG90b3Nob3AgSUNDIHByb2ZpbGUAAHjanVN3WJP3Fj7f92UPVkLY8LGXbIEAIiOsCMgQWaIQkgBhhBASQMWFiApWFBURnEhVxILVCkidiOKgKLhnQYqIWotVXDjuH9yntX167+3t+9f7vOec5/zOec8PgBESJpHmomoAOVKFPDrYH49PSMTJvYACFUjgBCAQ5svCZwXFAADwA3l4fnSwP/wBr28AAgBw1S4kEsfh/4O6UCZXACCRAOAiEucLAZBSAMguVMgUAMgYALBTs2QKAJQAAGx5fEIiAKoNAOz0ST4FANipk9wXANiiHKkIAI0BAJkoRyQCQLsAYFWBUiwCwMIAoKxAIi4EwK4BgFm2MkcCgL0FAHaOWJAPQGAAgJlCLMwAIDgCAEMeE80DIEwDoDDSv+CpX3CFuEgBAMDLlc2XS9IzFLiV0Bp38vDg4iHiwmyxQmEXKRBmCeQinJebIxNI5wNMzgwAABr50cH+OD+Q5+bk4eZm52zv9MWi/mvwbyI+IfHf/ryMAgQAEE7P79pf5eXWA3DHAbB1v2upWwDaVgBo3/ldM9sJoFoK0Hr5i3k4/EAenqFQyDwdHAoLC+0lYqG9MOOLPv8z4W/gi372/EAe/tt68ABxmkCZrcCjg/1xYW52rlKO58sEQjFu9+cj/seFf/2OKdHiNLFcLBWK8ViJuFAiTcd5uVKRRCHJleIS6X8y8R+W/QmTdw0ArIZPwE62B7XLbMB+7gECiw5Y0nYAQH7zLYwaC5EAEGc0Mnn3AACTv/mPQCsBAM2XpOMAALzoGFyolBdMxggAAESggSqwQQcMwRSswA6cwR28wBcCYQZEQAwkwDwQQgbkgBwKoRiWQRlUwDrYBLWwAxqgEZrhELTBMTgN5+ASXIHrcBcGYBiewhi8hgkEQcgIE2EhOogRYo7YIs4IF5mOBCJhSDSSgKQg6YgUUSLFyHKkAqlCapFdSCPyLXIUOY1cQPqQ28ggMor8irxHMZSBslED1AJ1QLmoHxqKxqBz0XQ0D12AlqJr0Rq0Hj2AtqKn0UvodXQAfYqOY4DRMQ5mjNlhXIyHRWCJWBomxxZj5Vg1Vo81Yx1YN3YVG8CeYe8IJAKLgBPsCF6EEMJsgpCQR1hMWEOoJewjtBK6CFcJg4Qxwicik6hPtCV6EvnEeGI6sZBYRqwm7iEeIZ4lXicOE1+TSCQOyZLkTgohJZAySQtJa0jbSC2kU6Q+0hBpnEwm65Btyd7kCLKArCCXkbeQD5BPkvvJw+S3FDrFiOJMCaIkUqSUEko1ZT/lBKWfMkKZoKpRzame1AiqiDqfWkltoHZQL1OHqRM0dZolzZsWQ8ukLaPV0JppZ2n3aC/pdLoJ3YMeRZfQl9Jr6Afp5+mD9HcMDYYNg8dIYigZaxl7GacYtxkvmUymBdOXmchUMNcyG5lnmA+Yb1VYKvYqfBWRyhKVOpVWlX6V56pUVXNVP9V5qgtUq1UPq15WfaZGVbNQ46kJ1Bar1akdVbupNq7OUndSj1DPUV+jvl/9gvpjDbKGhUaghkijVGO3xhmNIRbGMmXxWELWclYD6yxrmE1iW7L57Ex2Bfsbdi97TFNDc6pmrGaRZp3mcc0BDsax4PA52ZxKziHODc57LQMtPy2x1mqtZq1+rTfaetq+2mLtcu0W7eva73VwnUCdLJ31Om0693UJuja6UbqFutt1z+o+02PreekJ9cr1Dund0Uf1bfSj9Rfq79bv0R83MDQINpAZbDE4Y/DMkGPoa5hpuNHwhOGoEctoupHEaKPRSaMnuCbuh2fjNXgXPmasbxxirDTeZdxrPGFiaTLbpMSkxeS+Kc2Ua5pmutG003TMzMgs3KzYrMnsjjnVnGueYb7ZvNv8jYWlRZzFSos2i8eW2pZ8ywWWTZb3rJhWPlZ5VvVW16xJ1lzrLOtt1ldsUBtXmwybOpvLtqitm63Edptt3xTiFI8p0in1U27aMez87ArsmuwG7Tn2YfYl9m32zx3MHBId1jt0O3xydHXMdmxwvOuk4TTDqcSpw+lXZxtnoXOd8zUXpkuQyxKXdpcXU22niqdun3rLleUa7rrStdP1o5u7m9yt2W3U3cw9xX2r+00umxvJXcM970H08PdY4nHM452nm6fC85DnL152Xlle+70eT7OcJp7WMG3I28Rb4L3Le2A6Pj1l+s7pAz7GPgKfep+Hvqa+It89viN+1n6Zfgf8nvs7+sv9j/i/4XnyFvFOBWABwQHlAb2BGoGzA2sDHwSZBKUHNQWNBbsGLww+FUIMCQ1ZH3KTb8AX8hv5YzPcZyya0RXKCJ0VWhv6MMwmTB7WEY6GzwjfEH5vpvlM6cy2CIjgR2yIuB9pGZkX+X0UKSoyqi7qUbRTdHF09yzWrORZ+2e9jvGPqYy5O9tqtnJ2Z6xqbFJsY+ybuIC4qriBeIf4RfGXEnQTJAntieTE2MQ9ieNzAudsmjOc5JpUlnRjruXcorkX5unOy553PFk1WZB8OIWYEpeyP+WDIEJQLxhP5aduTR0T8oSbhU9FvqKNolGxt7hKPJLmnVaV9jjdO31D+miGT0Z1xjMJT1IreZEZkrkj801WRNberM/ZcdktOZSclJyjUg1plrQr1zC3KLdPZisrkw3keeZtyhuTh8r35CP5c/PbFWyFTNGjtFKuUA4WTC+oK3hbGFt4uEi9SFrUM99m/ur5IwuCFny9kLBQuLCz2Lh4WfHgIr9FuxYji1MXdy4xXVK6ZHhp8NJ9y2jLspb9UOJYUlXyannc8o5Sg9KlpUMrglc0lamUycturvRauWMVYZVkVe9ql9VbVn8qF5VfrHCsqK74sEa45uJXTl/VfPV5bdra3kq3yu3rSOuk626s91m/r0q9akHV0IbwDa0b8Y3lG19tSt50oXpq9Y7NtM3KzQM1YTXtW8y2rNvyoTaj9nqdf13LVv2tq7e+2Sba1r/dd3vzDoMdFTve75TsvLUreFdrvUV99W7S7oLdjxpiG7q/5n7duEd3T8Wej3ulewf2Re/ranRvbNyvv7+yCW1SNo0eSDpw5ZuAb9qb7Zp3tXBaKg7CQeXBJ9+mfHvjUOihzsPcw83fmX+39QjrSHkr0jq/dawto22gPaG97+iMo50dXh1Hvrf/fu8x42N1xzWPV56gnSg98fnkgpPjp2Snnp1OPz3Umdx590z8mWtdUV29Z0PPnj8XdO5Mt1/3yfPe549d8Lxw9CL3Ytslt0utPa49R35w/eFIr1tv62X3y+1XPK509E3rO9Hv03/6asDVc9f41y5dn3m978bsG7duJt0cuCW69fh29u0XdwruTNxdeo94r/y+2v3qB/oP6n+0/rFlwG3g+GDAYM/DWQ/vDgmHnv6U/9OH4dJHzEfVI0YjjY+dHx8bDRq98mTOk+GnsqcTz8p+Vv9563Or59/94vtLz1j82PAL+YvPv655qfNy76uprzrHI8cfvM55PfGm/K3O233vuO+638e9H5ko/ED+UPPR+mPHp9BP9z7nfP78L/eE8/sl0p8zAAAAIGNIUk0AAHolAACAgwAA+f8AAIDpAAB1MAAA6mAAADqYAAAXb5JfxUYAAKEuSURBVHja7L13nCXXWaf/nKp7O8fpnhw0mpFk5SwrBys5Z4MzOBvjJS27sMAa2F1gAyz8YEkGE4xtsHHANs4GZ1uWbUXLkpU1mpw73NA3VJ3fH+fU9J1W90zf1H2r5/t8PlfT6r6V3jrn1Hm/9b7vMdZahBBCCCGEEEIIIYToVAKZQAghhBBCCCGEEEJ0MhKwhBBCCCGEEEIIIURHIwFLCCGEEEIIIYQQQnQ0ErCEEEIIIYQQQgghREcjAUsIIYQQQgghhBBCdDQSsIQQQgghhBBCCCFERyMBSwghhBBCCCGEEEJ0NBKwhBBCCCGEEEIIIURHIwFLCCGEEEIIIYQQQnQ0ErCEEEIIIYQQQgghREcjAUsIIYQQQgghhBBCdDQSsIQQQgghhBBCCCFERyMBSwghhBBCCCGEEEJ0NBKwhBBCCCGEEEIIIURHIwFLCCGEEEIIIYQQQnQ0ErCEEEIIIYQQQgghREcjAUsIIYQQQgghhBBCdDQSsIQQQgghhBBCCCFERyMBSwghhBBCCCGEEEJ0NBKwhBBCCCGEEEIIIURHIwFLCCGEEEIIIYQQQnQ0ErCEEEIIIYQQQgghREcjAUsIIYQQQgghhBBCdDQSsIQQQgghhBBCCCFERyMBSwghhBBCCCGEEEJ0NBKwhBBCCCGEEEIIIURHIwFLCCGEEEIIIYQQQnQ0ErCEEEIIIYQQQgghREcjAUsIIYQQQgghhBBCdDQSsIQQQgghhBBCCCFERyMBSwghhBBCCCGEEEJ0NBKwhBBCCCGEEEIIIURHIwFLCCGEEEIIIYQQQnQ0ErCEEEIIIYQQQgghREcjAUsIIYQQQgghhBBCdDQSsIQQQgghhBBCCCFERyMBSwghhBBCCCGEEEJ0NBKwhBBCCCGEEEIIIURHk5EJRFoxxizbsX/tDVvpzwRUK8YcKpS3feY7h9YP9IRsHO/Zv3a097FPfmenDQxM5DvTdq+9dYhzT+9iuhADcDRX5ieu38J4Tz+/8r5H+cR7zmN6JiITwNGjZfoHuli/vpswAirAcph+vJuvf3U/N/3afbP34R3n8Xu/fTnTu6fIZDMEsXHtwlhKlZgYS0hANbJgIrLZDMZE9PWEHDwS86J3fpWpXJUnnpqiArz8uZtZPdLLuWf209sF7/jNe9p6SdZadWQhhBBCCCGEWAQSsIRogKO5CuedM3zGxrGh/3TTVatv/X+/FK8mstAVHv369w9/7vF9E//z2w9M75SlhBBCCCGEEEKI5pGAJUQD9GQy57/yeVvf39NvL+XgPrAlsEAxO3TjjWve9emLrr/8pjd94/U/3JF7tL8n7JjzNkBuJsIYi2J/hBBCCCGEEEKkBQlYQtRJGISDr37Opt/v6c9fylNPQHUGsGANEMP0PlZt2H7Fl//0mt+7+4GJn9i4pptOyRQb6uvi6z/cxR0P7iJfjHUzhRBCCCGEEEKkAglYIr30Di39MYsl/uPrtt121VXBc3nyUahWwYSA8XWhLMQl2Psoa0971qsGBjKv+82/ffQfx4ezhIZlj3qqVg2Dg2VWj3RRqaoJCSGEEEIIIYRIBxKwRGr5+G9fvOTHzJUMV5xWvZKDewxRIl7VYiDIQlSGyn7iuP/tn/r2vn/sJLtde2EvL7pmgKPTkRqREEIIIYQQQohUIAFLpJYrNpSW/JjVOOge6595FsWiSxmcdzU+C0EGdh/gxjO33jT9mee+5XW//8DffvOhKcaHsstmr5kybFgFN15gmchJvBJCCCGEEEIIkR4kYInUUpw8vKTHCwM4Mm277ZDdMLTBML96lSQJGoiA8gEGtqz9zxHhZyby1QO93cGy2StfgjWxoacrZHrGzq+9CSGEEEIIIYQQHYgELJFaXv6/llYMOjgZc8OF/d0fe08wRG4vzxSw5lS4CjJQLMDhfWf/zhu2vfn689b87yAwBMukHGUzWWxcYNeBJwgDdX0hhBBCCCGEEOlBXqxILQ/uWuoq5BGH8vGZjLCOyRiorX81T3l2Y1ya4dR+Ljxr9G3Z7OoPVivV3UG49LYyBjJhhvseL/LUXhdNJoQQQgghhBBCpAUJWCK13HjJxJIe7+BUxMXbqtvI9Qy7VQeTUKoTrC0YZKBcJMgfOONZGzf8PKXoV+OqZanz97JhwHQxxwcef4pwORQ0IYQQQgghhBCiCSRgidSybe3Ikh3LGOjvickGZpxq5DSrxYpQJsDk9pNdM/6mqNz1PjMz86hZ4hCoILB0BVmy2Swz1TKoApYQQgghhBBCiBQhAUuklt6uFy/ZseLYsmF0gOdeObGW+KNgA68B2ZNsacGEUC1Bbs8a03PGr1eK4ZuXWj8KMiG79k9SrkQYI/FKCCGEEEIIIUS6kIAlUsuff/qPl/R4w4NdmT9499kXUM2AsSxKvEoIMpA7TNC99vXV/v73R+Xy14IlrObe05vh0/ft5kiuxEh/lxqPEEIIIYQQQohUIQFLiEViY8aZKp9GbwTmZCmAc8QtE0JchsLebFff9ndNF8OvBbFdmvO2FnozDPR0oeArIYQQQgghhBBpRAKWSC3XXLh2yY5ViaAwUx2OKqX19Jzs2wsIUyYDM0cJsxM/WY2H/qFcjj67FIJSJjA8tT/HRL5EVssPCiGEEEIIIYRIIRKwRGrZsm5gyY41VYj5xZdv3r5qzb5hJmNgISHoBFFVPgorrBwgE/T8/K6Jyme7s6btUVHD/d189f6dPLZngrGhXheRJYQQQgghhBBCpAgJWCK1fPhLjy/p8X7llUNn028zTAQLLOJ3EmHIxk7EmjlKf/fo7WOjYy/Zf2jy04VSlbCN9bBmShFxbOnuCiVeCSGEEEIIIYRIJconEmKRlCent1OpMH/I1MnEq+TvBmLoiQ6wacT+RqEUDZRLVYhibJs+xBZQ8SshhBBCCCGEEOlFEVgitfzEi69csmMdLQSsX5tbzcyhef5ab1RTCOU8mf5Dz960buT13/jR4fd2hdW2pBIaYwim8xycyNOVCdVohBBCCCGEEEKkEglYIrV85D3nLd3Bgq5xc+TuzRwtg80sPqBpvpQ9E7jfF4+wbnjoLXun4o8ezZWPZMPWK1gmCKmUCkSlHN1dXUohFEIIIYQQQgiRSiRgidRi4seWqJcYyhPxlmDqyNaMCThevTqBIGRPUtC9NM3gqslnn726962v/ZsDv3/+1j66sgFx3BqRyQD5GcNwf4XbLsswU5Z4JYQQQgghhBAinUjAEqnl53/noSU5zpHpKi+5atXoT94UrGZ6keLVYrAGCoe4bNumt7/2xtEPfuO+A3sPTFTo6WpNabo4dimE51zeRWxVA0sIIYQQQgghRHqRgCVSy//7zMElO9aG1dlVP/nS0dAJWIst2H7CL7lUwqM5Tt+UP/N33rT+Xde8+8nfLM6UKc607rx7uw1nbBgmjkOaFtyEEEIIIYQQQohlQgKWSC33/c2tS3KcUpRh8/DkxRx+2otTJ4hmWqx4dYwAju5n86qht55/xqqP7v7evh9CtmXnHseGmYqhP5R4JYQQQgghhBAivUjAEqllXe9E249hDJQqQdBD+SyqsROoWrlcYBBApYqJD2/432/d9rav3Rv/QqkcAUGrrgCoqrEIIYQQQgghhEg1ErBEatmxa7rtx7AWYkv2jA12HV0n+NLJ97TA7437U2GCc9YNv+pP3rXxA0enZn4Qx7ZpnSwTBDx64DCYmCgO1GCEEEIIIYQQQqQWCVgitdz8myNtP0ZuBm6+KBj89z+eGuNQxAnTBxvFhFAu0dU3seEdP7H1He/+/Qd/8Pdf2Mna0a6mdlssWV5xUx9jgxlyRaUQCiGEEEIIIYRILxKwRGrJzSxFEfeYyPRvocduIIqBsIF9LEY8CqBwGIZXv75UzXyoUOLrT+4rN332R6ct68cNKuAuhBBCCCGEECLNSMASKWbfEhyjCtHIZmaGhl39q5o/nTR1sB7RyMBMBab29f3Cyzf8h9xM5dtxtVrt6Wos9c8QUI5mWD1aoVCK1VSEEEIIIYQQQqQaCVgitfzym85q+zEmiobLTmM1hUPH/8G2MKIp2ZcJ4ehhLti26sWvv239K+99dPoj/T0NClgmpBJNcTQ3QbXa2rrzQgghhBBCCCHEUiMBS6SWP3j3me0/SNAFlaOns3s32KCOEliLFLhqhTATgK3C9IHuizav++mHdvf8a1d3UAjqFJ+MAWszTB7JUanGhEGoxiKEEEIIIYQQItVIwBLppXpfe/dvLFS7YKrnPJc+GLQ2bXDefYVQyrFlTeX50xPFn3jPRx5//2lreojixe+3MBOzdX03z7+qmyBQFxdCCCGEEEIIkX7k3YrU8rXv39DW/cc2IBvG3Vdv+O62jK0CXa3b+UJCmDFQiSB7lNsuHnjn73yg+tFHd+UK9e4+mykDAQblDgohhBBCCCGESD8SsERqec7//Ov2HqAMQyPFnqf/x/VrhrtLEGVPskEDaYPzEQSw/wg3XDZ49cf+xyWvf+1/u++vK9U6C7EbgzEBsPjtzOzp9caxfbaNzWhMXK1W7T1xzG5JYUIIIYQQQgghlgsJWCK1/Pt/f09b9x/bkK6wfHl/z9Qo5RNFXzWbNjgPVQuH9vHKl1z087d8ZvVnvnDn/r3ZzOIKuleqMd3ZgKF+g1lE9fYggELZMpmvculpvTf+z3ee/asDQ723dfXEGRMYBof6nyxVqn9Zqdo/6DZGSxoKIYQQQgghhFhyJGCJ1HLzef/S3gMYA3F8MXunu7BZms7GW5R4VbMiYXkGDu46/w/f9ay32njV7xRLEdmMOekhgiBkfLjM9x/cj7UnL+BejSyRNQz3d79l1ea+967aGGfYv5PeuAxBCF1Dp/cNj/7vyASX2FLltYrEEkIIIYQQQgix1EjAEqmluq/dzdeAYXMmNksrXoFfShCYPsppI8NvvPSM8OPZTPDQQE+G+AT7CgNDFMPff/EoP95ZAaJFHLfIJWeMnnfrZWv+J4efzDCxC+IKmKzbPr8Lkxkhs+r019ig/zFs9T0ES3yzLZAxMJhVwxdCCCGEEEKIUxAJWCK12J6x9h7AhFA5OkxlIRGoRTWvFtqXyUCxSN+aqbPe+qLR1/zCnz7yW4/snKC/Z+FuGxioRJZHd8/AIkq4W2Juu3Q9/+ed295GZdcajuyAIAvhgD8n/ykfgcMlzOoLf9Z2d/19YbL6uF3Ce92dDSg8NsOv/9mjavhCCCGEEEIIcQoiAUuklmrY19b9W5NZ3V09cC42gmeEHLVZvKr9U/EQp60ZeWehGHzg0V3lx6C82CtY1Fk+99rx51z8bPNGHt7toq5MiCv+XrN1pheqBcjvWhX3bf/PpbL5mTi2mCXKJwwsHJmKeOCpvBq+EEIIIYQQQpyCSMAS6WVmor37N5mNJipsdkJOA0pNs+IVuBpUkwUyQ0fWvudNm3/5m7988F3VKGrZJZ61aSDzxpuG38LBPWNUrYu+mvecDARdUDyMya5+TXag/+8yxt6ZCc2i69I3Q1eXYbQ347Q1IYQQQgghhBCnHBKwRGox1UJ7D2AZhWj18dFXSxR5ddyFBrBnH8+59rxX33r52Pu+cOeBu3q7Fy5CFcWW3q6Q8ZEu4nj+YwQGHt9T5PW3rHvOmtOjV/LwEZeyeCxtcL7zyEBlhqC0f7h/YNvPPL6ncOeBo+WTFpZvBSMDGX7nQ08zmauq4QshhBBCCCHEKYgELJFaov6tbdu3NV0E5X1jpry3po8sg3gFLgorrsDe3aPv/bltv/il68ffuGEss+BhshnDRC7isV1FMqGZ98hxbFk11JN9wWUDP8fu3b1EVQgyJzkvH6FVOkgwsOY1R6fs+3bsKX67r6f9YVHFYsTdj0yr0QshhBBCCCHEKYoELJFaKi1MpZtLTJW+wFxsjHXloMwyiVfJd00IxSm2nLb2FWt3dP3jH/zzjs+vGekiDJ55yL7ukKf2F/n3u4+ecM9vvG3r9e98Re+L2T3horwWgwmgWoHczp4Nq7f9cmGm99vZ0LS1Fpa1sH5Vlt5u5Q8KIYQQQgghxKmKBCyRWqrT+9u278gGxNniNmxSzHwRCk1Lxas53zMhVMvA0b6h/t63fPWeo59v5vqymSw/9/Lxd5HfD5UIwkwd5xZCYYJNw/kXFdcMvGAqN/O5+SK9WoUxEIQB1ciq0QshhBBCCCHEKYoELJFaxtfuaM+Ow5iZfE82mhxcz2KDfloeeTXPtiYDu/dx43mnv+LJD934/Fv/8w8+//iexlble8+btr3uiovtq9hxxKUoUsd1mhDiGGYOZLNh9zuemqx+bsNopm3F3Deu7ub/fGgH9z6eU6MXQgghhBBCiFMUCVgitfzGX76tLfudKvRwwen7B9/x0s+Oc7jK8UXc56FdaYNzMQaqEeT3B1u3jL1nZCD7daDuSvbbNwyMvuP24XcwvRciIAgWd36112lCqEyxdazw4u88bF/1q/+842Orh7PzpjQ2y0BvyPcemlKDF0IIIYQQQohTGAlYIrX83kde1KY9j3DjhfeuecerP3IacQQ0W3vJtu57JoR8DkaOXv3ff3r7a174G3f/bb2RXT9125oXrd0W3cgjEz76qk7xCnwtrCr0TAYbBgbf/M17j35MLVIIIYQQQgghRLuQgCVSzJvat2ub3UipZxBbOnH5q5OGG7UwHMlaJxzFMUwd4PqLtr7r/NMH/rVcrhxcN9ZNNbIEgaFSjfnBwzmi+JnHPnNj/9AvvGT8F9mzE2wEJru4485HEMK+Q9xwzsALHv6H6171kt+4+2MP7yyoWQohhBBCCCGEaDkSsERqOfP32xOBta/Sy6bRvUPkPgnWLCxgtVS8Osl3a48VhJCbpH/g6OXf+pNL33j3jyf/8Ps/OspAX4ZMaKhULUcnqzyyp/iM3Vx59ugLh9eULmXnNIuKLDvhNRqoWoLqAc7avvaXB/u6vgSFVOX6WQs2jilDN9ATRxSttWW3rKKKxgshhBBCCCFEpyABS6SWr72qPQJDlLX0TlfP54cR86pXSylczXs8AzEExQMMX7Dp7Y997ch7/+gjO/Nb1vcSWxjtD3nWhp5nCFjrV/UN/c6bNv4HJp90UVxBto5jLoAJoZCH6f1X/fobTn/N33/q0F9ljCEMmr8P1sJQX4ZDuRk+/YM9rb3JxlCpREzlK2uve/b6l//TH5/1vKlcaei0TcO7f/tP7v8s8MliKZpRLxNCCCGEEEKIzkAClkgtGx76ent2bDIQ5646tvJfLcsuXnmCDFQKsH/n2Wes6/nVl9+w+jdXDWQJQkMAfOauI8d9/bU3ruEDv37+O8Jw7zXsm4Sgp/5jzmurwKUi5vbz/EvOeNuRg2s+N9zDrqG+zLwpjPUQBoZMGPAXn3u65bfYVmMqVXvTJ//8OX+x/VkDZ2fXhFCJIDb85W9f8oZqzL/99Yd//J+Be9XThBBCCCGEEGL5kYAl0ku11J79mqgHWz2dOOa4VLKWLq/XhHh1jAD27uE5l5/39usvPPfDzJQezPSGHD1a4Y8+c3zE0ppVvdvCNdE7eeLgM0W5uo45z3WYEMpFerJHr7jy/NFXf/QbB/7vUwcK9HY1F4aVCQ2FUsynv7+/tffXQrlib95y2tAnTGZymNyT8FDeB9sF9PQNwZr1t77yRdv+8r0ffvqF+/YVDg8NZlu+uqIQQgghhBBCiDp8RJlApJahrW3YqQFD1k7+eJWJgUSD6ZTIq1qCEOIyTO5fN82md5UKwc+t68owMpDho79xPvc/OU1XNiBXiHjes8ffwOEDZzBTXFjAakS8SmwWA+ERNgwN//Snvj35t/c9eeRopzUXk5xymL0t2xO+35R2DzNx0P0ySOqBxZA/Ajum2HLRmVf+xrsvfPdv/u49/33dql6nZQohhBBCCCGEWBYkYIkUt96B1u/TBGCrV5q4tMqpV7Yzxatj5xvCzCFGx8Z/6oED4T994Qf7v7N6OMPUDHznCUuuWObyswa2Xnpx9mfZud8d3jR5zPmuw4QwlWPVxqkLXnPr+Lvv++sjvzPUnyEMGld9AgOT+SrVqDWhT7G1WMztvd3ZjwXVPYMU9rlUzOOK2RsIAogrsOMJ3vjK7c//43/o+cPvPnAg14q6XkIIIYQQQgghGpQAZAKRWqb3tmGnBogvolLKOjGr09IG5+zLZFwqZe/RoX0T/T/z5j988DsA68d7eflzNnJkEq44s++t5A+tpVJ0hdtrAqfqO+ZJriMycHAf/+VVz3rzo7u3fvj+J6ceGxtqfIjpzgZ86/7DHJmqNG352FqCIHNbX1/40aC6Z5CZA76I/QICm8lAuQxrptYN9A5uh+n7orhbfU4IIYQQQgghlgkJWCK9VAtt2KkBW92MjReOVjqOOgWnE37FNrAfCyYL+/Zy1VnbX/253738fW/4n/d8o1yJuO6sPuIwc+6Lrs6+gwP7sISAmS3rtajrq+M6ghBKZeg5uO2lVw//9NGj0XvWDGUaTr3r6w75QWYCaE7Aiq0lDDK39w+F7w+qe4coHnRRVie6eGNcCNjRI2NjI12nnXHaafetXx2qDpYQQgghhBBCLBMSsER6GT2v9fsMumDy3jEKJY5PLZuPpRavFsAYyJcYWHWg6/kvv/y/bXzvj2//4dP5yubRbq4+v/8Xwskn18TlMibsAWudbnVMxGpl+qMBa6A0yS3nDb/ujvt7PnrPI1P393Y3lnvXkw0oV+KmbmccWzImfG7fQPixTLxvgOIBX+8qOPm1WqBqB1/1/JE1NjhANpwhCFQISwghhBBCCCGWAwlYIrXE1WLrdxpEq01cPNMQn6R7LId4dYLvhV0wOQn79970xhdteNl7P//ER+M4vCbMFt9AYRJLl9/cYPAiViLSmBZdB7haWMUi/acVtj3n8u43/K+P7v+V5Wof1lpMEN7e1x9+NIz2DlA65GteLVKEii10hzz3+rWbf+Y372UqN9Pyc/wndWMhhBBCCCGEWBQSsER6mX68xTu0EPRsMKXiFmxwAp1judMG5/mGCSCuYg7t5s0/cfrbo9Hpj56/tedNHH2qr1KuQJDFxC7yymIIbIw1LDK9z9ZtRg7s58bztv/0f/+pM/769z70+KMz0dLm3jnxKnt7f3/4/rC6e5DiIR95Zeq4VgNRxMSh/dur1WoPMKNOJ4QQQgghhBDLgwQskVpMprfFOwywUWnM2tIas2CKWYekDc53PJPBFo+wamr8sl+68eL/r7t86FWVA4eJ48DJNgYIwFiX6XdMyjFNXsfcazIhTBfoHj685q0v2/wrf/2ZnW/feaS0ZO3CWiAIbu/rDz4eRnsHXM2rxURezXOttspMMdwY29MHIZppoGiYEEIIIYQQQogWIAFLpBYzfmVrdxj2wdSPxkzxkXB+4abD0gaTP5vkxwBrQ8z03lVdlVW/UC7uJ65GmKCbOAYTWILYHovCMsanEi6YRtiAeHXMlhnYf5ANm9e8/Gdfedr7f+2vH/nWkjQKayEIbunqDT5mynsGmKkzbfC4fRmISgyMbx55zet/YrAwExzMZmJ1PCGEEEIIIYRYBiRgifRS2Nna/QXdmOrE+dj5akN1Xtqg+4o7V5usKhhmqBZKRLsegd48pr+LOJr9fhwaMJYAsNaJWMf21dD1LnBNJoS4CpP7xt58y8a3/L9/6f0WcURX9uQF3TOhIVeM2He0XOcpWAiyt2T7wg+Yyu5BZg7hirWbxm1dDtm0anL97779K9ujKH7CtDwA6z+qHwPGKLJtqU0OZH0HiYBq/Z1eCNEMVsvaCiGEEHUjAUukl1yLBSwTQpQ7m9hwvOjRyWmDs+KVBWwM8STY/ATGhsRdGZ8zaI+5rTEGE7j/NzHzaDxNilfHCCA/wdrB0Vf88c9u/8g9j0x+safr5ALWcF/IfU/m+dsv7q/DEhYIbunuDT9Bde8Qhf0+8ipo/J4ZwBgqM7m1u5/MbxsdzMrHF2mmHzgb2AasBYaALqAMTABPA48DDwMKNRRCCCGEEB2HBCyRYlq8CqENAoLKquUXr+oQSY591RW1ivJgi2CyGaiCnbHYbrf2oIlnRaxZjCt4fuz3rRKvABNAuQwD08PDvX1v+r0P7/xiW5pBbDGYG3p6sx+jum+I4gEIsrSkXpWF7t6QHz0+Ofqprxykvzds6al/8EXqxZ5e4ApgFBcNJJ5JF7APuKOB5/yzgWuBLX4/FVzkVdLzNwIXAwXgUeDLwCMyuegA+oDrgJ6aNrtYkgjDu33fEUIIIUTKkYAl0kvQyiABC0E4hI3XzM6ROzBtsOZ7tuZ/rYE4Ajvl/xC6Y5piRByG2AAwLvIqsLiaWL6oexAkRd1bKF4lmBAOHOC2K8942StvXH/Dx7++9xutbALWWggzN/UN9P5DEO0fobjf++OmNbaOgdEuRkb6137yqw+3vAl/UL04oRe4EdhKy5XpFcMAcB/1CVgh8GqceIW3bX6eTpJ0iCxwPnAG8DmckCXEctIH3AYM46IF653jVoG9SMASQgghVgQSsER6CUdbty9jwJp1FA6dSVwFk23dvludNjjnf601TsAqgC1Y57Iml1UBM2OJ+wyxhSAyWGOJjSGkpv4V80VnteCaTAD5Eozs7/k//2HLf/n2vUe+vW+yFDVjgS3r+zlr6yCP7phmy8aBW+kOPxLGh1ZR2OOGNNNE2uB8XzUlxsZ7z4dNXX39YVkdry3EQMk7qCWZY16y1BedNgC8Bhd9lfe29bL1M3uq/7cKTHvR4CdwUS//KtOLZcT6MSEZH+odV2qjDYUQQgiRciRgifSybWsLXcMumJoa40c/6sXaOrLPTrZKYJvSBs3xW9kqxNPMxlXU1LwKypaoy/ioLCd4EVviwGCsxWLdSoQB8xRzb+aaPGEG9h1h25bVt/2HV2z6yf/6d4//UzO36i2vPoPf+r/XwNP568jwEXY/sYqZA2AWU/OqToyBmYg+U9h60fmMbVmf2RvHqoPVJmLvaMrZnJ96bNMFvAq4DCdIVakvpzbvt3muFw2+KPOLZcQ2ODYYP65o0BZCCCFWCBKwRGp56Vt+rmX7OjQ9xk0X3DH4u2/4JBzIHBfFtPB8+mRfaX3aYCIw2aQue2yIDUR5695PB3OOa8DElrBkiZIorNhrXAZsbLHG+ELvPq3wRCJW3dFk1kVExTEcPZB5x+0b3vBHH+v6+OHpcsORTDO5Chys3FCdif4hE+9fRXG/j7pqYeRVLaWYLRt7h3uC8tCXvrZ779BAVp1PdDpX4SKvSt7pr7cgnPHbGuAmYBfwI5lVCCGEEEIsJxKwRGr5b6/7k5btqxL1MDqw73oKXV7FaZI2pw0e+9G46Cubw71nDuY/blCxxFVDnHErD1rj3FoL2KBGuGrpNdUKaQHkJlm9cewFf/y2zT/5hj96vK7yT6dtcGmDjzw1zZaNA7fQxYcz9sA4+b2uzpZpk3hlLUxXWX3JmtHbrx8/8877Dzx88KiyCEVHM4yrJwazIlQjJCLWiN/fo9SfwiWEEEIIIUTLkIAlUsvFZzzQup0FGajkLmYiXkT9q2VIG0y+bpLIK7C+7HqcBzsDxtgF3VATW5dKGAY+6gpMaImtW53QGoMx1h3CNHNNC1ybCSEuw8xhnnvtpjef8/HhDz709OSi9/bmV2/nt37/Wp82aP+Z3U/6tMHFiFctoDqTCYnOBz7jsrOE6NyhEViDW1GwBWo8ZWAbrsC+ViYUQgghhBDLhgQskVrK060rlWMxvWFc3p6x9gThSEudNjjnu4l45VcdxEJchXg6dl7qiVxV46Owshab9SmIsUsddD/jRCzsbAahqeeaTnZ9FoIsHDjC+KUbb/6pl218/a/9yeSH+ntmczUDA6WKpVx95uqSpXwVDpVc2qDdv4riAXef2hV5ddx1GyhXiKvVze7/Y3U+0al0A9uZrf3TCqq4ou6nIwFLCCGEEEIsIxKwRGqZ6D+nJfuxBATEvWP5744S03jMgm11ndgT7M8aYnzh9pnF9WRXCyummgm8YOVLX/mfj2l30GLxag4PPcJ/vP28/3zpuss/ny9WjnRn3cFW9Wf49N1H+de7j7CqP3NsccSd+wqctmHgVrrMPy1J2uAzrtvAgRw//6btmz/0xQnz+FOHVRBYdCojuOirVhbCT/Z1Gq46oIrsCyGEEEKIZUEClkgtQTzTkv04Aat6hbEzw7NL8T3zWyfeSavTBu38v/KRUxawFbD5uI6F9yxB1WKqBps12NhC4PblhDtLbAzB7NqGdVvy5DctA6UyXQOHLjpry5q37dhj/09vt8EYyE3M8I7Xn8nv/eUWmCoCBioxENxAaD7Kzh0jlPa3P23QzlNzrBgzdnbXaZvWd216/Cl2qveJDqUHl+PaDjW9z88ZJGAJIYQQQohlQQKWSK+nlt/Roj0ZYmvOs1Gl25hwHr/tZK5dG1YbnOdXFrDW172yljhnocIiBSzramFZCMsx1TAkDpwrGgJR4KKwQuOKuuPraZlGz3lBUwcQR5A/zKbRkdf9+OnoH/dNlHcFAUSliE3FKuwrUMqXiC1gM8/p6uP9YbR3hLJfbbCdBdvnPWfj8huPHF1fKRS3gAQs0bF0++d6O6IEM7SmppYQQgghhBANT0iFSCXlqK8l+7EE9JjcpuAZAkarxKvFn8m8mJrDWLDGYsvWrTxoF+NSzu7XGjBVi6lYbJevhZUIZNZgbey0rkXtd5E2mvv9IAMzeTJr8xfli+FbX/N7D/43gOsvG+cb776S8tQMFoshvLWrL/hYEO8bprAPaHPa4AkxUCkP925+9uhIPMim8TZkjArRPDO4mlXtEJqqbexgQgghhBBCnBQJWCK17Mle1CKvrJszMt9ZxUwJKhnv+rVSvGrS5zsmXpnZ4u3T3p0M6j+2iSGsxFQzoat9FbkVDK2xxLGLyLKBwVi/WmHL7pitMZvBTOzn+vM2venC04f/4v4nJw/0ZXsgNMSxxRDcmu3NfCKo7BtkxqcNslQ1r+YhjiGi61d/9cItv/uB/cQzOTKZQJ1QdBol/2mHgFX0o44QQgghhBDLggQskVqGo9akEEZk12TiibOITYvFq9YIXEkxcxs7QSkug81TV+TVcRgIqq4eVhyaY6sQYlyEVmwhiIHgRJFYja2kmBSKtzaDPTTJmnNXbf2VN531c//pd594z3lbRqAcYYLsc7Nd4fuDaI8Trwhom3i1WBHSBhBaLih/95y7PngnuUKlNY34b9SPW4w9xa8tB0wBm1lkfOYiSDrgPlT/SgghhBBCLCMSsERqWRM92gLPLCYf96+3Zmbr4t3IJUgbrP2zBWvtbP2raeviIMLm9huUY+JsiA28gBW4QCODTzU0zv19phfc2PXPilf+/4MQ8+hufuL84Z856/+e+cGxbeMPl3PR87q6w4+ZaG//8qcN1mAAIqZyM1uiqKcXwmId1fPF0pClffWfOoE+XIH2E5EHHgbOY+EVKRqZJxSBR9TEhBBCCCHEciIBS6SWb5QubnofJdvFluzewQvDvaNEiwhWWKq0wQTjjxk7UckWffRV0OSxDQSRJShb4m73/dBfvw3AYoljQxDaloRwzBWvnELWRVSp0FU5ML5paONbMgPdX8r2Zj5kSnv6F5822ORJUcftrESMjw2Pvf2nXjiYL5piNqNyQB2EAQq0r/5TJ1DBRVidjAeAm4BVOEGrWXt0AT8GdqiZCSGEEEKI5UQClkgt369e0vQ+jkZDvKD7W2vJFnqITiKWLGHa4OzKg05Isv7wUd66JJ6g2eO7HZpyhMkEkPGXdyyd0EBgsbHBBEktLFtnUtJszavjIq/8cWJriCNDfHg/Yxs2vcWM97/ZlHevorgfgg5IGzwOA+WY0dF43XveVd0aWw4Y1bPuFAKcyPJvwJ3AACszCivEiXQn4wDwbeDluKi0RutWWdyqhgW/v4KamhBCCCGEWE4kYInU8vLs15veRyXTxRq770KqSbbNAurMUqYN1hK7OlTWgC14F9K0YL/+20HVElfAhhADoVuEkNg4DcnVjDcYGzd8jc8UrwxxDHFkiYslzNhmus/aOk6wH6b3ulUK6YC0wVp8OmU0U9xw312PnlYqx98LWxAc9txL1Y9byCQw4T+nOt8CzgDOx0VtNbBcKBmcAPZ14C6ZVAghhBBCLDcSsERq6Y/2Nr2PyIYE5LaeMKpoqdMGj+3NugLrftdxnhNEX9UpXtVcU1ixRFkDIS5t0FhiHyVlrFu1MCnwbhpIRjoubdC6IvFxbLCFHGZkLd0XXAschfxuCLK0NQOsGSEytsRx3Ds+Pr5qZKirxaKmaBLDSarCnWLkgU/h6mZt8/8f1dG5uv22dwCflTmFEEIIIUQnIAFLpJb+vuYXxIqxpsfYtcRmfkFiKdMGjzusPfb1OIAoD7ZgW7Ai4PHiFQZMNYZKiA0NBlcs3sQuVdFaiw399+wcueAk15ikDlIrwlmDjSAu5DCj68lecD1kJp14RbAIhWwp0wbnHDO2dG3oIdrTteYF77qbsZFs0+3vG7eqH4u2sQt4H/B64EKgDJRwQlZtuGnSOZK83T7/na8Bn/TbCSGEEEIIsexIwBKppTvTfMBFTGZVt8lvohy56uW1+slypA3a479rMc6VnHaF3J8ZfdWEeFVDWIqIMiFxBkJfBysOnGgVW/e7+VcknP9cauteuUuqSRucyWNGN5C98HqC7DTknl5kwfbljngykKkyPb3//Acf3a8OKNLAUeAvcUXdn4Mr7B77zhQzO6okHdAATwFfAO6V+YQQQgghRCchAUuklpnJySb3YInoHsv0lDZ3Bfb46J9lShucLRblxSsgLljsDPMoR60RrzBgIjAVS5wxTrCKExHLkLEuKgvAmNnzO1G5sNq6V8YaouPSBtfQfdH1EE5CbldnrTZ4ovtrAqhGUCqfjkuxKqkXihRQxRW4vw+4CDgHGAJ6cMJV1bfl/cDD/ntTMpsQQgghhOg0JGCJ1BI866YmW3838eThYbvnK0P01Px+mdIGiV2KoLWzkUtxDHEOF4UVNrhfTiBeJRgIKzE2G2Iz1pXaSkQsDAHWZfjZmlpYx0Ss+SOvktRBt9qgTxscWUv2ghsgMwW5ncwGfrTIhtR7H+s8ZnyYrt5LR+DXumGy1NZ6XUK0loM4IevruOLsQ0A/rsj7NDCDi8gSQgghhBCiI5GAJVJL2fQ1tX1su+nuKW7u7wuggl9yb5lWG6yJvHIYMF68mmGOxtNi8cofjghM2RJn/OESIS12opX7VVInK5FuTixe2dhgI0tczGNGNpC94FqC7jzkdrjhx3R62uBcCSDL1S+K1/7qW//lzP/9N9++Cwaa3OHPqCOLpabiPwWZQgghhBBCpAkJWCK1TD3wvaa2r8Yhgz3Fq8YGK1AJlzdtsFa/8lFOtgo2h4uJCBs7tq1LkLME5QibDYmzEFqDjV0Rd2tdmiEwWylnTsZlbdqg9QWz4giiYh4ztIauC6/DZKchvwtMhlSkDc4lyoI5NNTbv+di2HuXeqEQQgghhBBCLA0SsERq6TL5prY3JoR45gyq8xRwn5c2CFzWHr9VUvvKQFwAO2NrdJ72ilcYMDEE5ZgoGzhRyhpiazGxwYb22Dma5FySwu7HRV4ZrDXE1Zi4WMQMryN73jWYrmmfNhi0L/KqXcLVsUYDVKpE5WgjQHdvb512FkIIIYQQQgjRCBKwRGo5Whpsavsoznb1hXYLNlqEoLJYGhOvSGpK+V/FFYina/7WbvGq5jyCiiWqQJx1dbDAi1c+ndAE9lhKoYm9eOV349IGIY5iopkZGNlA1/lXEXTPtF+8WgosMF3g8su2nDayMUsQF+nuCtUZhRBCCCGEEKLNSMASqeX+wrqGt42soTs0w+euPTJM3Mqi7YukVmBKiqFbsMY4ASgHtmR96mA7xas5GFeoPSxZoozxUVgui9FYsLElDgyBV6ys4bi6XdZCFIMtFjFDa8mefxVBV8GnDQakMm1wroEOlHjJa9ecddH7nxz4+rd25dQThRBCCCGEEKL9SMASqWVL9mjD28bW0JWJL+0KDq8mOlEETXvTBhPxKimDZYG4CnG+MTGmfvHqmd+3BoJqTFwJsN3mWP2rGDCh+9mGMKu6uZ+tNcRRjJ0pwvA6sudeRdBVdOIVpr2RVw2LV3VuZwwEARw6uKWaL64DHlNPFEIIIYQQQoj2IwFLpJZ12f0Nb2sxVK0901bKw81HBTUvXjl84fM8UKbu1MFWiFe1fwrKEGeAEOLYEhgfIRbMFp0/tnCjdWmDcWkGM7yezPlX+7TBHU71ohPFq0YxEJXHR4d71mD6HlsznlVnFEIIIYQQQog2IwFLpJYHj6xpeNtKHLB1qDye4TBQZf4K7m1MG6w9RM0KhHHFpQ8CLmdv0btuoXjlCSoxcTXwKYMGayD2xd7D2K+UaAB82uNMEYbWkDnPR17lduFyINOeNjjPMQszvX/0G1du/e1f6vlONozUGYUQQgghhBCizUjAEqnlsem1DW+br2S4eOPO9aYrgtLcvzZYAP2EX5vnezXRVxZDDEQ5oBz72leL3XXrxSsMEENQ8isSAkQQGzCxIcJijPEV3GPimRnM0Dqy513pIq/yO1kxaYNzt7VAZM3p60vnBGEVgwQsIYQQQgghhGg3ErBEarl07Z6Gty1F4ZrVPfvOJq5Ql1p0HE2IV3b23yQIy86Azdn5g8EW3LVtzzn77wYViMsQdxtCLHjxKogNJgCDxZZKmJH1ZC64iqDHpw0Sdqh41QzJMZ26d+TIxGn7p4a8HRrj3LPVj4UQQgghhBBiMUjAEqllbXiwoe0CY5mMsmOlmZmNZOdKDy0u2r6QeGVqfrY+BW/aQsUuWk9rq3hl7bEorLBkibIQBxBYtyRhZAxBbLGlAsHoWrovvApTmzZoVlja4DPuX0wmkxn71mNnZkvVTCUM4oZ2de7z1Y+FEEIIIYQQYjFIwBKp5Xfv3dLQdkdmMrz49ImBa087POKLOLEkwlVCbepgUluqbLHFxUVftV24qtnKBEAlhlJA3B1gMQS+uHy1lCccX0f3RddguguQ2wkE7Yu8Wjbhys57LkODZuOlW/eeXqnySGCsOqQQQgghhBBCtBEJWCK1HK32N7Td3pkuBgYKWxmMh5hYonpX8/3Zpw/GkSXOWVhENmN7UwaP38rUnKuZsdgQ94kgLhXIrt5I7yVXE/QVYLrN4lVTtFi8MgYiC7a4ZTDYubUSxo8ERv1RCCGEEEIIIdqJBCyRWn72jF0NbVeshJzVnzuTQjXrVJoWntTJBCZb+6NTPWwJbJ7GCym1+NznilcApgqmDNUug81Pk12zlv4rribonobp3bRdvFqugu0nOB9bjUZzuYGRwAQYRWAJIZYXw+ySr1pZojPuhQUWzC83Rm8+1M6XnaBm9il7ts6WMcvzxrbOqbXmriKdSMASqaXH5Bqb/QQBRKWNVH3K3knH79ZEXh1ThmK/x9gSg4u+qp64Ny5p2iC1KY5+vmghKMZEMwWya9YzeOU1BL05mNrFycWr5SrW3sZtrSXsCegdOH386IQlDDUJECKlzrDBxb5mOH5N2rgDzzcDrAdWAb1AD9AHdPv/D/15l4CZmk8ZyAFHgUO4eF/RvLO6GhgHBmruRfJv4O9F0d+DvP83Bxzw90EPjvkZ9bZN7Nrtbdrl/z+JVa94+5aBQs2/R72NSzIl+PEisWcybnTV/Jy01YK3WaFmDDkC7PW2Fc5W67w9k7bZD2T9vxnfr8tz2matPffhZv1CiCYmQ0KkkvO39za0XWSDYDDDegwuFeyEoU8tEq/m+b41Bpv30Vfhib66PGmDteJVbCGaytF9+mYGb7iWsHsapp6m7QXbG6bNwpc1mNVw9P4fn33DT93J0EBXQ0eafN3fqSMLsTQYYI3/bPD/Jk5xl58PzTD75jwRHY56By4RfwpLfL4b/WcdMAwMeccz658cIc98258IcxYXVREzK2blahz8Xf7aDqHoi5PR59vNRmAzTrgaYla0CpmNurJz7oPxDmvErJg46e3+FLDH34dTUXAZ8G17I7AJJ14NezGg2/fLgNmoKzunrddGY8U1wsG0t/EB4Gn/7/5TQDgYANb6NrrJt9FRb8+umnHDnMCWsbdnZY4t9/kxY5+356kgwozNsedwTb/P1rTPxG5zx+CkbUZz2ua0b487/TiwD4mEQiwaCVgitfSamYY8grINR7qC8mkYC9Y0n7q3GIGpRhSyWCwGG4HNuVX9FrvyYOt1noXSBs2x845jqE7nyWxYy+BN12K6Jl3NKxPWPLfbd24NbNjMQRfZkAxEVeLyzLMgYipXVIcUnSjYJEJHI50iqBE9miH0TlUjnTPwTn0zHWwMOAt4lneSR7wjZ2rsZI8f+I4bEGLvqOVxb893AA96x6MdHX8cOAfY5p2mUT9XM3Ocy2qNA2lP0AaSf5MorXHgNL9NFTjsndHHgIe9UxWr+4DvO5tq7scG77iGc0ST5H6c7D4k+xz3TvEZwBW+be0GHvVta98Kvwe9wHbgXG/fMS+wBDxTeK0s4gFt5vg1w77fBDVCzJS361PAQ97eK8XG/cDpvp0m4mo/x4t+tfasnGQsNjXj75AfM7cA59XYcpdvr4/48WMlRRMO+/5+nn9mrPLjZ61QlfT7aJG2TPp+t9+fAc739szhROwnvT13ohcKQpwQCVgitew+VP/4bjFEUTRy2sj05oGB+ATRQy1+FicrD1rrVh4EohmIZ06sAdUXfWXr/Or84tVxKyTGlmg6T2bDegZuux7TNwGTXrw6FVYbPBGxJciwCqCnR0Op6Dh6gOd6R7HeN7uBdzK/DnynyfMYBV7vnf563tgbLxbcCXylgeOuBq71TsIqnGgV1Ti0dhGdPnE+whqn+EzgauDDwD0tvF9bgUu907TKz88S8azc4OB2Mscq9ELKen/cSZxAd6cXUk5VDHA28Gz/byIGVGruR6P3IZ7TDwKcwHseTmS9wQssd3ixZSXR6216sRcGevzvawXAZtt5PM+9DHAi2RqcaHadt+09wP0pFguGgCuBC3BRbElaQrWOMe5k9owWsOVqf9xJ4EfA91dAex2rsedq/8yotWcjk8zFtM1hP+afC9zk7XgvcB9KgxViXuR1idTyK194dd3bTMz0csGafQN/+uIPj7nnctCckLFIscXa4/drY7BTfmoQLrRNm8SrOd9fKG3QxjHRdIHMpk3033otQf8UTOyEYDGRVytgtcETft3AoSKXXTi+4YeffeVpmTDaoR4pOowAFzFyNvVHCiVO9Y9acB5dONEnQ321l4x30J6s83gbvRNwDk5wqq1H0uhAWZ3jhOdw0RytEEpO9w71BV4oSSKrSrQ3QsTWHCsRs1Z5J/884Angbu/kp9WJ8lUn67Ljeb79nIGLlqj49tOue5GkvSXrEI8A13uR5xHgG7hIlzQzhBOuLvf9M6ixa6MiSz3tPBGuE8FgxJ/LhX58+b5v52kJpV7nhZaL/M/JGFdqsz3n2jIZM57j7fkI8C1cJGea2OjteaEf/+Il6PcLtc1+4BKcmPUc3Auke/wzRwjhkYAlUssVW3bWvc10Kcs5a/Nndg90BxSbfB7UKzBZH9VkIC6ALdoWiVfNnfeCaYNTBcIN6+i/7TqCnqMwuXuR4tVS2XQ+P3OJtjVAxdLXU9pw/hV95zHADldPTYiOoVa4qTcNMPDOSaVF51Hi+LfYi+1l2Tq2GcJFXF2NS6FJiue2o2Peh6tZ1AxrgOd5wWTAn2+e5VP/54pZ5+Iigp4NfBkXFZQ2jHcOF9P+NwA344SjXt9mc8t4D7pwEXlnAj/ARUMeTOE9uBS4DZfaloxJyxXxNJ9gcCYuXexq4EvADzvYlkPANf5cV/uxscDypELWtldq2uvZuBcfX8HVHqPD7XkDcBXuZUd1mcfgpG2W/Bi8CfhJ/1z7tv8ovVsIJGCJFPPSc+6oe5tyNWBssHIptgBxdk7Fk9ZHXrn8vES88q/GIoin7Ql23f60wWOnNudyjksb3LiB/luvI+idgKndHF9HtQXn04g9W3nMZrc1BtaG/Mkf/GDjL//BQ2zd0F33Lh7d+QF1ZNHuSXEjb+Rb/Ra/mfNYDNuB13gRotpG4SHrnYu7mtzPVTjxaq3fX77D2kzimIbewT8dFwXwKVzKUFpIiqefTMC6BnghLpqk2AH3wzJbq6gbF4lxAfDpFrS9paLft/HrfL+Z6TDnOxEMCr6dnw68BRd1+BncQgedxAXAC3BCYLSMQstCJO01i6vrdhZOEPxah7bP84AXe3tWad/LjkaJ/FgU4ISsV+PS4T9L5wuDQrQdCVgitfTH9UV7GwP5asDUVLyNsWrjQkY94lUSeZX8aLx4VWTe6KulShusrXs1X9pgsGkTA7ddQ9A37Wpe0caaV8s6f23WJa8QGU6vxv2UbZc6pRBLSwjcCjwfV08nz2wESzsGjEFciszuBvcxDrwcl/oDTmjr5IEzcaK6cSLPNpyIdU8K2oZltoj3zAnux4tw6U+dej8q/hrGgTfhUhu/CEx0sO034+rebfPCQKHD20oiZHXhol22A5/A1cdabvr8+HaDP78CnV2zK6kTNwj8BE7I+iSu0Hsn0IsTVm/CiW3FDrdn7O95BpdauA34d1xUrAq9i1MWCVgitfzuPeN1fb8aG7IBwa9efXi1CyRqwMepV2A6VrzdEBsffZVfaNdLkzY474qDx1YbLJBZv5aB268j6J5waYMm0yZ/sBGbzuejLOV2c3h6kl965/kX/tKv3RxCIcIadUwhloZ+XNTVFV6gmOT4pctbTZd3zhp1as/yDt1m75CkaQn6kv+MAz/tnajP0vwKle0mWUlzPgHldOANuPo3+RQ4sXk/Z78JJ7B8kM6MxLgUeBUuJWuSdL3ZSmqRjQNvxaVtfob6i/a3ik3elmf5/jfV3slY62Z1zL6mvcRfx4dY/tpYm3GRTNuZTa1Py6StihOtu4GXept+ArcyrhCnHBKwRGr50CMb6tugYhgeYvWfvjQ3ThT7Z2sbIq+OPb8T8cr/n4E45x+ZwdxdL23aYG3RdmsNNrJEuTyZ9esYuO0Ggp5JmNzlo65M686nYXu26JhNb1u7fQBBAPlDZ0wf6BmvVOP9galv3yPXqB8L0QBZ4M24SKZkOYx2OyI9uBX6ftzAtlfixKtef75pJY8T8p6Hq+H1t3R2gffAO35zxamzcRFCY8A06RFZkvTYLcDP4ESsTlot8mbgFd6eaRFb5nvAJ+38dt9G3s/Si1hbgHfOaaNps2fkzz0RBP8Rt7recrDN23PEt02b0vY548eBK3B10P6O1iwoIkSqkIAlUssfXFlfFkc1NvR32Yt6oqmNYFxtqkVPaRoQr5L/+KicuAJx4rqY2l0vTdpgcti5Kw7aKCbKFwg3bmTgtusIBqZhYoeLvFLa4MLbG+8fDR9Y/8Kf/u2hb9595f56X4ZZ1X0Xol56gDfiVoyaZGnEK+M7/w+pPx3qBlykWOIYpxnjHflJXKRNP/ABYH+HnmtSNLx2pL0AeK13ZNO4slciDo0Ab8elZ329A87rhcBLmF04wqyAdh57oaAX+CeWroj+JbhIoWHSJbAuRA63UMVbcKLr95b4+FfgBOtu0lXDb6G2mQiDpwE/hxNYH9HUQJxKSMASqeW84Ym6xYLpEuujUmUV3XW8fGlSYLIWbAB2GihZ917vmIi0dKsN1v7KelHNxhDlCoTr1jJ427WYviTyKkNnrjYIy542OHeXlUzva178o01nnlF+dGSwXn9oszqyEPVN3l8FXOYn8PESOcpZnDpdb7TL7d6pr5CudJWT3YMYl85yBvAO4H00vypju4iYLR5+JvA63OpjaV+WfhpXH+nVvn3+2zKey8t8Wy/ghJ+V0s4jL3ici6s/9ve0X8S6ELfy3IC/xyuFpL2+wbeTB5bouNfiXiBAeqMC5yP21zOKi0b+MG51XCFOCSRgidTy9o+N1vX9gznDx95lx/vG8sGi38E0Il4dy9Pz4pWBuARxzh6XtbhUaYNzL8WJV0nkVZFw/XoGbrkW0z/txCuC9kVepTZt8AT7mMxmf/Zdn7mM3sxXXWpqPbxKHVmIxXMZblWzGZauZpH1AsFjwJN1bHcbbpWrKi7NbqUVyEsigbZ45/6P6cxi3WXfVob8gDuyQoQB4+3djVsYoMryrPj2fP/J44TaldjOp3F1k14PvBcXYdYORnH1jUZJd6rxidprUrvwr3Ep2e3kEpwYaHz7XIlFSnN+bHuNfy4+jBCnABKwRGo5Wq5v1bfSTMBwf347mapTlU5a2qlB8cpv6spfGSxevKpyLKhpKdMGay/l2L9RTFQoEq7fQP8tVxMMFv1qg4HSBuveR0RxZ3m7jUsEpj4Bq+cK9WMhFtn5RnCCUMzSCkKBP+Z369jmKi8qRG0+15MVrbdLMGgfxRVE/1ngb/z/d4rDXFuL6aU4sS3X4mNwgnvQbvsb374C4JX+OEuZTvhsb9ek+Llp8/1cyNbttnOME7HOw4mg/0jrBfQuXGrrZtqX5mZ8WwlqxjZTY7vkE9f82+rjF3C1m34S+EvaJyZfhIv2CmmfeGUW+Hmpx+A8Lt30jSyNMCjEsiMBS6SWP3zJ4iO5jYHJghlb31XcTj5yvzihy9SgwHTcVMCn6ZXA5mp3vbRpg7N/mk0brOaLhGvXOfFqIAdTu71wpbTBuvZhAWMxoVk1Ha1dMPptIXrUjYU4mYOQOIq34YoB51g68cp6x+AhFl9j5FJcwfbIO2utPNfAO2RhjX3ieZxpU+OcmhrHNPKfVj+EJnErpb0WJ2KVOqTtWC+sPAeXmlVo8tpNzT0I5ggcc539cB5xoFrzcyuvc8Y/Tl6JE+zuWQL7PgsX9VFpQztP2m1tW2eOuFL73bnfaXU7rxVDr/Jj0L+02J634FIVW5kaXWvDZH9lZqPlKjV2yuAiTbtwUX3Zmm1i33ZbJWhN49KPnw/8cxva5nac0NhN68Wr+WzKAu1t7ndszXjdanEwhyv4/yo/Bk9o+iBWMhKwRGqZzvfXoZ1YyvQMWKJ12GjOfKd1QouteddyzGPIcSz6qn7xytbxtRNHXln/iI3yBSdePedqgsECTO52z1ilDTawD+dfd/WGa4vVjWNRHBw2JlbnFKK1zvk679xVWiAAGeZX6m2Ns5YM36GfJ929SIfjDFw9oK4WOvWmxrnEO2SHcJFOR3G1uWqdXuuvb7DmM4oT4oZwKTzG27JVTmmSZnUFLs3y8x3QdmJcqtf53pEN/fU26rBmvV1LwGFv90l/DyZ8O01sYXD1flbhIgdH/c/D/l5WmX91xGYo4uomvRbYDRxoo23HcWJZN60VlIOath77fR/29j3i/51mduEG6/vasLfxiLfzKK7wup0j0jRLIoxdj1uN9KEWXfcWXDRbIhSZFtixi9nooz24hRZ2+7GjiBOyZphdXbHbb9PjbTcMrAc2+vs95L9XboE9I39eN+IiW59uYdscwUV3raZ1Na/mjgEF37+SdpmMBXMXFOnz4++wP69kLB5gdoXUCq0Ts3I48e7lwIdY+pUzhVgyJGCJ1PKf/mpNXXPZt75yaOjM88pj7N7P8ZHTzYgtdt5fWetTB2d89FUAljaJVyf5rk2iwWJLVJghXL+BvpuvJByagcmnFxl5pbTBBec1cQzVwvau0o4z4ojDxmhpQSFaRMU7VJf7iX8jAlbiFAc1zlM8R8yojaxJnJTYO3W7WVzx9hGceLW6hU594syXgUdx9U0eA55qQIzpBbZ6h/QsXKpS8hao1IJBs+odxhd6Z/nuDmg/sRc0aLDtJPav4orUPwTs9Pdgos59bfD23w6c7Z3ZbItsn7ThnHeW34JLJTrcJrveBmzDiXetEq+6fb8r+nb+KPAELh0qqrOdb/efZ+HE7x5mBdtmmfECxEu98NKKlUUv8+2jFYJLIlwd8O31QVz0aLWJdrXF2/IiYJPvFyUajxRLVnnsA14B/GmL7k0WJ16dRutShZMxoOL7/iM1n2qd1xz6c0s+23x/bdUYbP1+LsctNvAZTSHESkUClkgtGzYsvl7snoMhZ4zsOIN4zyg2Q8vFq7mLGvqIp3gaiCw2tHU+muop2m4X/HUiXtWmDfbdehVhfxJ5pbTBpvaRvAOuVtYTHxqzsV2ZZUKFWHossxE0Gep/6x96Zy5527/ff6b8J++dqJDZ6IMBLywMAWu9yPMALmrhZDzPC0NTLRiEknMqAD8C7vXOaDNF0ot+Hw8B38IJWRfhUuvGvTPWzBv7JFquD1erbC/LvzJhEmlWL4EXPcq4SJvE/keaOJc9/vM9XGTLhd7+670QUG5BuzG4CKVtODH1b2n926fzcCu75Vu074xv60e9je/BCYTlJtr5A/4zDJyDK+Z9Jk7cSoSXZsjjxMgbaD7acByXdlyl+fTWXlwk0A+Ab9OaKDyLExF34KKlLgKuxolazYwZAU5kOtPb8SstONdb/fMizzOjoRqxZ4+/xkd9v32IxuuTJSnEj/tPxvf9C/xnA7M17ZppB2Vv2+tw4uUTmkqIlYgELJFaXnrl4p/NR/KGTaPV0zla7Tv2br0pocU+88djghHYAGwBbNFiTZvEq5OkDbo/OfEqyucJ16yj7+arCQeKMLHL1QFrW8F228QjuNPTBud+3UBImCuWRqJqfNLyaqJtKHdz5RF5By+Z/C9W/EkcjyeAH+Iilvax+LfyAS7ia6vf7mRcXuPUN+s49fjjP+aduh+2QYSYqXGkvuMd0itxwl2hib6UiFhrgduB96ewzfX4NvQk8E1cJFmlhfuv4iI5dgJ3ANfg0sdWe/Gl2WLo1rfDK7zj/Y0WnnsWF33VisLYSZplyYsDX6P1xacnvehyFy7K6Xrfp8v+0+j5JwtJXOn7564mzvE8P8YVmrjfGVw05Y+Az7ZRtJjyfeIeXP2qa3GiWbEJO+Lb/w9obuXFc/39bUUaZsZf11P+eu+l9Sus1o4D3/K2vBpXx6qZVXYTEWwQeAHwPmbTm4VYMUjAEqnlsm3ZRX83Xw7YuMquo9qmtEFTW2/KEMcQTVls1dYZ4NSi1QmTNMYYomKBcM1aJ16NVmDi6TaLVyxTxqFdnn1YCKiwdePoediA9KVbrhi6ahzQNGNqRIZTvTEZ6otM6PbbPOKFmftoLEIgxqVfLSYFawsubc406RTjHfoZ4Ms48aqyBDbehytIfQ+uftJG7wA16gRab4dne/vfm6K21ueFmX/zjmuxzcc8gkvz+Z5vQ5fixKFmi+CX/fz+JTgRq1WRcFfjVpxsRrxKasv14oSfzwL3t9nOFZyQdZ8XXm7w97rROnVJX1+NEyAbLUSewUUM2SYEi0Sw/y7wQVqTincycsBHcULZK3DCd7HBtlDBRWFd6ce9RujGCauraD4Ns9uP/98CPrEEYwD+nD/vx+AX46Izq02O/zO4tM/rm7CrEB2LBCyRWp5/9diivxuRMUPBxHqiQxDZ2VUIW1VU/VjUk4EA4pzFFttY8+oEaYPHxCtriPI5gvFx+m+5hmC47CKvCBYhXjXBSk8bnG8uW6mS7S9to6ckyWHpSeo+XIVLFwlSfj1d3jn6OC7lTfd38eJDDvgq8PUlcjzAFSJeR3N1rwwuguIo8DGWZhW5uTyFW73qxcDFzKbfNXJNJe8I3o5Lwev0CIDACyr7gE/iomqWkgPAB/zxb/JtuZn2a7w4M4QTxv6+BcLGoBcZemku1TRZ6e7HXgTZt4R2LnpR4gguOqUZOycryl2AE8sbicJa48eOZuzZ6235zyyNeFXLXb6d/ZRva/XUA8v4dlD17b8Z0elmXPp2s1FSPX4fX8JFBC51VPc+XNTqy3ERWbaJMTiJBL4Wl/q4CyFWEBKwRGrpqz66uJlpEDNd7Bkpm+wZ9HrxyjYiWNiFf5tEXxmwEcTT1j36gub2fcKD1f76uNUPnXhVzecIx8fov/lagtEKHN2ZGKRNQs4plDY411XomWbvvnPXfezfXkNfz+LncG/9DfXjFt086x2BTaRfQuz1k+he3dpF3fskfeYx4NO46Kul4gJcpFGzdUsGcMXiP+yvY7k44B2oAi5KBRpfuS+PqyF2BS6aqZPbTx8uUuyTLJ9oXMVFYezERbVswNWzauLNCgVchM+VuJpIzZD15zbiP0mkXT3tI8AJmw8A/0T9hfBbxddw6YWvxglzjRZiL+NSvs5vUCBY59teo0JJBiecf57Wp7gtlod8v3k1TpAqLSC4JAtlJEXRZ3ARXPfjBONDDR5/Ky4ysEpzAl6fbxMfZXmjRss4MbKIiyprJrK3hEtPvRIJWGKFIQFLpJaPfO1Zi/peJcrQ05UffPHFT2ymL25gOri4DeLYEAcQFy22uNjHTfMi2rGoKwBriCNDVMgRrllD/83XEY5VYOIpnzYYtvh8WrHpcopXLdA6rHHzzyzrCAb7CUxevXNZaNUqU8tNMmFVTa/FOdX9uBSsf2BpUu4SQuAWZgtQNxpBMIyLfvrrJpy4Vgspn/B2vYT6i+cnJNtdhavNc6RD208fLl3oQ3SG+P0ATkh8Oy6ds5li6REuquQ6fw8mmjivIziB9as40fYCXK2zLt/vyjXj10L0+uv7Rxovht0q7vG2fQez6YSN9BVwhc0bifpc78eRRp5b1vfRz7O8ojfAnTgx7hZ/PfGc80yircCJsg/hass9RnPpskmx8lU0F7HY4/vGR1j66MuF7u2nvc1u9vaMGmyfWVxq8h24RSSEWBFIwBKp5Wf+8vcW7R+cv+VHfT99wy8OYytgu+pwNezJ/2QhTnZYscRTXk1qdSKTXTjyyuKiyuLYR16tHmXg1usJhmZgcieLSxu0LT23pu3b1m1bLDcU+lk/tmPbz73tzy+DSh1Fc1+mjtz6id9KuAaJVye3UcY7Ht/CvbGuLPE5XAmcQXM1V/q9WPEhOkO8Sih5B2oQ2N6gc5+kIG7ACWH/3mFtKKnDdIdvP500diRtIqlJ1kx0zQxwWo3I0iz7gX/FRXSdgyuOvgUXRZisSjefLXv9tv/C8otXCY/4dv5KP55UG2jjRVzk73rqL57e72eKtsH+ZWl//bDF8jVcLautzNYWy/pPGXgal+r4AG6BhFZwPq4IfqVBG1r/DCkCn6IzxKtaPol7wXEFjUVjJotqrPL7+JSmDmKlIAFLpJb/9JN/uKjvTRYzXLSldG62NztAzrRGvKqZPrgIKIs1EBUtdmYx7kwL612Bi7yKIZrOEa4eo//WGwhGSjD5tPtCuyKv7HIJUB0QeTV3f6VSV1SJT7dx+I3F7j+zWf1YiAY6b+gd5m/hUpGWOvKuHxdZlBRfNg1cQ7d3nD7mnbtO4wAuEustuDSURmp8Rf46L8AVme6k6NR+XBTOx2iuBlG7eAoX8fTTuFpJuQb3U8UJ4tfjol6mW3R+R3Ai1l1euLgQtxLcmL/vtSupZf3P/87S1rxaDN/Aiaw3Nmibqh+LzqN+AaubxgWsLpwQmOsQO076+/sWL7pEuKimJ3DRfz9sw7lejEtnbWS/yUuQEPgc8P0OHAOqOMF3NS4du5ExOFnB9zxmU2eFSD0SsERquebcOxb1vWIFNo+aC4hmIA5bk9pn3WOk9lu2AnGORURfNS+ePFO8skS5PMHatQzcfgPhSAkmngQbtjfyqikfdDm2bdP1WgPhUZ7cf/vqH+64ib7uxc0Rnnuh+rEQdWJwBYPvwUWpLEe02qW4SINGapMkAlwXLpLlvg629Q7gC8DrmU0Va8QJ24pbve6BDrmuAVw9pw/RWaLaXJ7ELebwFi92lBrsLzO4CKFLcIJNK5nx4sQPcULbZf4463DRLcmKiPcBP+hQO38et2LbOI2tTFjGiXgh9aV6hQ2ebyK+HGT5al/Nx324KKutuML2d9A+wfJ0mou+Cn2fupPOrdEHTij+LPAmZhd4MXX2/5Lv/5fiUoCFSD0SsERqiReR8W4MlAuGo7HdyLZ4keN+Pc9C64qmA3HBT+VMCy9ysWmDUznCNeMMPvdGgoE8TDztns8dudrgCkgbnG+OEGdYNbz//HNO+zHZUGWwhGgT/bhaHp9kecSrrHfQk0LEjQgKI95x+vcU2PsuXGTNpTgxqt5BuIJLRTyXzhCwunGi1b/QOdErJ+KHwFdwBZ3rFUiOTZf8dpfgorDadd0HcGLQN4HLcZF32/3f7qG5ekftZBKXXvka7xdFdfbnKi7ybCP1RVM2O1sM6KxVd2Pfryywt83HugInRDda+6oHJ659ic5P2f8hTgy8tcExOHF+zsNFwhYRIuVIwBKp5T/+9cBJv1OuQF9vwMd+vTJOuJgXVYt7LiSLAVpfEz6OIM6drPZVPWmD839/vsir6nSOzNo19N92A8FgHiZ30NaaV0obnH8eWsqyauCp81etOjBCXJpY3Nz0v6ojC1HfnKWCiwrau0znsN1/Gk07SwoGfyUlNi/joilO9w5jvddtvXBxLjCKK3i/XCSroH0NeDBF7f4buDpWZ9N4xE0VJ7CcQ/vTpXLext/G1SlaS+vqHrWLO3EFwTdSfyphhCsEv5X6BKxGhZNkoY9hnKA/1UF2XIpC4etxEXPVBm2YCMFfZ/lWHa2Xz/kxdD2Np7puwqXLPq6phFgJk0EhUsnTE4uIvo5h2IQbt62PtlCNOPHLqjoFDmuxXkyKc2BLtEa8WuD7C6UNhuvW0X/b9YTDRZc2SEZpg0t9vcaLVTOlrZXy+lUx4YRZxLyqS91YiHo6cTduxcHvLuN5nI2LoNpH/REUxjtPd6TMiXgIFwVwbYPbV72zfba/9uVqPz3e7v+WsrY/6c95k7+GEo3VI+v19+AulibqpIKLvEoDReBenIBlqDcU3z3OV9V5zBlmo2MaiWwc85+9nFqci0v3rDQxDjyAq6GYFgo4QfhVDbaXCPcC4mwkYIkVgAQskVre/NKTv4SoRNCTMadnqpUNx9yHlggc9phwYStg8y0USOpNG7z9eoKBHEzuApOhrRHlShs8sW8aFAfy4QXDJbuZYBEvylerGwux2EEgSf362jKexwgula7RQthZ3GqDd6fwHnwft5JdH/VHYUX+2k9j+QSsJDXsW7SukPlS8mNcDalbaCzyxL8CY4t/9OzXsPIMnsRFj4U0tjDEOPWtZlhscoJTwhWff5BTZ+XabtzqrwGNR1/FuKjGtK1a/F3c4iFrfdupR8ROFhvZxmwtLSFSiwQskVqqkycvp1CuwviqrvEwjledeF63yOmf/8FFQxmshShnsWUW0I3akTbIbNrg7de7mleTO13UldIGW7x9nRjbPRg+ftGAPXyP5gdCtK5n4d4e/zuusPhysRUX8dBIoWdwIk4rl5Ffauf+SZyA18jgZnHpK6txxaeXmj6cCHRPivvBd739B2msjk0VV2h9IxKw5uOAb5ubcNE9po62HeNSZIdwhbcXwyG/XUD9tc2MbwPPwq0w+fVT5B5t8e230ZVne4GHgUdTeO15f+4bGxx/I9//R9X/RdqRgCVSyz995eQphFViPvO769f3rN/Xzb78PAJP/ZFXtnbGUgab59iqhM3ue6Ffz5s2ePsNhEN5mNgBplNXG2yGlIlXABVLaPacT/CEW5aypRX9hThl6cbVeVnuVcwuZjaSpd7BKIkguyOl98AC93sb1BNlkhDhIlTWsfQCVhJ9dSeNpR11Crtw0XvPofE0ol7cinl3a1h5Bge9Y39ag/2jH5eetlh249IIe2i8OL8BXoITzX54CtyjjTgBptTgOBD7tp/WN4w/wkVh1bsqbLIa4ShOBJSAJVKNBCyRWqp9vSf/UgEGwsmzsUWeuWJx4wKTwUVfxXmw5dkSSI27BnbBXx+XNjhdkzbYn/ORVyGdmTbYiI2b3W6Z3bsgxtpoXSG6FXtsrrQwA+rGQix2rvKkd/iWiyFc6kajqTr9OAFoV4rvwwFcPaZ+6hewktoza5bhvLt823lsBfSFh3GrCfZRvxhn/X3b6h8/OcRcpnBiUtDARKS7Tr/qAC4K63QaF1aL/rhvAj6OW3BhJbPV27iRFWAzwGHSGQGbsAe3CMiaBtpM7MfC9ermYiVMCoVIJddddGLRJgwMTxyIBuNKYSulaI7K1EDB9ppNY3z0Vc7H2Bga2/eJ0gaTP9WIV5k1q+m/vXa1wVBpgy3fvlH8atqZcFWeW7ti+svmJPMLCVgtvwErIeStzYp0Ku+rxaV8FJbxPLbhijQ3krqS9U7xgym/F4dxUSpDDWybOE/raLx+TTPt5zEvFqSdHd6JPavB7SNmU91yHdbPMzgx5jTfTgZxQl3Wt5lujheWYt8fK/7nEk6AmvQixWH/vXr67DSz9YLqLeQe+nNdLEXgEX8vm+kTSRTX63F16v6VdAvlC9GLE18aiYJN2tejLO+LkGbJ4aKn1tF48f+NDW4rRMcgAUuklq78ibMQKlXL2YNdvasHu9ceP32pX7yq3dQmta+mwVbsnMCuFqUN1hwrjiHK5QjXrqH/uTcQDpVc2iBKG+ys6zUQG0xcOGM0eP8ZEDx48vnon6sjt46sf6alfVLWxWwEgHAj7HQHOB2rcZpzocF7uod01l2pZQrYiUtBa9TBH/XOdmEJ209+Bdi+9h485u9BI6JH1QsBZ/g2uVwEvk9twkWTnIaLcOz3/SVZkcbUfH8+4aJW0EpqUcW4FLGZmrFjt3f8d3obLkSBBYpCLKJ9Z3EiWz3cjath1Utjdc385IMZf/wLcXWx7sGtqvjkSa43TWzGvUSoNNjecrgVVdNM5K/hcn/PbZ3tpIqr49hFY2mYQnQEErBEavnK/SdfSOjnXr5x9PxL+sfZO01DEeFzxKtk87gEcaNlfOfb99xfJ0JZbKjmcoSrxxl47o2Exwq2K22w40jcuUp5czbz9FqwD6qXLpnlQz+p20t9b8A79blcWUFORysEiMlldrbBvflvdMSPvIiyHreSYVrnXiUaW4UwISl0PcLSCVgBrj7QnhXUJ3b49tRH/QJWUjR8zTKd+zrgHODsmv7Q48e8JJKq6j92kRMEM8/PxttnEJd2ZryAMQE8jUvFfBg4Omdfza4M2FPn93fjUotvoHEBq1acmPbjy1W4gv8HcCLWo74f7CS99Z824wTCSoP2SdIOt6d0DDb+WThM4ymnEe5FzDqWd0EUIZqeKAuRUkZPOk4PZDNnkSmucVO8xsUre+zja19NWzdVCBYzt5q73/m/X5s26I5jiAo5MqvH6L/lesLBIkw+7Q6qtMEWb98iYqAr7iFgGKsI7SWc1GWA+3CrdImVd38nWF5BrwcXLWIb7NQlXAHzN+IEuTQPDDHNCVgDuCibpSLEiVdHVlCf2IkTXoaacGRHcVEY5SXqw+cBl+Gig0ZqnOkSs6t6NioQLyR0Rd4+Rb/vLC7Kaz3wbFw67AO4hRWSCM/qMtzP7wPn46KwZmg+Fb7qx8uMFyo2ANd4O+8F9uFSDO/3gkhaGPb3sNSgTbqAn1gBvm+ME7BNg9v24NIIn9YkVaQVCVhiBRMwPV3YRM4O1p/sYOefIhmwRR991bB4cvK0QRtDVMhjVq+l/9ZrCUfKMPEUbRWvlo2V9Pw0EFQgy1nYAM0NllTkUMrdysR6J2s50x36aKzuUy3ZFTLnimhsxbRa56lvCccFvKNWXUF9ooBLh9tKY7Vskki4cdobmdaHq8l0Da5QeRYn0BSZTfVbirE7aQcVnGCXhLCPA7f583sA+GJNG880cZx6eRj4NvBcf25xi645Yla8C3ECzhk4EbEKvBgn7O7yn/04Ia/Qgf2lGyc8Rk1MrOqtUdapc52oyfsT4sRApRGK1CIBS6SW//BTa0/49yOFgOvPLa+meLgp8SoJmLLGQORrX1V9Fl/drthi0gYhyhcIxseceDVUdpFXJkBpg+3aRwvnFpUqUD1XNTKXZWInVt49TSKwlrMzjdLYyntzRYPyKX4/rZ939i7R8UJmC3uvNDvuwKWJBdQvKFqcuNSudUQywJU4Yeg0f45Fnpk2apZpTEnEs2rN+T4bJ+4cqPn7UvIVnCB5Li7V0ba4vSTXWq4ZV7O46Kyt/npzuJcFB4GncGLWAf//y80w7iVC1KQdNAa7cbGfxqPZhFh2JGCJ1PJ7rxg9ibcQml6T20rpEMR2ziqECw3t84hXNf9GvvaVqTd1cLFpgzFEhQLB6nH6nuMjryaf9tFfShtszz5aPDWOIghmNq+MeuJCLHuPsix/+tcwTnTRZL/5AdvgIl+WgtA75QdXoC0Pe2e8EQErWRGyuw3ntRp4GXCxv9cFZlf161SqOJG8F7fa6AxLL2DlgY8A78QVtp9q4wQiSYWOeWaK5Xr/ucjb5QizaYePAI/zzPpkS0G3vz+aVLXmudqFotZFipGAJVLLzPQdC89aAziS7x3qCdaetWl4kXOnhYQcC/jIqHgKqFrfc+pdgGnhP82mDRYJ1qyh7+ZryIxWfdqgWUS416mYNtiJ12zAVqC3q5d4O42XJxFC1DjbxWU+hwE/4S/qdrTEcR5aomNlcQLWkRVoy7xvjwMNPGgS27SyFpnBpcDdgiucXvDn1Uxtq6UkYLaQ/HJxAPgg8DqciNRsQfl67h0115+kdSZpluv9edyME/oO4iIAd+DSc5eijla3H4MlYDU/Lsa41RzXo8ViREqRgCVSyy+/708XntnNDLFp/Ee973nln611AtDJhvSFxSuLwQJRAeKCde906yravsi0wVyBYPVq+m+5hnCoBJO7WFzNq2YeZUobbL09LVSL59kwugQb3bOYWaMQYsEuEndAh++idbVphKuDFbTZnsnwmmdlvklIUvIaTQMMcUJTK1gHvBQXdVWtcYr1iKufJ4F/AF7NbDTYUtejsszWuquN0ApwBfhX44ry53GC1uO4GmKPMbvSX6sZJv0LYHTMTNWPwQMyhUgrErBEavnA1999wr9ffe59/eNb/myYg1Ww4cJTqYUEpppPHEOcs266HbYhbTDvxKu+m68hHKnA0Z3uO0GbIq+UNtiGKUHNeZULQ2QOnGUo3aM5vBAtESKWe66UrMqgDt384J1laQQsi0v7XInCY8F/ggbvQ0BrapGdBbwGV0spR+enC6aBncDfAK8ALvHjT2mZJz+1olaSSt3F7CqHz8YtCPAd4G5aL2T11YzBojli36a6ZQqRViRgidTyy6+9YsG/TRQMl23jQqLBUeKJhedTJxNyrNsuzrvVBwnakDZYLBCuXUPfzVcTJmmDRmmDqbrm2nZkDUQVbKa6IY6zJzznUN1YCM2VTk17LlX9lZUqYJWYLcjdKEkdnEbtczbwNlwkV1KzSeJVaziKE7FuxKVmDvl7HnXAuc2XcpjBrTS51Z/zXcAdwHSLjtmDVsZpJVnf/4XQpEyIpWTdwEML/q0vjBkMs2cw053BBvNPqU4gXs2uPOhWHHTRV3bxisNi0gYtVPN5wtWr6bv5WsLhEkzuRGmD7dzHUhCAmSEyvetm7GYCs3Dd5351YyHSQF+HOI4rhaUoIFzrZK9Eyl7QaEQwSoSmZsSm84Gf8sLC5BJfu1kBE4XF8nVgF/AC4Fk4sbHUYddpmRWzQlxE1kZcSuk3ge/TfBpkltmUctE8IXqHKlKMBCyRWg4dOW/Bv00Vs2xdFa2BHy3wuF2EeOXnSFEebMEubrq9yLRBfNpguHrcpQ0Ol514ZdBqg2mak85r0wCiKnFp+uresaf7M71TeSIt9iJEihlEAlYrnV2zhMeaWcG2TBYVWOrIlHOBN+KE3Xyb7mdScykR2kLqEz1j32drV9xLq7j1OPD3wFX+s57ZVL5OE3QiXGprCGzBpZeejVthsdBke1B0nxACkIAlUswffer+eX9frkYM9o3w7hdfvM49280iRIc5U17/tagC8bSdfXwuar688J9c2qAhyucJ166l75ZrCEfKMPnUCk0bbJUP0omnZReeZtmA7vDItu/ccfaqg4cH8t1d8wcBPO9t6sdCpGSupNSV1rEUTrdZwmOtZDvOZT3welwx78kWiwoWJ3wkNdIMLqqnhBMik4L8Zf9vIkolvkyW2dSoPlx0WPK7RORLCpOnLd1xGvgycCdwO3ApLq0w9vbopHaeREoVvO2vAtYA/wo82MQ+NQav+Im1EIuflAmRSsrV8oLjchBMrd20+pHtVIPFiQ41I7o1YCOX4hfnY2yZxQXa2gUir5KoKwtxbKjmcoSrx+m/9RqCwXrSBpt43tjlSP07ldIG5xLA2NHh//J/39b7ze+fv/DVScASIg3M0FzKm6IHZu2Q8QJCuyPaagvGr1Syy3C8VwLjzK402Ep/pMvftwngELAbOIATyo74f6vMClfJJ5h98B5rYwPAGE7kGcaltY3jhLdk9bUys1FaaWEK+BiuvtTVwIXAqg6+noo/5y3ATwOfwhV6b6Q/NzuGahXD2X4Ss/SrWwrR0geGECllfME5so1nNpArbmIgdsLQIgScY9+IAWOxFYhz/v9PJGCdrN4VgDXEMUTTOcI14wzcegPBUAmmnvaP5XAxZ9bAIz+taYMdPMdYrE2nu3r+13/8hzN37d/wSG93cYEv/Zq6sRCdzzTN1QsxzEaBnMokdkhSuto6UvvjrdSVtmpXEbRN3I962uRNuDpM0y18SGdxkVJF4CHgMVyUziFmUyQbYQq3Kl6tvzOEWzVvO67Y+Ok4MavsP2kSN3bjhKzv4ESss4DT/PUk4kTkf17u6CyLi57rBX4SJ2p9v859tEKYqzcNdaXS49vEjEwh0ooELJFiFiqBHdPX/awRw1OrsdNg63heWadPWCAq4ALXG3jcPVO8skS5PMG6tQzcdgPhcNGlDdqwvQXbm5pvLMe2rdi+nWZZ7LkZbD7MXH3pd64w2fCzxAttJwFLiBRQpHEBKws8gkv9sXKgCHHRNEvlVK/UeW4PTpxr5IGZpGNV67gP24AbmK0t1awYa/w1RMAPgX/z/aRdVH27O4ITyALgDOBaXE2vft/PKynro3v8599wotw5/t+1uNp9SVRbUmi9WmP/5RhH+4FX+/O4p45tG037tLh00n3AF/x+VnJU5mLHxClvEyFS24iFSClPLviXX3vNBZuH1vT0cHRxdTuP1ViP3fPRVsFOL+Ixbxcu2H5c2uBUjnDtOIPPvZFgIA+TT7t5fEeuNrjcaYMdSp2XZuKY3NHs+tgEBAv4CAPb1YuFSAExjaewhEAOuFtmXJYRu8ffg5VWhL/bf5oRAutZze4KXNh7jubEj6TOVSIq/Dvw3WW4PzFOMHsEF5F1K25lxSxOaElbtGQVF732mLfvJlza5Hpc+t4ILgJtkFkxK2Jpi9sbXF2sflwq6iFg5yK3bSZCLun/D9FcIXkhRIcgAUusSC7aeu/5dM9AnFn0NOSYeGUgylls6QQ9ZNFpg5bqdI7M2rX0P/d6goGcr3lltNpgy7dvpytk6/9+Brp7glX7pzcQxwZjnrmPAXVVIdJA1KRQMOi7e06mXFIMLm0pYOUJWH3+02gEVlyHM78ZuAgnkjQ7Scj6834Q+EcvYiw3j/vPTTghq4901weKgB3+A07oHMUJWetqPqv8tcLxgla7+0oBJ4a+HHgvTkg9GdP+vDINtPUKTjTrRQKWECsCCVgixaxfsF2Xpu1WKqXFv0PzKV4WiEs++qrO4Kh50wan84Qb1tN/2/WEgzmY2MHiIq+WQ8yReLXwja0X5y/F1fLpM6WeLXFsnp5PwBJCpIKid2iT4rf1Dm69mm8tywMtxomHPd6JXUk0K2BVWXwh9ktwYkezAmzG34vvAR/uQDHha76vv5qVFbVXwkW77au5/924mlnb/WR6My5Kq7um/1RxkU/JNq0ixglSF+JEwy8uYpspfz8aSf+L/DjQq2FRiJWBJlQitbz9Re9+ZoMODE8e7OoZ7v+X1ZTu9HOlk81y7THRyVqIp8EmrsoiBY2F0wbXMHjr9QR90y7yyrS5hqTSBjsDX2EkLs1szlZ3bLDYp7UEmRCppeAduUYFrD7cSmgTMuWSjsJVb/u13mFeSfQxW0OqEcosrkj6AHC2/37c5P3oxRXv/gidGwmTtmLujU7aZoCH/Qdgjf9sxNU7G8elHA7575doPgKvti3EuMLuN+JS+54+yTaJmNaICFX14283QogVgQQskVoe3/NXz/jdnsNlfvlVW9ZfeU1hA7tO/qLGHlOejFuqpQxx3i705YV/PWe1wep0jsy6NfTffgPBQCJeBUobbPn27ZziNXlusSXbHYyu6skOdvy1CiFOxKR3+LqoP7UoxqWvjDOb0iOWhipO5Bldgde2HieolhvYNvCCxGJWITsdGKP5lLp+4Angn+nsNK5hGhOq084B/3kAF302gEs53ODbwFZchFbk202V5qKyjG+Do8DNwN+f5PsF/xlpcKIZ4NImH9ewKET6kYAlUstX7p7/hc1jT5W3YbvXueeVOblAYWelhXgabAVMPT1jbtpgPk+4fgP9t11LOJSHiadd5FVHpg02g8SrE+/DkAmq2ayx27Hmy+qxQqSWI7j0qdUNbBvjomVWyYxLTowTsFavsOvK4tK/Gn2QGlxE2uQivrvN27DcxPn2AEeBj+OibjqZIdzksXoK95vIt40f+g84Ye9a4FKceJoIWc1SBi4AzgQePcH3Jv1nC4urmTXfcc4Gvq1hUYj0IwFLrDiKhWg1pXjo2ELRC+kLx/41YCCegThn59eZFoq+iudJG1w3zuDt1xH05To8bbDRuW8z251CGIONyszMFJ4VYzDz2KxHVhIiDczgarA0IoQkb/83+DlXVeZcUmLv9K6kIvpDuIg+2+DDOMSJsodP8r1+XPqlaeKhn0x+vsOJlo7uHAa8fTTJOZ5J4HPAV4GrcFFTq32fimg8GquME8cu5sQCVsW316CB9pikE6/Gib8V3U4h0o0ELJFa/u43Ln/G73KlkCu25NdS2L1wALi1xx5/1k9vrYF4yj5zjZMTpQ0e+x9DbCHK5QjGVtF/c7La4NPuWau0wRZv30ZsK8/NgI2pVEqnxYTzClhCiFQwAxzEFTyu13lKRIaN3lE7LHMuKZF3XFtRhLxTOB0nYjUSFZXUH5pYxHeHcSlejabTWVza7R7grhTYtd+3k6TPqnTlMyniRKwHgJfhIrKKOFGoEXvFftuzObnIfIjZxTSiBsaBEVxE4cO6jUKkGwlYIrW87LJwnidhaPoCcw6laIHphz3+J+vEq6gAcR733q2OqZlNxKvpPMHYagZuv4FwVQkmnnLdS2mD6ble2/pzM2GVoLtn1b4jWwiDZwZerFE3FiIt7KlxausdLCJcJMsaJGAtNTFOhNnGyQtFp4XTccWsG0mlCrxgsJh6bP1eVGj04Wj8rOp+ZlfA62Q2+E+z9Z1OBQ4C7wNeCtzm7VVpsI3kcQL/Gk4sYO3EiWWNLF4QMbsggQQsIVKOBCyRWp7eue8ZT8FChb7NI9XTNwwtVIh9jlbhBah42s4mepxE0DhWtN0abGyoTucIV61i4LnXE44UfdpgBqUNCoDersqZmGibMdETsoYQqeUIrohwhvojUsq4yI5zcCtuiaUjxok923D1b9KePrQeJ2A1mj6YwdW/2rWI7w7jIqgaffh3eUHiwZTYNomSLKrbLHpS+EmcMHQdja9SmLwYOBNX6H8h9vhxeEsTE9jTWVnpxEKckkjAEqnl6GTpGc+nmUq2a31/uBoTc/wLNHvsEXmceBWAzYMt1nz9ZGmD1tW9stZQzeUIVo3Qf9v1hKMlV7BdaYNt2L6dU7A2nps1UMmv7zEHtveE8ROSAIVILY/hoqc2Un8dq2QZ+vOBL8l5WnInOwbOwEXXpH0lyG24aL5Ga6llgP2LbIO9uJpBjT66Qt9nDqXEtmf6682r29TFZ32b3IoT+euNXjM4kf9kKdoFXCTfaTQWCVsFNvvtf6TbJkR6kYAlUsuf3HF8vt9EscKFG8aHb70wM0K0B+iumb/yDPHK4oqwR1N+eruY9MEk8spClC8SjK+m/9ZryYxVYXIHbRWvlnX+v5zbt/PSbNttFwbGVKvdGyYrFYySEoRIK9Pe8d/UwLbGO19rgUuAb8qcS0oSAXcJ6RawssCFOGGpERE0KYD9CItLP8zSeAH35Gl3hNasVtduzsQJzJ14roP+/J7y9uw0juKK9G/0fmXUwD5iXF23DCeOknwKV3erkXZZwaXFXooELCFSTSATiLQSm+C4Tznupn9g4sJw6Om1VLpYUC2wTrewuLpXtmBnxatFpA1iIcoVMCMjDNx6DZnRch0F25vRQpQ2mDoi6B6oYnq71j92ZJRd08PHfYQQqeJe3NOi0WLFMfBs75CmldNpLIVnmUdiKt5xHU+x7c8BzqLxNMgMLrroqUV+v5vGV+Qz/jNFOlbevB5XW6mTBKz1wAuBdwNv9e23U3kUJ641GhgRe/uPnOR7u3ErIjZyHIsTsy8A1qV4HFjnxwEhTlkUgSVSy1B8fJR31Vr6q92bKMdd7lkYzM67akrvJuKVjX3tq+QL80zRnpE2GBuiQgFGR+i7+RrCsaqreWWN0gbbto82YJfivCzYAOISA9nDl450j4c9XZVIPVeI1PIULiVqhPpTZZI0mdOAy4CvpfD6R4DX4ootfw/4N+BACs7b4OoajQPXAp9Koe27gBv9v42muGVwhbAXW1A9oPli5mmIvroAF9nWKamDpwNX4yLCRpjNEbgIuBMXDdppHMGJS+v9ONfIJCuLW3Dh4Am+s9Mf57wGz7OEe4FwI/CRFI4DAfBy3zbuwdX1U11FccohAUukltvP75udnRo4krMM9kRjRLEXlOwz9YSa/41zYEtAYE/8qD1WsB2iQgEzNkb/zdeQGY9d2mA7xatlQ+JVS67dGKhaTLly5mjXzEhfT/WwVVCbEGllArgLt3x8oYHtI1yUwU3e6difsus/Fxd9FQM34CJCnsKtMndPhzrWtYNyGRcB92PStxLZDbg6Xo0KQoFvfw/jIlgWQ5X6FyyYa/Nsh9u1F7jFn2eO5Vt9cAQnpF3C7CqTZT/OxN5f2+773Nc70I4xs7XOGknvsziRrusk35vBRXs9y7fpetunwYlYV/gx+P6UjQPPwkVfGeBynPD6JPCA/+zVY1qcCkjAEqnl+4/NBrNUIkt/Txe/+hOrNhM99czHYlL/yhpiwFYhztnZQK2FdI4kbTB2Na/MqlEGbr6acFXVpQ1apQ22bx9pxR7/cwQjg93jTx8a7D08VSFTU2tNMeBCpI6HcWlRPSyujtBcCrg6WjcC/5yi6x7CpVlF3tEPvMN5rneqrsPVVrrLO1SdRhIBNwrcCjxNelab246LHAMnKjUisoQ4AbYe4a7iBYJGjpfEvQ/6Y3dq9PHtuNTMaZZevDK4wueX+XNY4/vVjB9j5t6LLpz4fc88f+8EohZM/hYzoX7Et+VVDY7BSS2sZByYSNE4fL1vB0l7Df34cAZO5P6Rbx9P+vFOiBWJBCyRWv74k8e/aBge6Br6jVcFZxNXwBxfkf2YGJU8ZfNgS3be6cr8aYN5GF1F33OuJhyLfM0rpQ22bx9tYCkjr2rnp3FA/8j0YKE6unXHocyuvu5YnVeI9PIY8DhwdoPOU+ydzxtwBcXvTMl1X40r0pys2Wu9mDLtnagNOGHuClyE013+305zomZw6Tc3Al9Igd17gOfiFgBoNELIeqf3CVz0ymIp03gEVvIwHPXH7kSx8CzgOU1eZyN04YTfK7zwMIATf0r+3/nucbIQxEYvYny2A+1paFwENP7aFxNhuBMnxN7ArMjayDiw3Y8DaUkpfjazCw0kdo5wqa8BMOzbxuU4Ye67wH0NPqeE6GgkYIkVg43j1RTzW+nHF3C3x0sK1o33cQXstFezgoWnXsenDY7Tf/PVLm1wYgdtFa+Wz4Idso92XJpdPvsZA8Xi4GjP5EV2rOtbXRkJWEKkmAruDfd2GossMX4fWeCl1B8Vsxyc6x0jO4+DbbwDWfBP1B7gSmZX/HsAFxWwu0MeEBU/930urn7X3R1u+xfj0oQKTewj653Yb9e53aTfrqfB41aB1d6x7jQBazvwFo6PZlkKLgSejxN7MzjxrMisCGNOMskoADfX9K1OYoTGV63Ejy2Lbed3+DGml8bSaqve9jfjam59p8PHgSHgeb69zszzTLHMCltZ3AuWM/31PYxLlXyKzo2EFKIuJGCJ1PJbb3/27FPPGkqlylhodo1RtRxXvN3/6zMIsTkffRUuoHMcE68M1VyOYGwVAzdfUxN5pbTB9u0jrdgTuqtR1QY9XcUNa8cqZEMJWEKknHtx0RNbqb+Ye+JwFL3D9wbgr3BRBZ3IMC7NanQR1xp7waPkHpSc7m10Iy4S4F9Y/oisxPZ9uGLIeTpXQLwVlzpYxAlvjYosvbiIuMfr3C7n72Vvg8et4FIILwc+00F2PR14HS7yaalTB2OceGWpv2ZckgY7gKvDt58TFzxfSgZxBdyrNL5qZZHZOlonYwdOGL/Gt1HboC17cCJxyfeRTiQAfgIX5XqyNpPU+iv77TYCm3EvFR7BRZsd1iNcpJ1AJhBp5YHHdx/7fOf+Hfz0C/vOGFif7Ttugem5Kw+WIc7Hz5iuWFubZujTBvN5zKpV9N18LeFY7GtescjIqwae38dOolEBReJVa23aomuPIcwa1q/vGr/70WG+ed8w33nAfYQQqWQKl/oX+k+jg0wOlxr2Rlz9m07k+bhUq2Kd1xnjxKGSd7xG6Jx0wsRZXuWFjE0daPcbgRf5n8tNiCzduMiMbzfQTgv+HjZ6bOvbwQW+DXQCa4DXe7GlwNLXvXoAF8HZ1cQ+8r7NvoTlKzo/l9Nw0XbVJvzRGThuBn8y7gKO4iKOGhXNSjhB8BW4VR47kdtx0Wa5BsbgpA+PA+uauD9CdBSKwBKp5eNf2X3c/+9/tOu8866amRWYbK2sY1zuw3SMTd5LzDPVstZgbc1qg7dcR2bcwsTj7llnwubEjBWJ0gZP+hUTk4mr26fyXauLJQ5mQi1FKETK+Y53Ki7wTlSjTODekP8sbln3TlkSPYuLTLjWO5YRjUWaZXBRFZ24cloeJyC+Hfgg9dWHaie3eHEipDkBKbH/93H1yOrlCC7NcnMT11LGRYHcAvzTMjvQ5wOvYrae2HLxNX8uPTSW/hbjInGuxInpH13m9hriIlL7aSzVNVmtch/1pbj9CJcad42f1Tc6sSriUvRehxN8v9dBY9RNwAt8v2l0DE7GkW+w+BVIhehoJGCJFPPC4+bacfmxjcQHnIBVkzporCECopmYOP/Mx6bTOZxwdSxtcNUYA7de71cbTGpehe27lNQWbVfa4MmnDwZiS6mQ33z6uiNrYmsOBkYClhApJwb+HVeEudEVCROmcW/I34RLs/vuMl9bLy697kpcRESj6WuJgHIfnSMOzWUSGMPVQ/oC8E2WtqB3LUO4iLdr/AOm2einLpxA+q0GH9YVXJpasl5z3OB5lIFLcYLYchQfN14IuJ3ZtMHl5AlcFNb1NCZgJXXncv66QuDj1Be91EquwQn5zURYZoAHG9juDtwKjiMN2jIhSSt+FS5d+ivLaM+Em3FCNjQehWn98+lROjdFUoiGBgwhUsnY/33XsZ8PR8NBZsPvrWHyAbB9YGY1oQjrxKm8wVbsbIBW7cqE1hBbqOZyhKOj9N96PeFYFSaf8hE0YfNCxrybSrhqOcudMrjAJl09mbFtW7JDbm1xCVhCrAAeBH6Ai1IqNzkwFrwD9RpcutWXWJ4okUHglTjxqoh789+oiJLxYsGddG7xYIMTivq987oG+MQynO9aXATIGTgxtJmaV+AEp16cKPdYE/t5yp9PN40LexWcmHa7Fxn+fQntOoB723m1t0mnFJO/A3iW728zNBZZk0Sz3ehFig+x9KLLabji4t2+HzUyoerGRZLtb7B9fgNXEyzb5PUXfTt9AS7q8KMsT8RSv7fp9f7/GxXmksi2CJdC3IkrgQrR8ORCiFRy6KX/n/shNEzmOD3z2GOnk+smiaaq1TJsCeKcdYsTMo94FUOUyxGOjTNw+w1OvJp4ahHi1XIh8Wr+U7OdaffIMjhghtZ2d2+JLXdIwBJixfAl7+xsoLmImVoH6lZc3akvsXSr5GVxaUDPwaV8NVs4HH8tX6exyIqlxHgnsctf/xbgq7jIsXYLWYM4ceV6XBRegeZEw9r9PoSLJGmGHcAe3x4rTdi37IWKl3j7fgHY22b/5tnADf54Jd+mO6Vm1GM4Eet5uAiqZsRBgKtwkYSfX8L+dpm/n8M0Jl4lbaMXF5G2v8F9fA0nBl5A8wJe2bedy3Gi8rdwLynySzQOne3bxJm+zTZT/y5ZFfZub18hVgwSsERq+a+/eCcAR6arvOTqVWufd53dcHz6oCX2RdnjvJ+GBjWiFgYsxLGhOp0jHBtj4Lk3EY6UnHgFHZo2uJziVQfTyZdmDLZSyE4eOHSWtRwTUsfVjYVIO/uBL+JWE+z2TkczTnLZCxgbcRE5l3gH6iHaUwS9Bxf1cw0uFSfjnTXb5HUMALuAL6foXpa9A3y6t/+lOAHuKVof2dIHXOgFlo3+d9M1jmyz+54GPt2CNjODE/LO8UJLo4KemSMObMKla96Ni75pZXt+Fi6C8BycMNuK9twOvuYFi+00Hm2ZRGJN+3b707hUsa+w+BX9Gunbt+MiT7torO5VrR8aAT9sYhZXxYn9a3Fi2kyT9zqx5zpcKvUluJqHDzR5rQsR+DZwFXCut28BJ2qaJvvCUVzEo4q3ixWFBCyRWn73M+Vjz5q+kcrI824Lho4F+8YWG4PBEM1Y4jxYvyLhMyKvvHjVf/tNhKOJeGUWudpgI0KL0gZbTqcUbD/RHNPGlErlTaWKITDqv0KsIO7yDvmLvdPRrLMQ46JFMsDF3hF/GFew+BGaKxqfMOYd/YuAbd7ZqdCaNJNub4N/ZWkiF07mHNazTK/1zmNi+zNx0TL3+0+z9lntHeLzcZF7GZyw04pIryRlKIOLcHqiRTa8H5emtrYF9zMpRr0al/Z1GXAvLs20mZTZRBC81Lfnbm/XQgPtZalqoOVx6ao/i0sby9FczbMCTlC6HidK348rSH6gRefbhYvSvBYX1VZtQX/owUX4NRs19ihOEHwZs6mEpsm+VMSJtmf4692BKxx/L60RB/v92H4eTsgc9G222KJxwOJeIDypR7RYaUjAEqnlfX/zZgCmoj6uG3xoKxPfgNjNUy1gjSGOwE6DrcxOY2fFK0uUyxOsWePSBkfLMPGk+2K7xKtlE1AkXi3r9VtL0Av9wyOrv3bXML1dbn58obqxECuFL+EiaS6g/uXOT+bsJ2LK+cBhXGTTU94xncIV6p7xjnftcUO/7SDurX6/P8fTvBgx5r9T8du34pwD7zx9CRdVsaxPB399UH8EVWL7bm/783Ar6e31DuF+L0CcyPYDuMLsgziB8zRcqukq/51WOKu112r8Mb9Ea+tMHcVFAb7AH6MVE4oZb6PTga24CMA9OLFwn+9DE7iIxtrjJSlnw/5a1+BExvU4USzTRHsO/ae8hG30SX+/XspsNFIzVPw+1vu2dhVOyEzsupfZiDR7kn4c+DFinRdxnuXHjdDfl2bPNWlL36Y1ovxXcIHtz/H7bYUoHDH7MuFMb4frvR2fBnb6tjrp/43naa8Z31aTzzqceL3Ot98uZsXAVo3BvbgIx6/p0SxWIhKwRGp5Sf8P3NPFhgx15S8kCsBGPtLKvXixJYgKHHsPc1za4FSOcPWYE6+GZmBiB4sTr5ZDbFHa4PL6QK3YhaWnu3RGb6a8ujcTH5RdhVhRFHHRFH3eKW9V5JFldiXA0DuUq3GRUyV/nJx32As1Qkay+lS3P6c+79RkmY0yKdPaaBPrHbS7cRFAy0niOD7s7bC1AWEiWUEveQW21gsDtbbP+3tf63wmtWf6/WfAO6mmxiFu9YM58KLOvcAn22DPO3HvXDb6dtaKOOLI7yvwwsManAA8U9OuC8ym5SYFv2vt2s1slF2VxlYDrV2x8SlmUw+XqpD/N7xdn82suNQMSQRnImhe4u9dHrcS5FH/83RN+656W4Z+rBj0n3Hfrrr8vis0t+Jq7TmO4tLyvtlCW37C7/cynKhkWzwGJ/1sFS7dr1QzBiT/RsyuFJmtGXt7fbvtqhmDq7Q2StX44z3VAWOwEG1DApZIb+OtHiQMYLJA93QhOq1vwCY6AdZAHEF12rrHQ1L7KkkbnMoRjI/Tf9uNhMNFmPLiFUobbLl40zZdKQWRV8emFAZiS1Ca2rK6KzptZIiDcaw+LMQKYx9uJbB34KIfWr2CVVTjVAfe2RzFiVpmAWfGekcp+TS7WuKJGMel8nyQ5pa0b5Wg0+XPZweuNtAQjdXHsfPYPuud2NUn2S7225XaaHfjr+0p3Mpp7ah3c9gLDa+hNSlac8WM0pz71oMTtE7UFxIBoJmnaRKl1wv8o7/O81naelklf9+GcZF+rRReyjV27cVFAW6tadO1gndC6H8X1LT7VrZf60WWCk5sbWV7rQL/4vvDNmbrytHCtlqu6XcBMOLHArPIsaBC+9JUB3GRuR/GiZVCrEwNQCYQaeVTd/RRrloGenu6nn9ZcTUcxK1AaJyAVQTr14SqrXlVzeUI1q5h8LbrCVeVXOSV7dS0weUUXyRetXbaE5Ht6x6eiMfW7N+TJwyDY2skCyFWDHuBDwDv9M5Erk3HiWsceU7gPC3VQD6MS6n5G9pT6LiRATxJN3sMl1L3yhaJL/EcB3S5bG9rnNYdwPtxE6F28W1cCtV1uGgl26Z2HZ/Erq20beDFjjuB7+OiaoJlmADlgb8D3o0TmCbbZNdkhcvaz9xrrcwZY1pNFhft9QlcCl6rOeDH4LfhItum29j/og4ag/twAuwH/XggxIolkAlEWnnznw3wzvcO8GdfHB4fXZ9ZTVR14pUFW4Vo2j1+rTFevPJpg2PjDN5+g19tsJPTBpt57iltsDV+QQupWIY3BOTjnvXv/Xw3H/9Ot8wsxMrkCVw0xxFcyshSDVrzfZbiuEPAbu+Ad1J6tGX2Re3XgO/6+5FdIbZP0pkOeqd19xIc86O4qLbhZWzTrbTtIE54/aT//+V8ME95++5p87hRGw1UneczV6BtJUla43dwtb/axT7gb3EvFEZYmoi65RoHwAn1BVwE8CN6BIuVjgQskVquvuwJtp/5OBef9+iZxIfW20oIPvoqKoAt2GP1sOLYuNUGx1e5mlcjMzD5lK+VtZjIqwaeQdY2WfNqucSrpXzmLqVNl8p+C+02A6Upzl+775JbL4y44ZySOrEQK5f7cNFIh7wDtRLnWwEudWYP8JdeCOhkPomrETWAS5NK65sey6x4tQd43xLavoCLnDmIE39sSu1o/fkn4t/hDjmvx3DRQ3txwvBKGTeSNrIKuAf4pyVoN3v8GPx4zRi80t7uJunDed9uHkSIUwAJWCK1rMuOsLFrjFVB/wZKM1knbATEFYimrc/u9zWvcnmC1WsYeN7NhGMVJ16htMFUXW8a0waPm2YYKEN3lDvr0tOO9l21fUKdWIiVzZPAn/t/B1eQA5UIKEPAj4E/xaXtdDqJk/cDXIRLGkWspGbTIK4A9l+w9MJhIrJM+/NIY/sdwNUyei+udlgn8YQ/r50140baCXEi0gPA37N0Kz3uBv4EJ1wnxehXyhicRLPtBf6a5V/1VYglQwKWSC3Pu+T1vOzZb+fZZ90ySrmAtQFRUvuq4FYcjK2hOp0jGFvFwHN95NXEkyhtUCyL/SqWzRvD1d94JNPzR58JZXIhVj77gb/CiSZ9uOLUaR8okxX2vuOvLU3FgnO4iJvvMbuKXZro9uf9PZzIsVwpmz/GpWhNe2HApMiGSTH/vwF2deg5HvR964d+3MikeJKXwQlx93ibF5f4+EVclOLXmV2VNe1jcJcfB5701/a4HrXiVEJF3EVqeccvfAfiDOw/co7dnXFx7FVLNGV9KqETr8JVo/TflohXi615pdUGO+dRnfLIq9pjlC1rzugee+TAwIYvfDXSCjFCnBocxr0hvxV4IbMpH1HKriP0zt8MLh3viym9H0mtmEngBpwYV+hwgSCosf3ngM8zW2x7ufgxLnX0J3ErvuVpzwqIrbThIC5i5YO4SLJO5iBO8HmJb6fdKWintRic2J0BPuPb7XKNeaWae/4i3OqhhQ7oQ43YtN+3gW8An6IzFs0QYkmRgCVSy5c/8jD9fdnwyu3VZ4W2Smy6iXMWW/B1sPIFwvFxBm67gXCsChNPubFfaYPpud4VI175eYcBjhbH3nBV5vxnrzcPqBcLcUrxb7j0oBcDZ3lnv5ySh06Xd6CfxC1T/2jK70UJ+Lh3aF8GrK9xaDstmijrhYBdwD93mO2fBP4YeA3wbN+mZzpwktSFK3T9EC5ybCol7bQIfAS3qtxLcGl4BZwQ1MlRb6G39yROvPp2h5zXd32ffwVwgfeDZ1IwBtuaceAw8K+4KEwhTkkkYInUcvtv7WSoP9v99J+u2jzcY7AzbuXB2EJUyBOMjTFw23WEoxWtNig6w34BUKr09fVMrzvnDFlfiFOQJ3B1sZ4D3Ogd0or/dNqAbvw8MYn8+ArwZZY+Baid3Ierk/MS4EJcdEOJzoiOC73ti8A3cREsEx1owxlmV0G8EVeoe4bOiMZKIteKuFXvvkA6I1a+iytK/jzgfH9dM7RvtcBm7N3tx477cELLng47x0O4iNgrfXvd4u1Y6kB7Jr56j7/f38NFvu7Vo1ScykjAEqnlfR/8JUbD3NpePreKmZgo7+pfxcUCwapV9N18LeGqCCZ3+HKHShtszz7awIqKvKohdtOQ887sX/vid1d4zS+pH89x1jINPJcCv41qOrbepq16w5+hsYLZoT8Hs8LuS8U70/cDVwGXAePe4a/glyDpgHbThatxdA+u3tVypFyZmvOJG7iGxYwLh3CFpc/FpXme6Y87swz3wuAiLbp8W3gA+Hc6P+KtihM3HwRuAS5mtlB6ZRlsGHqn33rbfR6X8riYsa+RcSdTc+x28TSu3tHluJTC0/z5ln07XS7xJbF3tz+HHTjB7bt0bkqp9ef3I+Bq4ApcFKbpAHvWPoO7/Pk8hKvh9UP05loICVgivbz10gNQyl1tHykNl8sh0RTE+SLhmnF6b76WzFgMk0+CNWBOVjD7VEsb7OBrXqniFX46FMaMDLD9wOHuflzNEDE7CW5ErFiJAker7Bk0adOgRedBg86dWeH3dx+ultS3gWtwkRWrvYARe+cvXqIBK3FCs/54U7j0sC+z9KvctXJsqGd0fsB/rgauBTbg0qCqNfei3Q5riIsEeRQnGt6bsgnKbuAfgO/jolu2extGOCGr3TZMhEvrhZRvA3dSX62jZOyL69zGLsFYFeOicO71osvVwEacWLcUNp7bJ5MXJJUae99BZ0Yyzcc07mXCt7w9Lwc2MSvGVZbwWpJ2l2VWQH/Y2/R+TWmEmEUClkgtduc3++NC11mmVCHKhURH8gTjq+h7zjWEo1WYeto9A0wbV3tLbdrgqfwCZxmv3RioWGbyuS1vf0XXOBKwEmZwKTI/pP6iqonjvUNmPI6KdyJ3UP9bcIN78/twixyEz/t91usIJALavhV+rw7iivF+HRcFdCGwFhitcaSSiABbM4g1MpiZOQ5oyGx0XN4LEI96B3lnBzwsCjgRrZv60voS57qR1bnu8Nd/AXCpFwiGakSNas19aPQeJM5qpqZvHAGe8sd+kPQVmK7lIeAR4BwvCpyGS5ft9jarztOe623DyRiRtGFwq0zuxUUN3uP/vx5241I16x2vwprtl4JyjbBxph8ztuJWhExW1qzyzAjCZseMxN6B3/c0Li36IVw003RK22vBj793e3ue7e05xuzKsXGNPVs9Bicvm8q4lMvHvT0fobMXRhBiedwpaxWJKNLJzed/d/XvvP4P/sc15378ndPfBfpX0XfLdYSrLRzd4Z4rQZsir5Q22HpWcuRV7fGzsPdQ7+Nf+H73y978a3eokDtgjAKohKghg4vE2gqcgUsvHMOlZGVrnClb42ifaHAL5jhOgf/+DK6m0lGc0PkYrlB4TrfgGFlcatF2XOH9cVyNpx6eKWLFi7gHiaNqcXWZjgD7vaP6OHCA9K1OeTJCnCC7zYsD63DibF+NLeKah7Q9geNv5tixjIsWPOyFlB/jIgbLp2Bb3QCc7seNdb6d9jMbVbnYtmrmEVmMF1IKfszYhxNbn8SJdtEKtOcaYLO36UZvzwFma3wttt0uZFNw0ZZJ+91TY9OjSzPtlgYg0jtJEiKd9PRtCsJgAweAgXH6br2WMEkbNEobTNU1nxLilSeKWbs6M3bbdaObcOkqQghRSxUXRbIXFw0U4AoNr8dFAq3FRbP04iLlupgVtuaSpMGU/SeHq/l0mNmInwmZfEEqXhB5GvgqMIgTs1Z7BzcRCbr9Z76028g7qmUvABzwn0O4aLfiCrdh5J3zPbhUrR5vwzW+LY/X2LBrAd/E1rThGWaFv6P+3uxBtYESG38bJxpu9TYexglaQ97OyXiROcGYkdQuK+AiM5M2e8Tbu3AK2DO55rtwgtN6ZqMxkzE4EbSyzKb+zUdiz5K351G/7wlvzwMaaoVYPIrAEunlO2e+1e448sul3ZyTveY6wvEYpneCjReZNpim6KsVnjbY9nGoE67dn0NgicJuHny6790XvOSOP1dHVgSWEHWSwUWvJM5+l///zDyDXdkLJBWcMFY8RZzPpSDwgkCPd167/c9JSmZtpFWxxoHNIbHl2PDv225vjQjQz/GLPiSRVnlmV+zMc2pGWTVK1tu4u2bM6J0zZiTRnEVmFzBIxo+STPiMdttfY89szZhs53yv5G1YrRkDCnRAnTBpACLNkyAhUsn0/eVzejKD23uuOQ/WWph42k8ZlTbYnn205em5FAfphAudncoEBkoR+UO5berFmkQJ0QBVXNqJWF5iXM2faZmiqYdjHtWDbDeJ8Cda125zKN1aiGVBApZILYW+bV1dG4dCeipw+ClfWjI8yTuNU9FRlni17Pb3SSU2Mth8jJmJOHdVv8ZfIYQQQgghhFgkgUwg0sqPcv1/+Oef2vHO+77z8P3lwxZbCrEVXOB5qzOSUht9pdUGlxVjIXTNJypYyociykeiI1/53uSf/6e/fvIv1YuFEEIIIYQQYnEoAkCklt37ck/92/f2/Y0tlD+1b2/0jqsuGHzb8Obs6bZisd0QJJn9cRNChoSr1nMq1Lsy9piIGhUsYQy2YMv7Dsx84j++7/AflGcqd33zoQp/pW4shBBCCCGEEItCEVgi1YShoRzZQ+Vy/Htv+oOd1//lP+3//UohLgRFiPO4dMJkseUlReLV/Kd2CohXgcUaiEpgpyxhCe64M//Ff/zykedNzESvfXBX+a44hu6sCpcLIYQQQgghxGJRBJZINda6slfD/SFPHajs/m8f3v8rxUr0r+dv6ful2y4dfEFcodv0GsiCCahvzQ+7HCsG2pV9s1Yyxn3iqsUWIc7B47uKP9p1sPr//uJL+b/typYrt1/RT3fGoJrlQgghhBBCCFEfErDEisFaGBvKcOePi9+8/6nSt+56IveiN982/p/7eoPrB8cy2C4wXcZ9MT7Jjho/i2XathXbt+vGLMW5LeO1+wi/OIJ4OqYyHROV2PXArsIf3v1Y4QP79nGor9sQ22UIBBRCCCGEEEKIFYJSCMWKwwSGSoSdLvGvv/2hA7f85ScPv7E0FT9sZqB6JMZWaU+hd4lXKTy3ZhoakIE4huqUxUzFBCWb+/6P8v/z59974NmlSvxHUWwPrR4JmyrDJoQQQgghhBBCApZYiVjIBDA6ANWISjm2H/zjjx246W8/efB/ZyrR/uiopTJtXaBVePx2ShtM6Q1fakKwBip5t7JgZiaKvvLd3Mf+6jNHrunq5tdnKnZvd9YQhkoXFEIIIYQQQohWIAFLrHhG+kOe3Ffe98V7cv/l1/9+3033PJT/82DKzsRHLXERH41l3achljvyqlNTB+3KK9oeuPYSzUB81GKPxMxMRZ+74/788790b/4133pw5odjQ6E6nRBCCCGEEEK0wR0TYsVjLXRnA57YV/lxrhS/u1SOrnriycKXJ3ZXKB+KiEq4lLAl1R602mBqrt8LV3HVUp205PdW2b+r9GihWHmlhRceOFL9chzbyKjIlRBCCCGEEEK0zS0T4pTBAGFgyGTMfd98onj77sPlV88cjR+oHokpHI6JyrbO+ljLEbUllsx+vs6VjWBmwlI+YKlORvvzxei/PL6/cMVMJf5EGBi6uwyBMbqtQgghhBBCCNEmJGCJU45EY+jtMgz3Zv/50987cO1dDx/9xZ4Se6uHYeaodd85oZDVTOqe0gZbcwfbiJm9/1HOEh+NCafj6QefKv3Jz//VgWt6usz/7soEk0YhV0IIIYQQQgixJEjAEqc0PV2GPRPlqUPT0R9jOC+fq/xZ8WA1KuyNqBZqhKyWobTBjr/+EGwAcdFS2m85urvKE0/PfNZae2mhGv/C4/vKT2QyEq6EEEIIIYQQYimRgCVOaWILvVnozhqsMUfLM6X/UC5Xr7QV85nosLWF/RFR0UKmtrcobXB5aLP9fLpgVIbKIcvk7ogjh2buPDRZfenXH8i/KJPhMYOEKyGEEEIIIYRYDiRgCVGDCQz93Zm7frx3+sXf/PH+FwfF4HvlQxY7DXHFQmgb7DVKG2z++tt104HQYGOwBahOxuQPV5+YLkTvnJqpXB1gP93bpaFSCCGEEEIIIZYTeWVCzCETGiaLVfZNlj+b7QqufHBH7qfvvXvqqZn9EeWjFiLfcxbde5Q22JHXX7PqZDQVEx+M+PF9hSNf/e70r1WNvSgI+atMaKyCroQQQgghhBBi+ZGAJcQcrIVsCD1dkOkL+d6j+X/4h28cviJfiH5v6kB1f3F/TJTH6SoBJ1mxUGmDTd6N1u/SzN63uGAp7Isp7I8Kk5PVv/vIt6du+IvPT/6v1asyucDo9gkhhBBCCCFEp5CRCYQ4ARa6szDYy6F8md+oRpW/OXC0/F/X5Ltes2pdptdmDGEvThSJ59m4FSfQkXZJaeSVF65sEUwM0werDIR86nf+9chv9/eE944OhASKuBJCCCGEEEKIjkMRWEIsAotLLbTWPhFh3/LV+3M3fvwLR/6lcjiicsQSlZiTVijxqqOu3d+buATRkZjKoYivfGP6Wx/96tQL4sC+bM/Ryr1ThdgV81dzF0IIIYQQQoiOQwKWEIvFgjGGvm7DzkPR9/+/Tx991f6J0usmDpW/VzlcJZ62UAUC24KeZU9tQ7eKJF0wsticpXww5onHS4/f9+TMf/qtfzz8/K8/MPP57FBGZa6EEEIIIYQQosORgCVEIx3HWLoyJq5a/ultf7L71o9+/cjPP/1k+YnKRAwFi41wBcKXZcXCNpGm1QYDZ39rgaKFomHnk5X9T+wu/ta+qerVj+6r/t+eriBnOtviQgghhBBCCCFq3DwhRANYC73ZgCf2VaYLZf7fZ++cuOZ/vG/v7x58OjpgJizVHNiYYyvdLXKvnXux7T9I87vwEVc2huq0xeQskweruT//8OH/98efPnJthP3vXRlzsK/bLM0lCSGEEEIIIYRoCSriLkQTWJxm0tNlKMfs/7PPHf2v55w+8LHLzwp/9bTx7pea/qA3HAxcT5u30PvcvZ3KlmwSL8fbCpgCxFNR5eN35j5zxyMzf/hPX5/61o3n9zHQE1AoxQq5EkIIIYQQQoiUIQFLiBZggTA09HYF9PWYe3/5b/a/7qLTe29/xZVDv/isbT3P7RsOTZyxBN1mdgM7dw+deGEpiLxKVhYsg6nA9MHI7tpf+nKxHP/FF+8r/OtDO0vR6uEMYaAC7UIIIYQQQgiRVpRCKEQLiS0M9AQcmYrtRMF+8RPfzb3wxl968rW7dpTuCmKIJ2PiKm1YsbANdLp45dMFowpUJ2JMwXJgZ/nB97z/0Jv/6wcOPm+wL/hkNjSRWqUQQgghhBBCpB9FYAnRBizQk/3/2bvXGDvOs4Djzztzzq69dpLacQJqA5UQEhUqqIJECRAalYsKiIZWVauqQv1QlYKIwCJSBR9CRSOKyCdQKG0hcSENKEqbFiRKoKQQuzGW3dYJCklwHCf47r15z/rs5VxnXj7sugGJVGniy9j+/aRd7aezs7NnRjp/Pe87Ka7fUtbfOtR/+PNfW3rszdeXH739pqvumBrlG2JzGVU7R9mKtWWF+Uo9S69REZGriDSMKIcRc6fGxz71D51Pd3rVg6uD4kRExMYJzxYEAAC4XAhYcAF0e9XCV/cP/vjN15dfPjY7/I2fuemaX/2eGyauq3rjKDalSGVqRsjKcQEO4jW+flr/yhExisjDHDOHh4snF6vPP3lo5TN/s6t74KYf2hBvurYVp7vecwAAAJcTSwjhAsg5ol2myDkf3PN8/853f/zY2595cumBNIw6n8lR99azzkW/Ihsar8r1btWLiMWIvJjrPXuXH3n/PSdvfWjX8vZWGQc2bUhR195rAAAAlyMBCy6QnCParRQ3bGvF3gOrB+5+eP7DD3xl4V0HDvYfj8VxpOWIerB+VZYX6QAbeIfKxdp5GS3maPdyHD7S/7f33X389jt3zH2gbMWzZRExNZkaefgAAACcG5YQwkWyaUOqdz3be3RhZbzzq0/mD95+89Y7vv+N7bcVm1PUkxFFO62NHZ3vqaImLhs8u8n9KKJaztFbrKIV+bn7d3b/9O/2LP/V3uf74zdta8WWzaUnCwIAAFwBTGDBRdQui1gd1KvHTo/v/63PzvzE7ieXfrvbqU8XqymqM3XkOtamsc7rfuQNildp7e+tq4jBYh2j+RzDzujU/udXth+dH914bH5433y3Hl89VZi4AgAAuIIIWHAR1TlHu0xxzVQZZRH9xX71Z3d9bvbWnXu7f1n24sxgto7RUl5LQOVlfCLWw1WOiNFyjrpTR71Yr/z7090/P356eFukdG+k1Gu3UmQzVwAAAFccSwihIXKOuO6aMr75Qv/ASm/46/+8f3nHJz5w7ceqqv2eoizKlOooNp7DZYUXZITpVfyO9TBX9XIMuznqfh1zC6O/Xxnmu1+aHjy19aqN0SpTpOQ9AgAAcKUygQVNuyhTxLhO8dL08ButVn7fqdnBz+/e3d03nM8xWshRDWMt+ryeq7cJ8Wp9s/pxP8dgIUfup+gvjr9+8MTgHXPd6j1Lq/VTV08VURRh5goAAOBK/6zsFEAD5YiUIsqJIo7MjR//o4dP//TyanXn0lx1ZDw3juFijrqKBs9Q5u9811nf56rq5kgLESePjF6470sLv9Zqp3dWOe8sy7UnNtrnCgAAgLMfJYEGSxFRlmmUUv6TOz576uanXxx+IpbqpXolYrySvx2EXtVG7zlfgOmr/Mp3m/XgNj6TY/VkFZ1T1fx0Z/B7B6cHP/WP31q+f3Ii9VM6z3vWAwAAcMkRsOBSkCMm2in+e3o0szzKfzAcjX9s956lh+YPj2I4l2O8miOvb4T+yq9xkZYNnj2uHDFezrF8oorBQjV85sXep7f/xcxbo4h7huN6rrDJFQAAAK9AwIJLSVrbI2tqQ3HoDx+e++AzRwa/VPXrfXWnjt5MHdUg1qacLkoLyv//HaaIGPdyrM5WMZyvY9yrHl0aVjf3q7ijP8ozE2WKItnnCgAAgFcmYMElKEVEWaS4/g3lP338wbm3P7K7+6GpHAdjvoqqk6Ou4+WQdTGWDa4vF6xHEePTOYYzVfS79b6ZheF7R1X1K2WR/sO8FQAAAK+WgAWXqJxzTE2mODI7Gs52qwcj6rc9d3hw18mjo8XBqXGMzuS1bvVq98d67Ufy8o9nlwtWEaPFHCsnhnHyaO/44tLoI6mIW3qD+ss5p7H/HgAAAN8NAQsuhws5RcRk6u0/Un3yqWOjW5a6o/uWpseD3vQ46tVYC0tFnIeQ9b/i1fr+W6NuRH+miu70aGEwHN91eKH/471RvaMoIkp3HAAAAF7L516nAC59Oa99m2xHlCmeX+rVH+2PxrcdP9H/ytL8uI5eRB7kl0PWufmt/zeM9SPGnTrOnBwuv3R0sOPZw713VFF8crJdzBbWCwIAAPA6CFhwGWqVKVLK+/pV/a4v7TrzC1/7endvfzbHqFNHHkXk4vVe/fnb4SoPIwbzVQxnx7H7G8uPHZkZ/+SwTh9ZWq2eLouwOzsAAACvm4AFl6mUUlx7VRlPPLv62D2PdN55dLa/vTM9OtCbqyJWckQdL++P9d1MSBXr8WoUMVyoY3y6jvFKtedjn5t5745/WfzlqQ3Ff7ZbEe2WsSsAAADOjZZTAJevlNZC1kQrdTur1b29wegLK6fid77vug0f2rat9b1TW8q1u0Ar1qLUd5qWShFR58jDHClS9Ds5VjujQw88fuZTnX59/38dH65snSqjVUYMK+ceAACAc0fAgitAjhyT7SJyVU/3R9XvPrire98Pv7G1/edu3PThqza3pwZ1jolNKXKRIoq18HVWXUcUdUSucox6VUzkIg4c7p16dP/yZ25764Z7Z7vVmdluFRsnrBcEAADg/BCw4AqSUorJdhEpVYeWh3n77//1/BduecvGd//ijZtuW+2mt7TLtGlisohUroWoXEeknKK7UkUrohOpfnrnc8uPf3H38kP7Xlo9+P5bb7BUEAAAgPNOwIIrTM4RZRGx7Zqy/uYL/Sfa7fTEtVcX2/72Xzs/+pu3b/2BiVbxg8ureWvkXORI1ZarY3q6M3jh7odPv/izP7LluTdM5jM56tiyuVibtzJ0BQAAwHmWcvbpEwAAAIDm8hRCAAAAABpNwAIAAACg0QQsAAAAABpNwAIAAACg0QQsAAAAABpNwAIAAACg0QQsAAAAABpNwAIAAACg0QQsAAAAABpNwAIAAACg0QQsAAAAABpNwAIAAACg0QQsAAAAABpNwAIAAACg0QQsAAAAABpNwAIAAACg0QQsAAAAABpNwAIAAACg0QQsAAAAABpNwAIAAACg0QQsAAAAABpNwAIAAACg0QQsAAAAABpNwAIAAACg0QQsAAAAABpNwAIAAACg0QQsAAAAABpNwAIAAACg0QQsAAAAABpNwAIAAACg0QQsAAAAABpNwAIAAACg0QQsAAAAABpNwAIAAACg0QQsAAAAABpNwAIAAACg0QQsAAAAABpNwAIAAACg0f4HAAD//wMA6gwj+WLbvMUAAAAASUVORK5CYII=;" vertex="1" parent="aSS4Eyh5r4q3BVwhuA5f-17">
          <mxGeometry y="10" width="270" height="72.22" as="geometry" />
        </mxCell>
        <mxCell id="aSS4Eyh5r4q3BVwhuA5f-4" value="&lt;font style=&quot;vertical-align: inherit;&quot;&gt;&lt;font style=&quot;vertical-align: inherit; background-color: rgb(255, 255, 204);&quot;&gt;Database &amp;amp; Backend&lt;/font&gt;&lt;/font&gt;" style="text;html=1;align=center;verticalAlign=middle;whiteSpace=wrap;rounded=0;" vertex="1" parent="aSS4Eyh5r4q3BVwhuA5f-17">
          <mxGeometry x="65" width="140" height="30" as="geometry" />
        </mxCell>
        <mxCell id="aSS4Eyh5r4q3BVwhuA5f-28" value="" style="group" vertex="1" connectable="0" parent="aSS4Eyh5r4q3BVwhuA5f-29">
          <mxGeometry x="10.5" width="280" height="320" as="geometry" />
        </mxCell>
        <mxCell id="aSS4Eyh5r4q3BVwhuA5f-20" value="&lt;font style=&quot;vertical-align: inherit;&quot;&gt;&lt;font style=&quot;vertical-align: inherit; background-color: rgb(255, 255, 204);&quot;&gt;Mobile App Front-end&lt;/font&gt;&lt;/font&gt;" style="text;html=1;align=center;verticalAlign=middle;whiteSpace=wrap;rounded=0;" vertex="1" parent="aSS4Eyh5r4q3BVwhuA5f-28">
          <mxGeometry x="54.5" y="37.41" width="140" height="30" as="geometry" />
        </mxCell>
        <mxCell id="aSS4Eyh5r4q3BVwhuA5f-15" value="" style="shape=image;verticalLabelPosition=bottom;labelBackgroundColor=default;verticalAlign=top;aspect=fixed;imageAspect=0;image=data:image/png,iVBORw0KGgoAAAANSUhEUgAAClAAAAf4CAYAAABcVgckAAAABHNCSVQICAgIfAhkiAAAAAlwSFlzAAAuIwAALiMBeKU/dgAAABl0RVh0U29mdHdhcmUAd3d3Lmlua3NjYXBlLm9yZ5vuPBoAACAASURBVHic7MEBAQAAAICQ/q/uCAoAAAAAAAAAAAAAAAAAAAAAAAAAAAAAAAAAAAAAAAAAAAAAAAAAAAAAAAAAAAAAAAAAAAAAAAAAAAAAAAAAAAAAAAAAAAAAAAAAAAAAAAAAAAAAAAAAAAAAAAAAAAAAAAAAAAAAAAAAAAAAAAAAAAAAAAAAAAAAAAAAAAAAAAAAAAAAAAAAAAAAAAAAAAAAAAAAAAAAAAAAAAAAAAAAAAAAAAAAAAAAAAAAAAAAAAAAAAAAAAAAAAAAAAAAAAAAAAAAAAAAAAAAAAAAAAAAAAAAAAAAAAAAAAAAAAAAAAAAAAAAAAAAAAAAAAAAAAAAAAAAAAAAAAAAAAAAAAAAAAAAAAAAAAAAAAAAAAAAAAAAAAAAAAAAAAAAAAAAAAAAAAAAAAAAAAAAAAAAAAAAAAAAAAAAAAAAAAAAAAAAAAAAAAAAAAAAAAAAAAAAAAAAAAAAAAAAAAAAAAAAAAAAAAAAAAAAAAAAAAAAAAAAAAAAAAAAAAAAAAAAAAAAAAAAAAAAAAAAAAAAAAAAAAAAAAAAAAAAAAAAAAAAAAAAAAAAAAAAAAAAAAAAAAAAAAAAAAAAAAAAAAAAAAAAAAAAAAAAAAAAAAAAAAAAAAAAAAAAAAAAAAAAAAAAAAAAAAAAAAAAAAAAAAAAAAAAAAAAAAAAAAAAAAAAAAAAAAAAAAAAAAAAAAAAAAAAAAAAAAAAAAAAAAAAAAAAAAAAAAAAAAAAAAAAAAAAAAAAAAAAAAAAAAAAAAAAAAAAAAAAAAAAAAAAAAAAAAAAAAAAAAAAAAAAAAAAAAAAAAAAAAAAAAAAAAAAAAAAAAAAAAAAAAAAAAAAAAAAAAAAAAAAAAAAAAAAAAAAAAAAAAAAAAAAAAAAAAAAAAAAAAAAAAAAAAAAAAAAAAAAAAAAAAAAAAAAAAAAAAAAAAAAAAAAAAAAAAAAAAAAAAAAAAAAAAAAAAAAAAAAAAAAAAAAAAAAAAAAAAAAAAAAAAAAAAAAAAAAAAAAAAAAAAAAAAAAAAAAAAAAAAAAAAAAAAAAAAAAAAAAAAAAAAAAAAAAAAAAAAAAAAAAAAAAAAAAAAAAAAAAAAAAAAAAAAAAAAAAAAAAAAAAAAAAAAAAAAAAAAAAAAAAAAAAAAAAAAAAAAAAAAAAAAAAAAAAAAAAAAAAAAAAAAAAAAAAAAAAAAAAAAAAAAAAAAAAAAAAAAAAAAAAAAAAAAAAAAAAAAAAAAAAAAAAAAAAAAAAAAAAAAAAAAAAAAAAAAAAAAAAAAAAAAAAAAAAAAAAAAAAAAAAAAAAAAAAAAAAAAAAAAAAAAAAAAAAAAAAAAAAAAAAAAAAAAAAAAAAAAAAAAAAAAAAAAAAAAAAAAAAAAAAAAAAAAAAAAAAAAAAAAAAAAAAAAAAAAAAAAAAAAAAAAAAAAAAAAAAAAAAAAAAAAAAAAAAAAAAAAAAAAAAAAAAAAAAAAAAAAAAAAAAAAAAAAAAAAAAAAAAAAAAAAAAAAAAAAAAAAAAAAAAAAAAAAAAAAAAAAAAAAAAAAAAAAAAAAAAAAAAAAAAAAAAAAAAAAAAAAAAAAAAAAAAAAAAAAAAAAAAAAAAAAAAAAAAAAAAAAAAAAAAAAAAAAAAAAAAAAAAAAAAAAAAAAAAAAAAAAAAAAAAAAAAAAAAAAAAAAAAAAAAAAAAAAAAAAAAAAAAAAAAAAAAAAAAAAAAAAAAAAAAAAAAAAAAAAAAAAAAAAAAAAAAAAAAAAAAAAAAAAAAAAAAAAAAAAAAAAAAAAAAAAAAAAAAAAAAAAAAAAAAAAAAAAAAAAAAAAAAAAAAAAAAAAAAAAAAAAAAAAAAAAAAAAAAAAAAAAAAAAAAAAAAAAAAAAAAAAAAAAAAAAAAAAAAAAAAAAAAAAAAAAAAAAAAAAAAAAAAAAAAAAAAAAAAAAAAAAAAAAAAAAAAAAAAAAAAAAAAAAAAAAAAAAAAAAAAAAAAAAAAAAAAAAAAAAAAAAAAAAAAAAAAAAAAAAAAAAAAAAAAAAAAAAAAAAAAAAAAAAAAAAAAAAAAAAAAAAAAAAAAAAAAAAAAAAAAAAAAAAAAAAAAAAAAAAAAAAAAAAAAAAAAAAAAAAAAAAAAAAAAAAAAAAAAAAAAAAAAAAAAAAAAAAAAAAAAAAAAAAAAAAAAAAAAAAAAAAAAAAAAAAAAAAAAAAAAAAAAAAAAAAAAAAAAAAAAAAAAAAAAAAAAAAAAAAAAAAAAAAAAAAAAAAAAAAAAAAAAAAAAAAAAAAAAAAAAAAAAAAAAAAAAAAAAAAAAAAAAAAAAAAAAAAAAAAAAAAAAAAAAAAAAAAAAAAAAAAAAAAAAAAAAAAAAAAAAAAAAAAAAAAAAAAAAAAAAAAAAAAAAAAAAAAAAAAAAAAAAAAAAAAAAAAAAAAAAAAAAAAAAAAAAAAAAAAAAAAAAAAAAAAAAAAAAAAAAAAAAAAAAAAAAAAAAAAAAAAAAAAAAAAAAAAAAAAAAAAAAAAAAAAAAAAAAAAAAAAAAAAAAAAAAAAAAAAAAAAAAAAAAAAAAAAAAAAAAAAAAAAAAAAAAAAAAAAAAAAAAAAAAAAAAAAAAAAAAAAAAAAAAAAAAAAAAAAAAAAAAAAAAAAAAAAAAAAAAAAAAAAAAAAAAAAAAAAAAAAAAAAAAAAAAAAAAAAAAAAAAAAAAAAAAAAAAAAAAAAAAAAAAAAAAAAAAAAAAAAAAAAAAAAAAAAAAAAAAAAAAAAAAAAAAAAAAAAAAAAAAAAAAAAAAAAAAAAAAAAAAAAAAAAAAAAAAAAAAAAAAAAAAAAAAAAAAAAAAAAAAAAAAAAAAAAAAAAAAAAAAAAAAAAAAAAAAAAAAAAAAAAAAAAAAAAAAAAAAAAAAAAAAAAAAAAAAAAAAAAAAAAAAAAAAAAAAAAAAAAAAAAAAAAAAAAAAAAAAAAAAAAAAAAAAAAAAAAAAAAAAAAAAAAAAAAAAAAAAAAAAAAAAAAAAAAAAAAAAAAAAAAAAAAAAAAAAAAAAAAAAAAAAAAAAAAAAAAAAAAAAAAAAAAAAAAAAAAAAAAAAAAAAAAAAAAAAAAAAAAAAAAAAAAAAAAAAAAAAAAAAAAAAAAAAAAAAAAAAAAAAAAAAAAAAAAAAAAAAAAAAAAAAAAAAAAAAAAAAAAAAAAAAAAAAAAAAAAAAAAAAAAAAAAAAAAAAAAAAAAAAAAAAAAAAAAAAAAAAAAAAAAAAAAAAAAAAAAAAAAAAAAAAAAAAAAAAAAAAAAAAAAAAAAAAAAAAAAAAAAAAAAAAAAAAAAAAAAAAAAAAAAAAAAAAAAAAAAAAAAAAAAAAAAAAAAAAAAAAAAAAAAAAAAAAAAAAAAAAAAAAAAAAAAAAAAAAAAAAAAAAAAAAAAAAAAAAAAAAAAAAAAAAAAAAAAAAAAAAAAAAAAAAAAAAAAAAAAAAAAAAAAAAAAAAAAAAAAAAAAAAAAAAAAAAAAAAAAAAAAAAAAAAAAAAAAAAAAAAAAAAAAAAAAAAAAAAAAAAAAAAAAAAAAAAAAAAAAAAAAAAAAAAAAAAAAAAAAAAAAAAAAAAAAAAAAAAAAAAAAAAAAAAAAAAAAAAAAAAAAAAAAAAAAAAAAAAAAAAAAAAAAAAAAAAAAAAAAAAAAAAAAAAAAAAAAAAAAAAAAAAAAAAAAAAAAAAAAAAAAAAAAAAAAAAAAAAAAAAAAAAAAAAAAAAAAAAAAAAAAAAAAAAAAAAAAAAAAAAAAAAAAAAAAAAAAAAAAAAAAAAAAAAAAAAAAAAAAAAAAAAAAAAAAAAAAAAAAAAAAAAAAAAAAAAAAAAAAAAAAAAAAAAAAAAAAAAAAAAAAAAAAAAAAAAAAAAAAAAAAAAAAAAAAAAAAAAAAAAAAAAAAAAAAAAAAAAAAAAAAAAAAAAAAAAAAAAAAAAAAAAAAAAAAAAAAAAAAAAAAAAAAAAAAAAAAAAAAAAAAAAAAAAAAAAAAAAAAAAAAAAAAAAAAAAAAAAAAAAAAAAAAAAAAAAAAAAAAAAAAAAAAAAAAAAAAAAAAAAAAAAAAAAAAAAAAAAAAAAAAAAAAAAAAAAAAAAAAAAAAAAAAAAAAAAAAAAAAAAAAAAAAAAAAAAAAAAAAAAAAAAAAAAAAAAAAAAAAAAAAAAAAAAAAAAAAAAAAAAAAAAAAAAAAAAAAAAAAAAAAAAAAAAAAAAAAAAAAAAAAAAAAAAAAAAAAAAAAAAAAAAAAAAAAAAAAAAAAAAAAAAAAAAAAAAAAAAAAAAAAAAAAAAAAAAAAAAAAAAAAAAAAAAAAAAAAAAAAAAAAAAAAAAAAAAAAAAAAAAAAAAAAAAAAAAAAAAAAAAAAAAAAAAAAAAAAAAAAAAAAAAAAAAAAAAAAAAAAAAAAAAAAAAAAAAAAAAAAAAAAAAAAAAAAAAAAAAAAAAAAAAAAAAAAAAAAAAAAAAAAAAAAAAAAAAAAAAAAAAAAAAAAAAAAAAAAAAAAAAAAAAAAAAAAAAAAAAAAAAAAAAAAAAAAAAAAAAAAAAAAAAAAAAAAAAAAAAAAAAAAAAAAAAAAAAAAAAAAAAAAAAAAAAAAAAAAAAAAAAAAAAAAAAAAAAAAAAAAAAAAAAAAAAAAAAAAAAAAAAAAAAAAAAAAAAAAAAAAAAAAAAAAAAAAAAAAAAAAAAAAAAAAAAAAAAAAAAAAAAAAAAAAAAAAAAAAAAAAAAAAAAAAAAAAAAAAAAAAAAAAAAAAAAAAAAAAAAAAAAAAAAAAAAAAAAAAAAAAAAAAAAAAAAAAAAAAAAAAAAAAAAAAAAAAAAAAAAAAAAAAAAAAAAAAAAAAAAAAAAAAAAAAAAAAAAAAAAAAAAAAAAAAAAAAAAAAAAAAAAAAAAAAAAAAAAAAAAAAAAAAAAAAAAAAAAAAAAAAAAAAAAAAAAAAAAAAAAAAAAAAAAAAAAAAAAAAAAAAAAAAAAAAAAAAAAAAAAAAAAAAAAAAAAAAAAAAAAAAAAAAAAAAAAAAAAAAAAAAAAAAAAAAAAAAAAAAAAAAAAAAAAAAAAAAAAAAAAAAAAAAAAAAAAAAAAAAAAAAAAAAAAAAAAAAAAAAAAAAAAAAAAAAAAAAAAAAAAAAAAAAAAAAAAAAAAAAAAAAAAAAAAAAAAAAAAAAAAAAAAAAAAAAAAAAAAAAAAAAAAAAAAAAAAAAAAAAAAAAAAAAAAAAAAAAAAAAAAAAAAAAAAAAAAAAAAAAAAAAAAAAAAAAAAAAAAAAAAAAAAAAAAAAAAAAAAAAAAAAAAAAAAAAAAAAAAAAAAAAAAAAAAAAAAAAAAAAAAAAAAAAAAAAAAAAAAAAAAAAAAAAAAAAAAAAAAAAAAAAAAAAAAAAAAAAAAAAAAAAAAAAAAAAAAAAAAAAAAAAAAAAAAAAAAAAAAAAAAAAAAAAAAAAAAAAAAAAAAAAAAAAAAAAAAAAAAAAAAAAAAAAAAAAAAAAAAAAAAAAAAAAAAAAAAAAAAAAAAAAAAAIDZu9sgO8j6jMP3c3YTE0hARWsBzS5ZFF9qW4FadJNSOrRqmoC1xQqUTypoP1iLWG1rNWhtfa+OFQ1KmNF2qvhWskm0g2OUTVLahmqRdDQiDJBYrDJYARPI7nn6IVjUIpCwyXNermuyk51Mcs4vM5nMmeyd/wEAAAAAAAAAAAAAAAAAAAAAAAAAAAAAAAAAAAAAAAAAAAAAAAAAAAAAAAAAAAAAAAAAAAAAAAAAAAAAAAAAAAAAAAAAAAAAAAAAAAAAAAAAAAAAAAAAAAAAAAAAAAAAAAAAAAAAAAAAAAAAAAAAAAAAAAAAAAAAAAAAAAAAAAAAAAAAAAAAAAAAAAAAAAAAAAAAAAAAAAAAAAAAAAAAAAAAAAAAAAAAAAAAAAAAAAAAAAAAAAAAAAAAAAAAAAAAAAAAAAAAAAAAAAAAAAAAAAAAAAAAAAAAAAAAAAAAAAAAAAAAAAAAAAAAAAAAAAAAAAAAAAAAAAAAAAAAAAAAAAAAAAAAAAAAAAAAAAAAAAAAAAAAAAAAAAAAAAAAAAAAAAAAAAAAAAAAAAAAAAAAAAAAAAAAAAAAAAAAAAAAAAAAAAAAAAAAAAAAAAAAAAAAAAAAAAAAAAAAAAAAAAAAAAAAAAAAAAAAAAAAAAAAAAAAAAAAAAAAAAAAAAAAAAAAAAAAAAAAAAAAAAAAAAAAAAAAAAAAAAAAAAAAAAAAAAAAAAAAAAAAAAAAAAAAAAAAAAAAAAAAAAAAAAAAAAAAAAAAAAAAAAAAAAAAAAAAAAAAAAAAAAAAAAAAAAAAAAAAAAAAAAAAAAAAAAAAAAAAAAAAAAAAAAAAAAAAAAAAAAAAAAAAAAAAAAAAAAAAAAAAAAAAAAAAAAAAAAAAAAAAAAAAAAAAAAAAAAAAAAAAAAAAAAAAAAAAAAAAAAAAAAAAAAAAAAAAAAAAAAAAAAAAAAAAAAAAAAAAAAAAAAAAAAAAAAAAAAAAAAAAAAAAAAAAAAAAAAAAAAAAAAAAAAAAAAAAAAAAAAAAAAAAAAAAAAAAAAAAAAAAAAAAAAAAAAAAAAAAAAAAAAAAAAAAAAAAAAAAAAAAAAAAAAAAAAAAAAAAAAAAAAAAAAAAAAAAAAAAAAAAAAAAAAAAAAAAAAAAAAAAAAAAAAAAAAAAAAAAAAAAAAAAAAAAAAAAAAAAAAAAAAAAAAAAAAAAAAAAAAAAAAAAAAAAAAAAAAAAAAAAAAAAAAAAAAAAAAAAAAAAAAAAAAAAAAAAAAAAAAAAAAAAAAAAAAAAAAAAAAAAAAAAAAAAAAAAAAAAAAAAAAAAAAAAAAAAAAAAAAAAAAAAAAAAAAAAAAAAAAAAAAAAAAAAAAAAAAAAAAAAAAAAAAAAAAAAAAAAAAAAAAAAAAAAAAAAAAAAAAAAAAAAAAAAAAAAAAAAAAAAAAAAAAAAAAAAAAAAAAAAAAAAAAAAAAAAAAAAAAAAAAAAAAAAAAAAAAAAAAAAAAAAAAAAAAAAAAAAAAAAAAAAAAAAAAAAAAAAAAAAAAAAAAAAAAAAAAAAAAAAAAAAAAAAAAAAAAAAAAAAAAAAAAAAAAAAAAAAAAAAAAAAAAAAAAAAAAAAAAAAAAAAAAAAAAAAAAAAAAAAAAAAAAAAAAAAAAAAAAAAAAAAAAAAAAAAAAAAAAAAAAAAAAAAAAAAAAAAAAAAAAAAAAAAAAAAAAAAAAAAAAAAAAAAAAAAAAAAAAAAAAAAAAAAAAAAAAAAAAAAAAAAAAAAAAAAAAAAAAAAAAAAAAAAAAAAAAAAAAAAAAAAAAAAAAAAAAAAAAAAAAAAAAAAAAAAAAAAAAAAAAAAAAAAAAAAAAAAAAAAAAAAAAAAAAAAAAAAAAAAAAAAAAAAAAAAAAAAAAAAAAAAAAAAAAAAAAAAAAAAAAAAAAAAAAAAAAAAAAAAAAAAAAAAAAAAAAAAAAAAAAAAAAAAAAAAAAAAAAAAAAAAAAAAAAAAAAAAAAAAAAAAAAAAAAAAAAAAAAAAAAAAAAAAAAAAAAAAAAAAAAAAAAAAAAAAAAAAAAAAAAAAAAAAAAAAAAAAAAAAAAAAAAAAAAAAAAAAAAAAAAAAAAAAAAAAAAAAAAAAAAAAAAAAAAAAAAAAAAAAAAAAAAAAAAAAAAAAAAAAAAAAAAAAAAAAAAAAAAAAAAAAAAAAAAAAAAAAAAAAAAAAAAAAAAAAAAAAAAAAAAAAAAAAAAAAAAAAAAAAAAAAAAAAAAAAAAAAAAAAAAAAAAAAAAAAAAAAAAAAAAAAAAAAAAAAAAAAAAAAAAAAAAAAAAAAAAAAAAAAAAAAAAAAAAAAAAAAAAAAAAAAAAAAAAAAAAAAAAAAAAAAAAAAAAAAAAAAAAAAAAAAAAAAAAAAAAAAAAAAAAAAAAAAAAAAAAAAAAAAAAAAAAAAAAAAAAAAAAAAAAAAAAAAAAAAAAAAAAAAAAAAAAAAAAAAAAAAAAAAAAAAAAAAAAAAAAAAAAAAAAAAAAAAAAAAAAAAAAAAAAAAAAAAAAAAAAAAAAAAAAAAAAAAAAAAAAAAAAAAAAAAAAAAAAAAAAAAAAAAAAAAAAAAAAAAAAAAAAAAAAAAAAAAAAAAAAAAAAAAAAAAAAAAAAAAAAAAAAAAAAAAAAAAAAAAAAAAAAAAAAAAAAAAAAAAAAAAAAAAAAAAAAAAAAAAAAAAAAAAAAAAAAAAAAAAAAAAAAAAAAAAAAAAAAAAAAAAAAAAAAAAAAAAAAAAAAAAAAAAAAAAAAAAAAAAAAAAAAAAAAAAAAAAAAAAAAAAAAAAAAAAAAAAAAAAAAAAAAAAAAAAAAAAAAAAAAAAAAAAAAAAAAAAAAAAAAAAAAAAAAAAAAAAAAAAAAAAAAAAAAAAAAAAAAAAAAAAAAAAAAAAAAAAAAAAAAAAAAAAAAAAAAAAAAAAAAAAAAAAAAAAAAAAAAAAAAAAAAAAAAAAAAAAAAAAAAAAAAAAAAAAAAAAAAAAAAAAAAAAAAAAAAAAAAAAAAAAAAAAAAAAAAAAAAAAAAAAAAAAAAAAAAAAAAAAAAAAAAAAAAAAAAAAAAAAAAAAAAAAAAAAAAAAAAAAAAAAAAAAAAAAAAAAAAAAAAAAAAAAAAAAAAAAAAAAAAAAAAAAAAAAAAAAAAAAAAAAAAAAAAAAAAAAAAAAAAAAAAAAAAAAAAAAAAAAAAAAAAAAAAAAAAAAAAAAAAAAAAAAAAAAAAAAAAAAAAAAAAAAAAAAAAAAAAAAAAAAAAAAAAAAAAAAAAAAAAAAAAAAAAAAAAAAAAAAAAAAAAAAAAAAAAAAAAAAAAAAAAAAAAAAAAAAAAAAAAAAAAAAAAAAAAAAAAAAAAAAAAAAAAAAAAAAAAAAAAAAAAAAAAAAAAAAAAAAAAAAAAAAAAAAAAAAAAAAAAAAAAAAAAAAAAAAAAAAAAAAAAAAAAAAAAAAAAAAAAAAAAAAAAAAAAAAAAAAAAAAAAAAAAAAAAAAAAAAAAAAAAAAAAAAAAAAAAAAAAAAAAAAAAAAAAAAAAAAAAAAAAAAAAAAAAAAAAAAAAAAAAAAAAAAAAAAAAAAAAAAAAAAAAAAAAAAAAAAAAAAAAAAAAAAAAAAAAAAAAAAAAAAAAAAAAAAAAAAAAAAAAAAAAAAAAAAAAAAAAAAAAAAAAAAAAAAAAAAAAAAAAAAAAAAAAAAAAAAAAAAAAAAAAAAAAAAAAAAAAAAAAAAAAAAAAAAAAAAAAAAAAAAAAAAAAAAAAAAAAAAAAAAAAAAAAAAAAAAAAAAAAAAAAAAAAAAAAAAAAAAAAAAAAAAAAAAAAAAAAAAAAAAAAAAAAAAAAAAAAAAAAAAAAAAAAAAAAAAAAAAAAAAAAAAAAAAAAAAAAAAAAAAAAAAAAAAAAAAAAAAAAAAAAAAAAAAAAAAAOhNpXUAAAB9anr90pTuCUmOSe2MpNRuSv1uup2dubNzfVasuKd1IgAAAAAAAAD8LAaUAAA8fFs3PDPd7gVJXpTk6Af5mTNJvpbkC0n5XCa3fTlldfeQNAIAAAAAAADAw2BACQDAQ/uXzxyVvfPeneS8JJ39/vU1O1PysYyOXJJTVuyc8z4AAAAAAAAA2E8GlAAAPLirp05MJ59MsnQOHm1vUj+RMro6kyu+NQePBwAAAAAAAAAHxIASAIAHtv2K+blj4RuSvD7JvDl+9L1JLs3emTfktN/5/hw/NgAAAAAAAAA8JANKAAD+v+n1J6XUy5M88yA/03dSyqszufLjB/l5AAAAAAAAAOAnGFACAHC/bdvmZfdtF6bUNyeZf8iet+ST6ZYLsnzlHYfsOQEAAAAAAAAYagaUAADss3Xq2elmbZJnNCr4VlLPzLIztjd6fgAAAAAAAACGiAElAMCw27RpQUbvujglr0ky0rjmztScm+Wrphp3AAAAAAAAADDgDCgBAIbZ5nWnpJa1KXla65QfM5vUC7LsjMtahwAAAAAAAAAwuAwoAQCG0dYrFqYufEtqXp32VycfSE0pf5TJle9vHQIAAAAAAADAYDKgBAAYNlumnpOatUme2jrlIdSkXJhlK9/bOgQAAAAAAACAwWNACQAwLLZesTB1wZtSy0XpzauTP8ufZdmqv24dAQAAAAAAAMBgMaAEABgGV185mU5nbZKntE45MOXPs2zlX7WuAAAAAAAAAGBwGFACAAyybVOH5Z76xtTy2iSd1jmPjBElAAAAAAAAAHPHgBIAYFBtnlqWkrWpeXLrlDlT6hsyecZbW2cAAAAAAAAA0P8MKAEABs1AXZ18ADV/keWr/rJ1BgAAAAAAAAD9zYASAGCQbNnwa6ndy5Ic3zrl4CpvzLKVb2ldAQAAAAAAAED/MqAEABgE12w8IrMz70wtL8/QvMarb8qyM97cugIAAAAAAACA/jQkX1wHABhgW9c/L916aZIlrVMOuZLVmVx1cesMAAAAAAAAAPqPASUAQL/adtWRuWf3O4br6uQDKPXtmTzj9a0zAAAAAAAAAOgvw/uFdgCAfrZ53QuSsibJk1qn9AQjSgAAAAAAAAD2kwElAEA/2fTZR2f+yNtTy/mtU3pOzTuyfNXrWmcAAAAAAAAA0B8MKAEA+sXmqRVJLk1ybOuUHvbOLFv1J60jAAAAAAAAAOh9BpQAAL3O1cn9VN6VZStf27oCAAAAAAAAgN5mQAkA0Mum161MKWuSHNM6pb8YUQIAAAAAAADw4AwoAQB60fT6x6TTfZurk49Aybszueqi1hkAAAAAAAAA9CYDSgCAXjO9/qyU+oEkj2+d0vdq3pPlq17TOgMAAAAAAACA3mNACQDQK7Z85ufSnfeBlPxe65TBUv4my1Ze2LoCAAAAAAAAgN5iQAkA0Av2XZ28JMnjWqcMpvreTK66MKXU1iUAAAAAAAAA9AYDSgCAlq658gmZKZck5UWtU4bAhzK58g+NKAEAAAAAAABIDCgBANrZd3Xyg0mOap0yPMqa9F9g8QAAIABJREFUTP72K40oAQAAAAAAADCgBAA41DZt+PnM734wNS9snTKUSr00z131CiNKAAAAAAAAgOFmQAkAcCi5Otkbaj6cZde+ImV1t3UKAAAAAAAAAG0YUAIAHApXf/7odGY+mNQzW6fwfz6SyWsvMKIEAAAAAAAAGE4GlAAAB9u+q5MfSvLY1in8tHJZJredb0QJAAAAAAAAMHwMKAEADpbNVx6TdD6UZFXrFB6MESUAAAAAAADAMOq0DgAAGDi1lkyvPz/pfD3Gk32gvjRbT/pw6mqvjQEAAAAAAACGiAuUAABz6Z8/O57Z0Q8nOb11Cvup5vIsu/ZlLlECAAAAAAAADAcDSgCAuVBryeYNL0+p70qyuHUOB6iUf8iuH56XF794tnUKAAAAAAAAAAeXASUAwCP15XXHZaR8JMlvtE5hDtR8PDOLzstpp820TgEAAAAAAADg4Om0DgAA6Fu1lkyvPz8j5boYTw6Okpdk9K6PZdOm0dYpAAAAAAAAABw8LlACAByI6fVLU+pHkpzWOoWD5hPZu+gPXKIEAAAAAAAAGEwuUAIA7I8fXZ0s9boYTw6638+8u//eJUoAAAAAAACAweQCJQDAw7Vl40Qye1lqTm2dwiFU8sncu+gclygBAAAAAAAABosBJQDAQ6mrO9l88stS6nuSHN46hwZqPpWZRWcbUQIAAAAAAAAMDgNKAIAHc/U/Pj1l5PKUPLt1Co3VfCoLjz4nJ5+8t3UKAAAAAAAAAI+cASUAwAPZtGk0o3e/JqVenORRrXPoGZ/OgqPPNqIEAAAAAAAA6H8GlAAAP23zumck5fIkv9I6hV5UP5MFx7zEiBIAAAAAAACgvxlQAgD8iKuTPHwb8oOR382KFfe0DgEAAAAAAADgwBhQAgAkydYNz0x3dm1STm6dQt/YmB+MvMiIEh6Zpx577FHdkZEjW3ew/+7tdH7Y7XZ/4u/AxYsX3719+/Z7WzUBANAfxsfHHz2/231s645eseOWW25OMtu6AwAAYBgZUAIAw+3+q5NvTjK/dQ59x4gSHqGJsbF3JuWi1h0cNDXJ95Ps3vdRvp90dyfZk1LuuO/H95TkjlrrnbWU21PrdzulfK/Ojtw+05m5fdGiRbcbZQIADJalS8ZfV0re1rqjV4zsnf/4Hd/e8b3WHQAAAMNotHUAAEAzV0+dmM5dlyf5xdYp9K0VWTz7/iTntw4B6FElyWPu+8i+PWW5/9P8+Kclpe77vtYkndmMpmTPXXdnYmz8ziTfLTXfq53cllpvTi07a6m7Ukdu7na6Ow8//PBvG1oCAAAAAAD7w4ASABg+27bNy+7bLnR1kjlRcm42XXFhTnvxXa1TAAbY4iSLa8nS3Dey3PetJKWbkZrsuevuOjE2flupubVb6i2p5Zulkx2l1m+Mzszs+PquXbc3/j0AAAAAAAA9xoASABgu01O/lD3/dXlKntU6hYFxWOYf9sIkf9c6BGDIlSRH15KjS8qzU5LUpKZk7+i8TIyN357km6n5Ril1R2pnR+rMV2649dYb8xP3MAEAAAAAgGFhQAkADIf7r06+Jcm81jkMmFrPiQElQK87KslRKTmlpiSlJmXkvrcHL9el1O21m/9MOtfe27332p07d+5uHQwAAAAAABxcBpQAwOCb3vCr2XPb2pT69NYpDKzfzDVXPiGnnPmd1iEA7LfFSZ1MzWQpSdLNo0ZG750YG99eU/49pW6ppWy96aabvtE6FAAAAAAAmFsGlADA4Nq0aUHm37k6tXtRkpHWOQy00cx0zkryt61DAJgT85M8q6Q+KzUvLbVmYmz8f5L6b6WULd1uZ3Nnfmf6hhtuuKd1KAAAAAAAcOAMKAGAwbRl6jmpd61NLU9tncKQqDk7BpQAg+zIpJxea04vpZu6t7t7Ymz8X2vNF+tI+fxNN920LUm3dSQAAAAAAPDwGVACAINl6xULUxe8KTWuTnJolTwn0+uXZvnKG1unAHBILExyaik5tXTrxRNj47en5Ivpli+MdPdu2LFz567WgQAAAAAAwIMzoAQABsfW9c9Nt65NckLrFIZSSad7dpK3tg4BoImjUnNWSj1rdmS0ToyNf6XW/FMpdf23br75mrhOCQAAAAAAPceAEgDofz+6Otmtr03SaZ3DEOuWc2NACUBSkpxYSk5Myp9OjI3vSsmna7czdeMtN25KMts6EAAAAAAAMDAAAPrd5qll6S78amp5Xby2obWSp2XLhl9unQFAzzk2Na8qpXvVxNjYbRNjYx89fslxq37df2wFAAAAAICm/EM9ANCftk0dlnvqG1Pj6iS9pds9O8lXW2cA0KvK45KcV0s979ax8V1Lkys6tXvZDbfcsr11GQAAAAAADBtjAwCg/2xevzx78h+uTtKTSs5NXe3PJQAPx7El+eNaOtdPjB23bWLJceefcMIJi1tHAQAAAADAsPCFXQCgf1yz8YhMT70vqV9KcnzrHPgZjs30ictbRwDQb+pJKXXNzJ57/ntifPyKpUuWnp6ktK4CAAAAAIBBZkAJAPSHLVO/lZnZr6XkVfEahl43knNaJwDQtxak5qxSuldNjI1fv3R8/JXHHHPMYa2jAAAAAABgEBkfAAC97ZqNR2TLujWp+XySJa1z4GGp5axs3Pio1hkA9L2nl5pLFs6b/+2J8fH3PeWJTzy2dRAAAAAAAAwSA0oAoHdNb3h+ZmavTy3nx1tY0l8ekyO6z2sdAcDAODI1r5odGb1xYmzsoxNPmviF1kEAAAAAADAIDCgBgN6z7aojs2XdmpTuxiRPap0DB6Z6G28A5tr8pJyXzux1E2Pjnzt+fPzU1kEAAAAAANDPDCgBgN6yed0LsnuPq5MMgjNzzcYjWkcAMJBKkufXmi9NjB23+cnHHfdrrYMAAAAAAKAfGVACAL1h02cfnS3r1iRlY0qe2DoH5sCC7J05s3UEAIOuTna79csTY2NXTSxZclLrGgAAAAAA6CcGlAD/y969h8lZ13cf//zumc0mGyAHgUDY7NyzOyFAkIPxiCCg2HoAax+1VitYqBVtxWMA9Wk19rEtim2xnipKW/FApB4BtWIVEBEICRYkSsLOziEHSAgJkGyym925v88fCXIw552Z7z0z79d1cemVbGbeXOTaTWY/8/sB8HfbDa9WV/aJUyeB9hHENd4AgCYJZylEdxVyuevz+fyJ3jUAAAAAAAAAALQCBpQAAMDPrTfM0G3XfVFmN0g6yjsHqL9wlu74/izvCgBAxwimcHaU2LJCLr4qn8/zNQgAAAAAAAAAgD1gQAkAAHzcev05Csapk2h3WdUyf+IdAQDoOBmTLoiSZLAQx4vmz58/yTsIAAAAAAAAAIA0YkAJAACa67bvHK7brr9aQddJmu2dAzSc2Zu8EwAAnSocZKaPjmwZvncgjl/hXQMAAAAAAAAAQNpkvQMAAEAH+eEPe/VA91XqSrol3eKd01CjWd6o0soyiSmbmLpkyiZBWQuKLCirrIIFZZNJiqxbmdCjKDlECs/aw6O9ULf9cEAvflWxaf0AADzdPJl+VMjlbhgP4aJyuVz2DgIAAAAAAAAAIA0YUAIAgOZZMfUPNEknqTK5S6YZ3jlA3WQ0rINrazVtbKMO375N08Yma0pttiL1SQpKam+S9HHvTABAZzOFszOmlw7kch8pVir/IinxbgIAAAAAAAAAwBMDSgAA0ByLlvbooeSjOnbz4Tp10wr9YoYYUaJt1DRVj2bm6tGMVJn85I931x7WkaNDmlE7Ud8oHaM35+/3iwQAQJLUI4VPDeTi19eCzi+Xy3xtAgAAAAAAAAB0LK6WBAAAzTFcu0yJ9UmSZo7N06mb1kva6BsFNNho5jCVe16gXx38eil8X4srJS2ufFGLK2/QtesP8s4DAHS0F2ZMd/f3xZdKynjHAAAAAAAAAADggQElAABovEuXnCLpr5/2YzPH5um0TQ+LESU6xaaRByXFkt4u6Vol29ZpcfXbuqb8x/rhA92+cQCADjUlBF02kIt/3t/ff7R3DAAAAAAAAAAAzcaAEgAANNaipT1K7D+1qz93MKJEJ1m75RhJyVN+pEey/6MQvqPHJ63T4srV+mblHF1rnAIGAGi2U1RL7u6P43d6hwAAAAAAAAAA0EwMKAEAQGNtTf5e0tzd/jwjSnSK7bVZGqvdt5ufnSbpXJmuU1JdqWvKC/X1yoxm5gEAOluQpgbT5wdy8XfjOJ7u3QMAAAAAAAAAQDMwoAQAAI2z8M4XyeyivX4cI0p0ikdGHt+Hj+pXCJcrowe1uHK1Fg+d2PAuAACe9NqM6c58Pn+CdwgAAAAAAAAAAI3GgBIAADTGRQ90K+jLkvbtOmJGlOgE67ceL2n7Pn50t6Rzpcz/anH1Jn2j8vIGlgEA8FRHR4ndOdCXf7t3CAAAAAAAAAAAjcSAEgAANMbkTR+XdNx+/RpGlGh3Y7Xp2j5+z/7/QjtDkW7UNZVf6puVc2QW6h8HAMDTTFawLw7kclefMGvWVO8YAAAAAAAAAAAagQElAACov4W3v0Cy9x3Qr2VEiXa3buv4Af/aoBfJdJ2+Wb1T15RfXccqAAB2I5y7ZfKUXxSOKvR6lwAAAAAAAAAAUG8MKAEAQH1d9EC3QnSV9vXq7l1hRIl29si2k2UanuCjPE8h3KDFlZ/p2tJJdekCAGA3gnSSZceXDPT1LfBuAQAAAAAAAACgnhhQAgCA+ure+DFJ8yf8OIwo0a5qNlkjYwdwjfcunakkWqbFlat1bemIOj0mAAC7cqSF6JbCnPxrvEMAAAAAAAAAAKgXBpQAAKB+3n/XyQp6f90ejxEl2tVDw911fLRI0rlKopVaXL5YN1m2jo8NAMDvBGmqRfadgb743d4tAAAAAAAAAADUAwNKAABQH4uWT1ImuVpSV10flxEl2tGm0ROl8HCdH/VgKXxS61Yt1eLyc+r82AAAPCGjoE8PxPEXz5AY7QMAAAAAAAAAWhoDSgAAUB9bt3xE0vENeWxGlGg3ZlkNj/22QQ9+ohTu1Dcrl+mHD9TzpEsAAJ5kevvqXH7x/PnzJ3mnAAAAAAAAAABwoBhQAgCAibt4yUkyXbJPH2sH+ByMKNFu1m6e2cBHz8p0qR6ftFSLq40ZNgMAOp7JXjeyZfh7vb29U7xbAAAAAAAAAAA4EAwoAQDAxCy6KSvpKtX76u5dYUSJdrJ59HglWt3gZzlesru0uPy2Bj8PAKBzvbI7k/3R/MPmH+QdAgAAAAAAAADA/mJACQAAJmZ46t9K9pymPR8jSrQLk7R5W7EJzzRZCl/S4srVun5tTxOeDwDQeU4f6dnyo0KhcIh3CAAAAAAAAAAA+4MBJQAAOHCX3nmiZB9s+vMyokS7WLOlr4nPdq6Gx36hr63ubeJzAgA6RjjVxsZ+2tvbO9O7BAAAAAAAAACAfcWAEgAAHJhFN2VlukrSJJfnZ0SJdrCtlleSPNDEZzxZ2dqdunbVs5v4nACAjhGe253pujGO4+neJQAAAAAAAAAA7AsGlAAA4MAMT/mwTAtcG2aOzdNpj64XI0q0sk2ja5v8jLOVJDfrmvIpTX5eAEBHsAUZ049OmDVrqncJAAAAAAAAAAB7w4ASAADsv0tuP1YKH/bOkCTN3H4MI0q0tIe2zJOUNPlZZyqEG7W4+gdNfl4AQGd44dYpU75bKBS6vUMAAAAAAAAAANgTBpQAAGD/LLopK4u+Iik93xBnRIlWNlI7QrXkPodnnirZ9VpcOdvhuQEAbc5ML7ex8f8Qrz0BAAAAAAAAAFKMF7EBAMD+Ge65RNLzDvjXh/qlPM3M7cfotE3rxIgSrWjDtsecnnmSpG8zogQANMibCrn4s94RAAAAAAAAAADsDgNKAACw7z6w9BhJf+udsVszx47lJEq0pIe2PlvSdqdnnyTpW7qm/Gqn5wcAtDGT3lmI4495dwAAAAAAAAAAsCsMKAEAwL5ZZJFC7SpJk71T9ojrvNGKxmvTNVa7x7GgWyF8mxElAKARzPSRQi7/Nu8OAAAAAAAAAACeiQElAADYN1uXXKygU7wz9gkjSrSiddvGnQsYUQIAGsZkny/E8RneHQAAAAAAAAAAPBUDSgAAsHeX3DVPpo96Z+wXRpRoNRuGT5TZsHNFt0L4L32zcpZzBwCg/XSZ6VuFOXMGvEMAAAAAAAAAAHgCA0oAALBniyxSknxZ0hTvlP3GiBKtpGY9GnG9xvsJU2S6TtdUXuYdAgBoO8+yKHNdoVA4xDsEAAAAAAAAAACJASUAANibrXe9T0GnemccMEaUaCXrt0zyTthpigIjSgBAQxxnY+NfEa9JAQAAAAAAAABSgBerAQDA7r3/zqNl9v+8MyaMESVaxSOjJ0lhg3fGTj0Kuk7fKL/UOwQA0HZeO5DL/513BAAAAAAAAAAADCgBAMCuLbJIGdX/6m4LdX24fcaIEq3ALKsto7/xzniKHkXhekaUAID6sw8X+vLneFcAAAAAAAAAADpb1jsAAACk1JY7360QTvPOqKsdI8r7det0SZrpnQPs0kPDM1VIy03ekp4cUZ6jN8c/844B2pzJwju8I/YqaJKZTX3Gj06LIkWJhYODWY8iTZXZDClMlTRV0mGSDpXU1fRepFWwYFfNmzPnpBWrVq31jgEAAAAAAAAAdCYGlAAA4PctvDMvqfWv7t4VRpRIu8dH58u0SkFzvFOeYseI8pvls/XG+CbvGKCdFaulK70bGimO4+lRFB0earVDQwiHyazXpJws9CkoJykn6QhJTkdWo8kOG48yX5X0ckmJdwwAAAAAAAAAoPMwoAQAAE+3yCINL/kPSQd5pzQMI0qkmSno8dEhTetO04BSknpk4QZGlAAmolwuPyrpUUkrd/cxhUKh20ZtbgjJMRZ0jGTHSZon6RhJPU1KRfO8dCCX/3CxUvq4dwgAAAAAAAAAoPMwoAQAAE+3dclfSTrdO6PhGFEizdZunqNp3d4Vu7JjRHlN6dV6U/5m7xgA7WlwcHBU0n07/3maeXPmzK6F7IstslNlYYHJTgo7rghHS0s+2t/Xf/NQdegX3iUAAAAAAAAAgM4SeQcAAIAU+eDtsUz/4J3RNDtGlOslbfROAZ5m63i/Ej3gnbEbPQrRDbqmdIZ3CIDOs2LVqrWD1dJ/Fcvl9xQrpVOHKuVpQfYcC3qfTN8PfE1vUSEbQvL13t5e3tQCAAAAAAAAAGgqBpQAAGAnC6plrpR0sHdJUzGiRFpt3Pqgd8IeTGVECSAlaoOVyq+GyuUritXyawcr5cOSKJxoQe+T7H8kbfcOxD7r685krvCOAAAAAAAAAAB0FgaUAABgh4vveodkL/fOcMGIEmm0brggybwz9mDHiPLaVad7hwDAUySlUuneoXL5imKl8vLs5O5DTfZ6mf5T0nrvOOxNOHcgl3uldwUAAAAAAAAAoHMwoAQAANIHbstJ9onmPFlK92CMKJE2I7XZGk/u887Yi6lKkh8wogSQVitWrNg8VKl8u1gtn1+slI80i05T0L9KtsG7DbsT/m3evHmddSI6AAAAAAAAAMBN1jsAAAB4s6Cw5IvqtKu7d2XHiPJ+3TpdkmZ65wB6ZPRRzZriXbE3O0aU36y+Sm/s+7l3DADsQTJUHfqFpF8UCoVLbGzsVVJ4i6RzJHU5t+FJfWMj2/9R0ru8Q9DRor6+vmlRFE2LxqODQzR+iKLo4JCEgyXJIpuqJEz63UeH5GCz8OTrrJEeC0lIJCmEpCaLHldkjydJNByF2nBk9tiItKlarW5q9r8YgPbS29s7paurqy9rNr2WRAdHsukW2UGycFCxUvqcUvsuVgAAAAAA0iN4BwAAAGcLl/ylgl3ZtOc7bos0d2vTnu6AbJx0v26dfrgYUcJbNvOoTjysR9KkvX6sv2GFwIgS+20gl7tcCgu9O1LCipUyN0U0WRzHR0SJ3hqC3iEp9u6BJClJknBGaVXpVu8QtI8zpGw5jnuzUi6RZivR4ZJmBelIhXCYpCMkO8Kk6UGa2qSsMUkbJD0shYelZK2kclBUrZkqyqiayWTKg4ODo03qAZBCuVzuyIzZcUGZ40KwY02hT8H6ZJot6Vm7+3XFSjkjKWle6f7p74svDUGXeXekRtDVkka8M9IoSA8OlsuLvDsAAAAAtC9OoAQAoJO975dHKdgnvTNSh5MokRbjtenaXluqSZnneqfsg6kyu16LS3+oP83f4R0DAPuqXC4/JOkTkj5VmJN/tUX2Hkkvdc7qdFEU2ZfiOD6pXC4zJMA+i+N4ctbsWAthXpDyZpaXlJdC/yppTsbUZdr5jvKnva38yQPamvxu8y5JR+7453dlMpmiICmRLBmvDeRyJQvht8Hs/iCtSJLMvVF3dC/DSqD9FI4q9CpTe5Fkp1iw5waF40yaqRC047ODJBnnSrYj03neCWmVyM72bgAAAADQ3hhQAgDQybqiL8k03TsjlRhRIi3Wb92u3oO9K/bVIVL0Y12z6g/0pjl3escAwH6qDa4qXSfpunw+//wosQ9Jeo0kTgX1MS9KdKmkj3mHIH0WLFjQtXHjxmMjs+Nk4XjJjpPpeJn6TSHz5LaoLS7fyUihEEwFKZxjkkKUyMaSsYFcfJ8p3K1gyyyEX5ZKpV8rxafNAfh9A70DhZAZ/0ML4SUyO8U03vvkzwZ2kkDQlUPlyg+8MwAAAAC0t7Z4FREAAByAi++4QApXNf15W+EK76fiOm94y4StOvFwUwjNukqyHh6TRX/IiBL7giu8n4YrvFNmbi53bBLCB2V6ixhSetgaxrPzBtcMrvYOgauQz+ePztT0fAvJ80zh+UE6SVK3d1gKbQqy20zRz5NIt5RKpaViUAmkyuzZs3smZyefEkXJWWY6R9JxjXourvBGqzOp1DW5+8QVK1Zs9m4BAAAA0N44gRIAgE50yS9my8KnvDNaAidRwlvNerTdfqnucIp3yn6YppD8WNesYkQJoKU9UKn8VtJb5+ZylyUhfEymN3g3dZgey479g8SVlp2kt7d3Sncm8yJJZ4QQXmim5ymx6bbz3m3eDb5HM0zhbMnOjhJpIJfbEBT9OFHyw+xY940r167c4B2I/RL6+vq4MWKnKIq2lcvlEe+OAzF79uyenmz32RbsTyW9UkomG0dLAnuTREHnM54EAAAA0AwMKAEA6ETW9TlJM7wzWgYjSnh7cPMkxdO8K/bXjhHltav+QH8yZ4l3DABMxM4h5Z8U4vgMJfqEBT3fu6lzhLfk8/nPlkolvpa0qTiOJ2elF0o6I0l0Zgh6gXaeLsnAaKLCoSb7s6DwZ7Wu7bWBOP6lLFw7ruTblUrlQe867FmhUDjUxsbXe3ekRqJLJX3SO2NfLViwoOux9RtfqcjeaLLXmOwg7yagpQR9arBcvsU7AwAAAEBnYEAJAECnufjO8yS91u35W/WboIwo4WnjyEmKp2+Q7FDvlP00TUlyIyNKAO1isFy+WdILB/ry5yrYpyQd5pzUCUKU2KclnaLW/ZMknqG/t39ulE3ONguvltmLTZosSYHjJRspI9Npkp2WVfh0f1/8iyjYN7ebXVOtVjd5xwHtIpfLHZmxcN6jDz/y14o0Z8eP8skN2E+/qUkf9Y4AAAAA0Dki7wAAANBE7116pKR/8c5oWTtGlOslbfROQYcxy2rL9t96ZxygJ0aUnNYGoF1YsVq6esySeQq6Uoz6muGF/XH8p94RmJBMf1//qYU4vmwgl18aMslKM/2zZC/TzvEkmioKQS8xhc91hejBgTi+ttCXP0dSxjsMaFGhv6//rIE4vjYrVUPQZQpPjCcB7KcxS6K3lsvlEe8QAAAAAJ2DASUAAJ2kq/Y5cXrixDCihJeHtkz3TpiAaUqSH2tx9XneIQBQL9VqdVOxXL4wBL3UpJJ3T7sLpsviOGZo10IKhUJ3IY7/aCAXf2MgFz8SQnKrmS6VbIF3G56mW6Y3WLDr+nPxAwO5/MI4jlv5z51AM0WFvvw5A7l4aQjJT2R6gxS49QuYgCBbNLRqaKl3BwAAAIDOwoASAIBOccmSP5P0x94ZbYERJTw8Pnq8TKu9MyZgumQ3MqIE0G4Gy+WbuyZ3n7jzNEo0Tl/Gwtu8I7BXmf6+/lMH4viLNja+zkzfk/QmSdO8w7B3QcpLdnnG9OBALnd1oa/vOO8mIKWiQl/+DQO5+D4Ldp2k53gHAW3i9sFK5RPeEQAAAAA6DwNKAAA6wYfuPkxmXN1dT4wo0WymoMdHi94ZE8SIEkBbWrFixeZiuXyhyV4v6RHvnvZlH+7t7Z3iXYHfEwpxfHp/Lv/lQi5eH0Jyq0xvF6PJVjZZCudaiH5dyOW/lc/nT/QOAlIiKvTlzx3IxSst2LWSjvUOAtrIVstEfy6p5h0CAAAAoPMwoAQAoBOMj39B0mHeGW2HESWabe3mOd4JdbBjRHlN9bneIQBQb0OVyreVzZysoLu8W9rUkZMzmQu8I7BDLpc7sr8vvnQgl1tpppuD7C9MmundhbqKTPa6KLFfFXK56/vn9PMmGHSs/r7+swZy8VILdrWkAe8eoN0E2cVDQ0MrvTsAAAAAdCYGlAAAtLuLl7xRstd5Z7QtRpRopq3j/UqSB7wz6mC6gv2EESWAdlQsFleFbPY0U7jKu6UdmYVLC4VCt3dHB8v09/WfNRDH12YVKiHoMikUvKPQcMEUzg5RsqSQy10/0DvAf3N0jEJf33EDcXxtCMlPJJ3s3QO0J/ufwUrlC94VAAAAADoXA0oAANrZB5YeKtm/emc8jQXvgvpjRIlmenR0rXdCnUxXsBt1bWWBdwgA1Nvg4ODoUKX0tiB7l6Qx7562EjQnGR8/3zuj08RxfEQhjj82kItXh5D8RKY3SOry7kLzmcLZytSWF/rif+nt7eXEUbStQqFw2EAu9yUL0a93fs4D0BiPWSbzF5LMOwQAAABA52JACQBAO4tqn5d0uHdGR2BEiWZ5cMtctc83FmYo0U+2h9JWAAAgAElEQVQYUQJoV4OVyucke4Wkx71b2klI9OH58+dP8u7oBP1z+p/bn8t9NWOqmOkjko7wbkIqTLKg93ZnsoOFXO6vxGvMaC/RQF/+PBsb+40U3iZ+fwMNZbK/Hhoaqnp3AAAAAOhs/OUfAIB2tfCOP5I4JaGpGFGiGUZqs1VLfu2dUUeMKAG0tWKl8jNLopdJeti7pW0EzRndsvU874w2FhX68ucM5HI/CVFyV1B4iyQGq9iVGabwuYFcvDSfzz/fOwaYqEIcnz6Qi3+lYF+RwqHePUAH+N5QpfJ17wgAAAAAYEAJAEA7+tCdz1IIX/TO6EiMKNEMG0Yf806osxlK7Ee6dtWzvUMAoBGGVg0tzVjyQskGvVvahcneKyl4d7STQqHQ3R/H7xzIxUULdp0UzvJuQss4OUrslwNxfMXs2bN7vGOA/RXH8fSBOP6imW6SdIJ3D9Ah1iubudA7AgAAAAAkBpQAALSncX1G0izvjI7FiBKN9tCW4yWNeWfUVzhMSe2njCgBtKuV1epQGO86U1LRu6VNzB/I5c7wjmgHJ8yaNbW/L36PjY0NBtPnJcXeTWhJGZneM7lr0n1z8/mXeMcA+6rQlz8nY7pPpreLYT7QNGbRXxSLxfXeHQAAAAAgMaAEAKD9LFxyjqQ3eWd0PEaUaKTx2gyNJf/rnVF/jCgBtLfBNYOrlc2caVLJu6U9hIu8C1rZ/MPmH9TfF79nePKUB0LQFVLo9W5C6wtSPknspoE4/nShUOj27gF2p7+/v28gF/9gx4m7Osq7B+gs9qWh6tAN3hUAAAAA8AQGlAAAtJP3/mq6gn3BOwM7MaJEI63bMu6d0Bg7R5SLq8d7lwBAIxSLxVUWhTMlVbxb2sBr5uVyee+IVjN79uye/jj+4EjPcHXHcFJHejeh7UQyvdvGxm8f6B0oeMcAz1Toy78h1JL/lfQq7xag05hUyk6e/AHvDgAAAAB4KgaUAAC0k67Rz4iTE9KFESUa5eGRE2U27J3RGOEwBWNECaBtlUqlShKFP5T0iHdLi8uMS+/0jmgVZ0jZgb7826d0TXogmP5R0gzvJrS9k5Wp3T0Qx3/qHQJIUhzH0wu5+OsW7FrxORDwkERB569YsWKzdwgAAAAAPBUDSgAA2sXCO18thbd4Z+xV8A5wwIgSjZAkPRodv9c7o2FMhzOiBNDOSqXSiiQJfyxp1LultYW3nTBr1lTvipQLhb78n6zqi3+jYF+UNNs7CB3lYJmuGcjlPjN//vxJ3jHoXIV8/g8ypvtMerN3C9C57J8Gy+VbvCsAAAAA4JkYUAIA0A4uXTpNQf/mnYE9YESJRnhoa5d3QkM9MaL8RmW+dwoANEJpVelWk10gybxbWtiMrZMnc7rdbhTi+IyBXP4uC/ZNBc317kEnC+8a2TL83729vTO9S9BZzpCyhTheZIn9SNzYAXj6TS2Ej3hHAAAAAMCuMKAEAKAd1GqfltTrnYG9YESJetu47STJ2vv3k+lwZfQzRpQA2tVQpfINKXzUu6OVWQhv9W5Im6N7e48ayOWuNtPPJFvg3QPsdGZ3JrskjuNjvEPQGQpHFXpX5fI3m+mj4nshgCMbtyR6a7lcHvEuAQAAAIBd4UUDAABa3SV3vFxB53lnYB8xokQ9mbLaMr7cO6PhGFECaHPFSunjkr7r3dGyTKce3dfX752RBnEcTx7I5f+2lsmulMK5koJ3E/AMA1nTbfk5+dO8Q9De+vv6XmbZ8aWSvdi7BYAWDa0aWuodAQAAAAC7w4ASAIBWdtEdh8jCVeIbo62FESXq6cEt070TmsJ0uCL9VNdWjvNOAYAGsFrQBZKGvENaVKiFzJu9I7wV+vLnZEzLJfs7ST3ePcDumDQziuy/8335l3u3oC2FQhwvCiH6iaRZ3jEAwrLphx76Se8KAAAAANgTBpQAALSyKeGfJc3xzsABYESJetk8erxMq70zmmSWEv2MESWAdlQulx9NovB/JG3zbmlJZuepQ99UFMdxPJCLf2TBrpPESZxoFT1RsO8PxPErvEPQPuI4ntyfy12988rujvyaAKTM1iTSny1btmzMOwQAAAAA9oQBJQAAreqSJS+T6QLvDEwAI0rUgylo82jRO6OJGFECaFulUukemT7o3dGSguYW4vgF3hlNlumP4/dGpvskMUJDK5oi0/f6+/rP9g5B68vlckdmpJ8Hhbd4twB4Qri0VCqt8K4AAAAAgL1hQAkAQCu66I5DZPbv4kSF1seIEvWwZrjTTqLdMaJcXD7WOwQA6q1YLX/GTDd6d7SixDpnNDMwZ+D4/lx8WzD9S5CmevcAE9AdQvJf/X39p3qHoHXNjeOTsgp3yfQ87xYATwg/LVZKn/OuAAAAAIB9wYASAIBWNDm6XFKfd8YBMe+AFGJEiYnaur1fZoPeGU02SwqMKAG0I0siXShps3dIqwlK3rhgwYIu745GWrBgQVd/X3ypotqyIHXaiZtoX5NDSG7I5/MneIeg9czN51+SmG6WdJR3C4Dfecwy4QLxKiAAAACAFsGAEgCAVrPwzpdK9pfeGagzRpSYqE0ja7wTHBzBiBJAOyqXy2VZWOjd0XrCoZse3nS6d0WjDPT1LXh0wyP3hKDLJE3y7gHqbFqU2PVH9/YygsM+68/lXp0k9t+Spnm3AHhSsPCuoaGhqncHAAAAAOwrBpQAALSShfdMVdCV4uru9sSIEhOxdvNcdebpDkcohBt17aqCdwgA1FOxWvqSpFu8O1pNCLXXeDc0QNTfF79HIfqlJN40gHbWV8tmv1soFLq9Q5B+/bncm4PCdyVN8W4B8DTfG6yWvuYdAQAAAAD7gwElAAAtZdsnJQ14V6CBGFHiQI0mszWe3Oed4cLUK0tuYkQJoM2Yksy7JBv3Dmkt4Y/URm82iuM47u+LbwpBV4hTJ9EJTM+z7eNXeGcg3frj+Pyg8FVJXd4tAJ7mYWUzF3pHAAAAAMD+YkAJAECrWHj7GQrhnd4ZaAJGlDhQj2x71DvBzRMjysVVRuYA2kZxVfE+Sf/m3dFi+vL5/AneEfUw0Jc/L2O6NwS9xLsFaKqgd/TH8fneGUin/lzudcHsSvG9DSB1TPaOYrG43rsDAAAAAPYXLzIAANAKFi3tkaIvqY1O08FeMKLEgXho6/GSxrwz3Jh6JWNECaCtjJl9RNLD3h2tJErU8td498fxOxXsK5IO9m4BPATTZwt9fcd5dyBdCnH8R0HhGilkvVsAPJN9eahS+Y53BQAAAAAcCAaUAAC0guHaZQriatpOw4gS+2u8NkPba/d4Zzibw4gSQDupVqubZPq4d0dLCXaOd8JEHbRt29UyPeDdATjqsRB9bcGCBVzRjCe81EzfFNd2A2lUDl1dH/COAAAAAIADxYASAIC0u3TJKZL+2jsDThhRYn9t2LrdOyEFdowov17p9w4BgHqYfPDUfzOp5N3RMkzPLRxV6PXOmIh7160bDsHeKqnm3QI4OvnRDRsu8Y5ASgT9oaRu7wwAvycJQecPDg4+7h0CAAAAAAeKASUAAGm2aGmPEvtP8TW7szGixP5Yt+0kmQ17Z6TAHGUCI0oAbWH58uXbI4V/8O5oIUHZ2iu8IyZqsFK5PZgu9+4AfIWP5PP5E7wrAAC7Y/88WC7f7F0BAAAAABPBGAMAgDQbrn1c0lzvDKQAI0rsqyTp0UjHX+O9k/UxogTQLgYrpf+QtMK7o1UkSk73bqiH7oOnfjRIfF1HJ5sUErtSUvAOAQD8nt+O1mof8Y4AAAAAgIliQAkAQFpdcscLJb3bOwMpwogS+2rd1i7vhPSwPmX0Uy0y/u4DoNXVLOgT3hGtIiic6d1QD8uXL98uS94sacS7BfASpBcMxPF53h0AgKeycUuit65evXqbdwkAAAAATBTfRAQAII0ueqBbFq6SlPFOQcowosS+2Lj1ZMn4PfKkWKfzdx8ArS/KZr8h6UHvjhZx1EDvQME7oh4Gq9XfyPRR7w7AlekThULhEO8MAMATor8bWjV0l3cFAAAAANQD30QEACCNJm/6uKTjvDOQUowosTemrLaML/fOAADU1+Dg4GiQfda7o1WETHKGd0O9FKvlT0m6xbsDcDRL28c/5B0BAJCksGz6oTMv864AAAAAgHphQAkAQNosvP0Fkr3POwMpx4gSe/Pg8HTvBABA/W03+4JkW7w7WkGi5HTvhjpKsrLzJW32DgG8WNB7j+7tPcq7AwA63Eiw2luXLVs25h0CAAAAAPXCgBIAgDS56IFuhYiru7FvGFFiTzaPHC/Tau8MAEB9VavVTbLwNe+OVhCkM7wb6mlFpVIKCu/37gAcTa5lsxd7RwBAR7NwyWC1yo0XAAAAANoKA0oAANJk8iOLJM33zmgo8w5oM4wosTumoM2jRe+M1HiYzz4A2knyZe+C1hB6B3oHCt4V9TRYKX1Z0ne8OwA3pgvnzZkz2zsDADpT+GmxWvqsdwUAAAAA1BsDSgAA0uL9d50shQ94Z6AFMaLE7qzdPMc7AQBQf8VqdZmkX3l3tIRs7cXeCfUWurLvkLTOuwNwMnksyiz0jgCADvSYZcIF4q3RAAAAANoQA0oAANJg0fJJythXJHV5p6BFMaLErgyP98ts0DsDANAI4d+9C1rEc7wD6m1wcPBhk/21dwfgJUgX9vX1zfDuAIBOEixcNDQ0VPXuAAAAAIBGYEAJAEAabN3yEcme7Z2BFseIEruycWSNdwIAoP7GrPZ1SSPeHalnYYF3QiMMVSrfluyr3h2Ak56uEC7wjgCAjmH6/mC1xJ87AAAAALQtBpQAAHi7eMlJMl3inYE2wYgSz7Rm81xxxRYAtJ1qtbpJ0o+8O9LPTpaU8a5oBMtkLpLESVDoUOGd4rVtAGiGh5NMuNA7AgAAAAAaiReZAADwtOimrKSrxNXdqCdGlHiqsWS2xm25d4a73zAiBdB+TPYt74YW0FPo65vnHdEIQ0NDj0l2vqTEuwVwMNCfy73SOwIA2p3J3lEqldZ5dwAAAABAIzGgBADA09aev5HsOd4ZaEOMKPFUG7by+wAA2lDX5MnXi2u890GmLa/xlqRipfIzBX3GuwPwEEnv8G4AgHZmClcNVSrf8e4AAAAAgEZjQAkAgJeFd5wg04e8M9DGGFHiCeuHj5c05p0BAKivFStWbFbQjd4d6dfeb1iqSR+U7D7vDqDZTHrFwMDA4d4dANCmylFX5v3eEQAAAADQDAwoAQDwsOimrKLw75Imeac0XfAO6DCMKCFJY8lMjdk93hkAgIbgVKC9sEhtewKlJJXL5ZEgvVW8WQIdJ2StVnuddwUAtKFEsgsGBwcf9w4BAAAAgGZgQAkAgIctUz8ka+9v5CJFGFFCktZv3u6dAACov5r0Y0nm3ZFqphO8ExptsFK520x/793RpjY9+Y9t8Y7B0wWzN3s3AEC7MYUripXKTd4dAAAAANAsWe8AAAA6ziW3HyuzD3tnoMPsGFHer1unS9JM7xw4WD9yoo46eKsUerxTXHxUpkXeEQBQf+Vy+aFCLr7XpBO9W1JsWj6fn1UqldZ5hzRSX7X896vi+NUyPc+7JeXWm1QKQRWZVWVR1UKyJgrhkWQ82tgVxh4ZzWQ2lsvlkT09SF9f34zJSdIz1tV1VKamWRbZ7CDNNulYmY6XbK4UeO214cKL8/l8rlQqVbxLAGBi7P+ZhWHvihBCkgT7jHcHAAAAADQTL+IBANBMi27Kajj6iqTJ3inoQIwoO1uSTNXI+O2a3PUi7xQAQH1Z0I9lDCj3aFxHS2rrAeXN0ngsnZeR7pY0xTknDbZKdrcpukfB7suE8JvM9u3L71+z5pF6PHi1Wn3iZMo1u/r5QqHQrbGx+UkILwimsySdKWlGPZ4bTxNCzV4r6dPeIQAwEZmx7n9duXblBu8OAAAAAOhEDCgBAGim4Z5LJE6EgSNGlJ3toa1ZxdO8KwAAdWZJcmMI0SXeHWmWiZKjJd3q3dFo5XL5/oG+/KUK9q/eLQ5WmsKtwXRnktGSXKm0/GZp3CtmcHBwVDvGrHdL+oKkTD6fX5Cp2R9b0LmSjvJqa0OvEgNKAAAAAAAAHCAGlAAANMsHlh4j1f7WOwNgRNnBNm47SfG0jeK/OwC0lWjSpF/Y2PiopG7vlrSyEI72bmiWYrX02YFc7jVSOMu7pcEqQfqZLNwUJWM/W7l69dNOgix5Ve1erVQqLZG0RNLfFOL4LDP9uWSv56rviQlBp58wa9bUe9etc7/6FgAAAAAAAK0n8g4AAKAjLLJI0fiXxdXdSIsdI8r1kjZ6p6CJTF3aMrbcOwMAUF87T7pb5t2Raqa53glNZJla7c9D+/05ryaFZSHoY7LkucVKOT9YKV8wWC199ZnjyRZQGyyXf1yslN9UC2Gugq6UzO20zDbQvXVSz8u8IwAAAAAAANCaGFACANAMw0sWSuHF3hnA0zCi7EwPDXOHNwC0Jfuld0G6WScNKLVy9eo1svAe74462B5kN8jCW7vGx2YVK6XnDpbLi4rV6jJJ5h1XD+VyuVwsly9ULXtskN3g3dOqLNirvBsAAAAAAADQmhhQAgDQaJfcNU/SIu8MYJcYUXaex0eeLdNq74ymC6EtRhYAsDsm3e7dkG5hrqSMd0UzDVZLXzPZt7w7DsCYpB8p6Pxa0KzBSuWcYrV09f1r1jziHdZIxdXFwcFK5RyTvUVSW/+7NkTQS7wTAAAAAAAA0JoYUAIA0EiLLFKSfFnSFO8UYLcYUXYWU9Djo0XvDABAfSUhcALlnnXn8/le74hmy451v1PSQ94d+8Kk/7Wg9ymb6S1Wyq8qlsv/WS6XH/XuarahSuXrSRTmS+Gn3i0t5pijZx99qHcEAAAAAAAAWg8DSgAAGmnrXe9T0KneGcBeMaLsLA8OH+mdAACor3K5/JBMq7w70iyq1TpuQLly7coNJnubUnvdtW0IpiuSKJw0VCmfPFQuX1EsFtd7V3krlUrrph8685UKutK7pYWE2qTt/N0bAAAAAAAA+y3rHQAAQNv64F39qiUf884A9tmOEeX9unW6JM30zkEDDW8/WjUbVCYUvFMAAPUTgt1jCnO8O9IqKDPbu8HDUKXyg4E4/pJMb/dueYo7ZOELtUjXlivlEe+YNFq2bNmYpAsHcvkHJPukpODdlHpmL5b0Pe8MYD+MSVojaW2QbTRpk0LYGKQRszBuZpsn+PgpHc8DAAAAAJAuDCgBAGiERRZp65L/kDTVOwXYL4woO8dj29doZjcDSgBoI4mFX4egs7070iqJ7CjvBi+Th6d+YKRn+GWSBhwzRkzh65GSzw9WKnc7drSUYqX0qUIuN8kU/t67Jf3Ci70LgN3YLOluU7gvBPt1FMJvw9hYceXq1Q9KSrzjAAAAAADodAwoAQBohOE7L5LCS7wzgAPCiLIzrH5srmYebuI0IwBoH5F+zVlTuxfMOvIESkla/vDyLQO53HlS+LmkTJOf/nEF/WdmfPyTK1evXtPk524Lg5XKPwzkcjOksNC7Jc1MOkFSJAZp8LdJQT8JZrfUoui2Uql0n6SadxQAAAAAANi1yDsAAIC2s/DOvCx83DsDmJAdI8r1kjZ6p6BBxpLZGtdy74wmYU4EoCNESXKvd0OaBYWOPYFSkoqVyi9D0Kea+JQVWXj31JFts4vl8nsYT05MsVK5RKbve3ekWZCm5vP5ud4d6FhVyS5PkvCSOZXy4cVy+Y2DlcrnS6XSPWI8CQAAAABAqnECJQAA9bTIIg0v+Q9JB3mnpBYzptbBSZTt75HhjZo11bsCAFAnvdXqilW53LgUeL1nF0zq2BMon9A9depHRrcMv8KkExv2JKZVJv1TEumL5UpppGHP03ksMz7pbbWu7c+XdKR3TFpFZidJWuHdgc5g0nCQXZMk0dWlVaXbtPP005JzFwAAAAAA2D+cQAkAQD1tWfJeSad7ZwB1w0mU7e2h4fmSxr0zAAD1cbM0LoWqd0dqmTr6BEpJWr58+fZaFM6TNFr/R7fVFvRXkw+eWhiqlj9dLpcZT9bZyrUrN4Qo/Ll4W9puWdLAcTCwk0klyRaOWzKnWKn8ZWlV6VZxdTwAAAAAAC2LASUAAPXygSUvUdAnvDOAumNE2b7Gk2dpfPwe7wwAQP2EoKJ3Q2oFBpSSVCqV7pXpI3V8yMdC0IdHa7Wjh8rlLyxfvnx7HR8bzzBYKt0o01e8O9IqhHCCdwPaWlkWLuyrlI8uVir/VK1WN3kHAQAAAACAiWNACQBAPbzh2owifVYS1yWiPTGibF/rtjbgBCoAgBdLGFDuQc8Js2ZN9Y5Ig2K1/ClJt0zwYcYUdGUShXmD5fI/rl69els92rB3mWT8byRt9e5IJ5vrXYC29LAsvH1OpTy3WC1deTOn+AMAAAAA0FYYUAIAUA+5+HWSPds7A2goRpTtaf3IiZK1+zfgueYSQCcpeQek2eikSdO8G1IiycrOl7T5AH/9LcGSk4vl8oWlUmldPcOwdytXr16joM96d6RULCnjHYF2YePBdEUt6OhitfSlmxlOAgAAAADQlhhQAgBQD8H+wjsBaApGlO0nSaZqNOEabwBoE0FhyLshzZIoYkC504pKpSQLH9jPX7bWgt5crJTPGKxWlzckDPtkLEkuM2nYuyOFJsVxPMc7Am3hN5ZkThmslt9XLpcf9Y4BAAAAAACNw4ASAICJuuiBbkkv8c4AmoYRZft5cEvWOwEAUB+m2oPeDWlmITCgfIpitfQlKfxgHz7UTOFzoSt77FC5fE3Dw7BX1Wp1kxQWe3ekUZQkA94NaGkmhX+qBS0YWjV0l3cMAAAAAABoPAaUAABM1KRNJ0ia7J0BNBUjyvaycdtJ4r8lALSFYPaQd0OamTTduyFtasHeJtmGPXxIMQSdOVQpvWtwcPDxpoVh75Lwb94JaRSUYUCJA7U5WPiTYqW0sFwuj3jHAAAAAACA5mBACQDARAXlvRMAF4wo24epS8Njv/HOAABMXM/27Qwo94wTKJ+hXC4/ZNI7dvFTJtlnpo5sO3GwXL6l6WHYq6FVQ0ulsMy7I3VC0uudgJa0wjLRcwerpW95hwAAAAAAgOZiQAkAwEQFPcs7AXDzxIgy6BHvFEzQui0Heyc0kHkHAECz3Ltu3bCkzd4dqZVwhfeuDFUq3zbZ157yQw+b7JxipfLunb+nkFIh2Le9G1LoCO8AtBaT7gxd2dOGhoZWercAAAAAAIDmY0AJAMCEJXw9RWebuf0YnbbpYUaULe7R0RMkrfHOAADUg63zLkgv4wrv3clk3iWpKummbFI7aahS+YF3EvauFsIPvRvSxkJgQIl9FmQ3bK+Nnzk4OPiwdwsAAAAAAPDB4AMAgAmLOJEFmDHGiLLVmYIe3z7onQEAmDhT4Ovx7oRwiHdCWg0NDT2WseTMYqV81opVq9Z692DflEqleyVb7d2RJoETKLGPzHSjurpev3r16m3eLQAAAAAAwA8DSgAAJioJnPCzP7hIt30xomx9azcf6Z0AAJi4IOMK790waYp3Q5qtrFaHJCXeHdgvZop+7B2RKgkDSuxdCPpJEumPBgcHR71bAAAAAACALwaUAABMVBRWeie0lOAdgIZiRNnahseOlolTKAGg5YXHvQvSKijp8m4A6i2Ylng3pErQ4d4JSDu7L4miN5TL5RHvEgAAAAAA4I8BJQAAE3X5giFJnPKzrziBsv0xomxtm7at8U5oAD7zAOgsJgaUu2OBASXajln4lXdDynTHcTzZOwKp9aCy2VcNDQ095h0CAAAAAADSgQElAAATFkymX3pXAKnCiLJ1rdlSEINDAGhtEQPK3QlBk7wbgHpLMsmvJY15d6RJJpM5xLsBqTRqSfSaYrG4yjsEAAAAAACkBwNKAADqIdj/eCcAqcOIsjVtrx2lcVvunQEAmAALnI6+GybjBEq0nR3XENsK745UGRUDSvw+CxcPrRpa6p0BAAAAAADShQElAAB1kf2uOLEN+H2MKFvTxq2bvBMAAAfOzDiJbre4whvtyUIoeTekSciMM6DEM32vWC191jsCAAAAAACkDwNKAADq4fLnFiXd4Z0BpBIjytbz4PBxksa9MwAAByYKDCh3JzCgRJsKidZ4N6RKCAwo8VSPKJu5ULzxFQAAAAAA7AIDSgAA6iZc6V0ApBYjytYynjxLY+P3eGfUEd8oBdBRTBEDyt2wwBXeaFMhMKB8isSsx7sBKWLh/cVicb13BgAAAAAASCcGlAAA1MvIjGskPeSdAaQWI8rWsn7bqHcCAODAhGCcIrw7JgaUaE/BVnsnpEmURFnvBqTGzcVq6aveEQAAAAAAIL0YUAIAUC+fmTuqoH/2zgBSjRFl63h4+CRJW70zAAD7zyxwAiXQYSyJNng3pEkSJYylIUnbVMv8pTiRHgAAAAAA7AEDSgAA6qln62ckcfIHsCeMKFtDTT0arbXTNd4A0DEsWM27Ia0siNM50abGt3kXpEkIgRMoITN9rLi6OOjdAQAAAAAA0o0BJQAA9bTozBEF+7B3RqoF7wCkAiPK1vDQ1ox3AgBg/4WEa6p3J5g4nRNtKUgj3g1pEpLA58GOZ/fNOOxZ3BICAAAAAAD2igElAAD19skXfE3Sz7wzgNRjRJl+jwyfLGmjdwYAYD8FYzi0Owwo0aZCCJxA+RRJxOfBTheS6P8uW7aMz/kAAAAAAGCvGFACAFB3wSR7h0xbvEuA1GNEmW6mLm0dW+6dUQfmHQAAzWTG1bW7Y8EY06AtBYkB5VNEZrzu3cmC7hpcVbreOwMAAAAAALQGXkgCAKARLn/hAwp6n3cG0BIYUabb2s2HeCcAAPZPCFxduzuRAgNKtKVaJlPzbgDSwpLkQ+JNVAAAAAAAYB8xoAQAoFEuf8GXZfqqd0bqWPAuQBoxokyvx7afINlD3hkAgH0XgnEC5W5Y4ApvAGhnZvr5ULX6U+8OAAAAAADQOnhBHQCARjpo68ppNLgAACAASURBVNs13HO0pBd4p6RG4BAI7MaOEeX9unWGZHqWdw5+J2jz9pU6uPsI7xAAwL4xaYp3Q1qZcQJli4viOD48Go8Oi7LJbCXhcEV2qKRpJk1XoukKmibZQVI4SNp5GqvZIQrK7HyMGTv/NyOpfU7ariXeBUAqRME+6N0AAAAAAABaCwNKAAAaadGZI7p4yWtldquCCt45qcAJlNgTRpTptHZ4luZ1e1cAAPZVokPEH7l2KTJjQJliCxYs6Nq4cWN/pqajTYoVkj6F0CdTn6ScpMNlyiiTyEw73pz11PdnhWf+H3vGjwNocz8crFRu944AAAAAAACthQElAACNdvnzH9IHb3+5atEvJB3lnQOkHiPK9NmyfZ5Mgy08BOfoWwAdJQQdwie+XUukbd4N+N1Q8thMTSdaSE6wEOaFRMc8umFDPlLI2lOHkPxmBrCPzKJ/8W4AAAAAAACthwElAADNcNmLynr/nS9VJtwk2WzvHCD1GFGmz6ata/T/2bvz+LjO+u773985s0gaaWQpduzYsmZGUuIEL4E4dhzb2UhbSikUaEPD3ucuZekCpdCytg+UhyVxQoG790OBlgItpSSEFAgJlC1O4iTEcQAnyqrRZsXBiWNnkW1ZmjnX/YcDzWInkq3Rdc7M5/0XjqWZzys41jJfXVdnS1IHlADQYFyeI/eO6FHfAQ0o6OvuPsUpXG/m1jnp+Y/sfnhFIGUODSVN5vTEH1n+3AI4Sk73DY4O/sh3BgAAAAAASB4GlAAAzJVPnnGv/uqn5zGiBKaJEWW87Nzfp86WX88bAADxFTnLG39bH17AgLLWzpVSOwqFtVJwvpzbINM6J7VLjsMkAdSO2WfEmbUAAAAAAOAoMKAEAGAuffKMe/U3W18ouZ/I6QTfOUDsMaKMj4OVJaq6foW23HcKAOA5mPK+E2LLucd8J9Sjnp6ek4Ioeomce+EO2TmS2iTHj10AmCuPWzr8iu8IAAAAAACQTAwoAQCYaxevuUd/s/U8WcSIEpgORpTxsXv/w1qY810BAHgOJi303RBjnEA5O4Le7u4XWBC81Dn7XVWj1YeOfWMxCcAH9+WBgQEG8gAAAAAA4KgEvgMAAGhIF6+5R9XwhZJ+6TsFSIRDI8qHZHrYd0pD++W+5ZIqvjOOAlf5AWgkgeQW+I6ILRcyoDwGfd3dy/uKxU/0FopjsuBW5/T/Sm617y4ADS5Kfc53AgAAAAAASC4GlAAA+HLp6XcrCs8TI0pgehhR+leJjtNU9AvfGQCAIyuVSgsk48aRI4k4gXKmlhUKpd5C4SM9heKgs+AO5/QeiZP0AcTGzeUd5Tt8RwAAAAAAgORiQAkAgE+Xnn63nHuRpN2+U4BEYETp30P7J3wnAACOLOUcw7Znk2FAOU1BT3fPb/QWi5dVZPdJ9kGTSr6jAOCZ3Dd8FwAAAAAAgGRjQAkAgG+XrNuuQL+hRhlRcpEujhUjSr8eHH+BpP2+MwAAhxdJi3w3xBwDymdRLBbn9XQX39NbKI6aRT+Q0wWSQt9dAHAkoXNX+m4AAAAAAADJxoASAIA4uOiMXzwxomQQBkwHI0p/qmrRRJVrvAEgpsxZl++GGJscHBx8zHdEHJVKpUJfd/EfQqdRM31C0hLfTQDwXMzplntHRwd9dwAAAAAAgGRjQAkAQFxcdMYvJGNECUwXI0p/du1P2klUnH0LoHE41+s7IcYeEB8TnqJvSV9Xb7H46SBy9zjTX0pq890EANPlpCt8NwAAAAAAgORjQAkAQJxsWvvzJ0aUe3ynAInAiNKPh/e9QPw9BQCx5AL1+G6IsZ2+A+KiWCwu6i0WP+1SlQE5vV1S1ncTAMyUuSoDSgAAAAAAcMwYUAIAEDeb1v5c1YARJTBdjCjnnlNa+yv9vjMAAIfhjBMoj8BkDT+gXL16dbqnu/iO0OkehpMAEu5nAzt2lH1HAAAAAACA5GNACQBAHH1yzc+k6DfFiBKYHkaUc++Xj+d9JwAADsdxAuUROEUP+G7wqbdYfPkjux++y0yfksTHcQAJZ9f4LgAAAAAAAPWBASUAAHG16czbnhhR7vWdAiQCI8q5tffgKpkaeogCAHHT19e3QFKH7464MjXmx61CoXBCb6F4hZyulMQJpQDqggXa7LsBAAAAAADUBwaUAADE2aYzb5O535H0mO8UIBEYUc4l02OT9/qOmCbnOwAA5kI0GZ3quyHOnDXcFd7W2116Q1p2h6RX+o4BgNnjKmEmc5PvCgAAAAAAUB8YUAIAEHcXr7tZTr+tuhlRsmNCjTGinDs7xxf5TgAA/A+zKgPKZ2ENNKBctnTp4t5C6Qcy92UndfruAYDZZbfec889j/uuAAAAAAAA9YEBJQAASXDJGTcpsBdL4gUCYDoYUc6N8cllchrwnQEAeIKzlb4T4iyasoa4wruvVPqtShBuk9z5vlsAoBbM6VrfDQAAAAAAoH4woAQAICkuWnujAvttMaIEpocR5dzYe+B+3wkAgEOciRMoj8y1Tu0b9B1RS6tXr073FoufdpH7niROiQZQt1ygzb4bAAAAAABA/WBACQBAkly09kYp4CRKYLoYUdbezvEeSc53BgA0ur6+vqxJp/juiLGd23ft2uc7olZOXrLkuEd2P/w9Ob1dkvnuAYDacRVLpW70XQEAAAAAAOoHA0oAAJJm05otCtzvyGncdwqQCIwoa+tgdami6E7fGc+BgSeAuucmJ0+XlPXdEWP3+Q6olZ6unpWTqfRWSS/03QIAteZkdwwMDDzmuwMAAAAAANQPBpQAACTRRetuUOhezIgSmCZGlLX10AH+vQKAd8EG3wXx5upyQNlbKLzQwmiLSSXfLQAwN9wdvgsAAAAAAEB9YUAJAEBSXbTuBpk4iRKYLkaUtfPL8eWSKr4zAKDBrfcdEGvOBnwnzLa+7tJLJfuupDbfLQAwZ8z6fScAAAAAAID6woASAIAk23TG9XL2Ekn7fKcAicCIsjYq7jhVol/4zgCABmYynek7Itasvk6g7O0uvcFZ9E1JTb5bAGAuBREDSgAAAAAAMLsYUAIAkHSXrr1O5l4h6YDvlGlx5rsAjY4RZW08uH/CdwIANKq+7u5TJB3vuyPOXDWsmxMoewqF35e5L0qW8t0CAHMttIgrvAEAAAAAwKxiQAkAQD24eN0PZO73JDFgAqaDEeXse3D8VMV3yO18BwBATZn9tu+EmHOTmqyLAWVfqfRbJvsPSaHvFgDwYP89IyMjviMAAAAAAEB9YUAJAEC9uHjdDyRGlMC0MaKcXVW1aqLKNd4A4EHk7EW+G2JucGxsLK4j/2nrKxbPcZH7lqSM7xYA8MLULynynQEAAAAAAOoLA0oAAOrJpnX/rUAvFyNKYHoYUc6uB/fx9QUAzLGurq5mM53luyPOnNzPfDccq2WFQsk5XS6pyXcLAHgTqd93AgAAAAAAqD+8wAkAQL256IzvS/YKMaIEpocR5ezZvf/5kvb6zgCARpINw3MlNfvuiDOTfu674VgsW7asrSJ9W9IC3y0A4JVZ2XcCAAAAAACoPwwoAQCoR5vWfk9R8EpJB32nAInAiHJ2OGW0b4pTYQBgbr3Cd0AC3OY74BhYZWLya5Kt8B0CAL6Zogd8NwAAAAAAgPrDgBIAgHp16ZprFAWvECNKYHoYUc6OXftafScAQKM4V0pJ9nLfHXFXNUvsFd69hcJfSe4lvjsAIA4iiQElAAAAAACYdQwoAQCoZ5euuUZynEQJTBcjymO3d2KVnIvbC5vOdwAA1MJYsXi+uNb5uewaHh7+pe+Io9HT1bNSsv/PdwcAxEVottN3AwAAAAAAqD8MKAEAqHeb1l0ts9dImvKdIokZE+KvY+pkbdyzixHlUQv0+NS9viMAoBFEzi7w3ZAAiby+u6urqzkIo8skNfluAYC4qJjF7Qe1AAAAAABAHWBACQBAI7h47TdldqHiMKKs+g4ApqGz8jxOojwGDzy2yHcCANS7vr6+rMlxffdzcE4/991wNLJh+oNOOtl3BwDEh6sMDQ3t9l0BAAAAAADqDwNKAAAaxcVrvym5V0uqeO2I+PQDCcF13kdvvLJMkcq+MwCgnrlK5RWSjvPdEXdmbqvvhpkqlUrLJPcu3x0AEC+2S/xIJgAAAAAAqAEWDAAANJJN666QeR5RVi3y9tzATDGiPHqPHBjznQAAdc3pzb4TEsApldriO2KGLHDuC5KyvkMAIF4c13cDAAAAAICaYEAJAECjuXjdNyS9Rr5GlBXjxAgkCyPKo/PAeEmS853xhLh0AMCs6Fu6tFfSub47EuDucrn8oO+ImejrLl0gp7N8dwBA7Djj6zEAAAAAAFATDCgBAGhEm864XM5eKx8jyooxZELyMKKcuYlqt6LoTt8ZAFCPXBC8RZL57og90/W+E2YodOY+5DsCAGLJdMB3AgAAAAAAqE8MKAEAaFSXrL3My4iyKq7wRjIxopy5hw/w7woAZtmqhQtzkv0v3x1JYJElakDZ2136Y0mn+O4AgJia8B0AAAAAAADqEwNKAAAa2SVrL5PsdZLm7lptF3ACJZKLEeXMPLDvefJx0i0A1LH9TU1vkXSc744kiFJ2ne+G6Vq9enVach/03QEAseUYUAIAAAAAgNpgQAkAQKPbtPbrMv2xNEcnQ045rptEsnVMnayNe3YxopyGqWi+KtEvfGcAQL1YvXp12sne4bsjGdzY4ODgqO+K6XrkoT2vlmmp7w4AiDEGlAAAAAAAoCYYUAIAAOniM74s2dyMKKdCPv9A8nVWnsdJlNP04P44vNDJybcA6sKjD+25UFK3744kMAWbfTfMhDP3Tt8NABBnxoASAAAAAADUCAMGAABwyKa1X5K5N6nWI8qqpWr6+MBc4Trv6Xlw/6mSDvjOAICkO1dKydz7fXckRWTuR74bpqunu+c3THq+7w4AiDkGlAAAAAAAoCYYUAIAgP9x8bp/ldyL5fQN1erFiUiBJrnFG3WC67yfWzVq1cEq13gDwDHa0V36f5x0su+OhHDpavX7viOmy4Lozb4bACD2Ah30nQAAAAAAAOoTA0oAAPBUm9b9ty454wLlwuMkvUrSVZKmZvU59oez+nCAV1zn/dx2jbOaBoBjUCwWmyT3t747ksNtu2fHjp2+K6ajq6urU04v890BAHEXcQIlAAAAAACoEQaUAADg8D50+n5tOuNybTrjpUrpBJl7i+S2SHLH/Nj7uMUbdYbrvJ/d7gMvkLTXdwYAJFUY6e0yLfXdkRRm9l3fDdPVFIavlpT13QEAcWeRIt8NAAAAAACgPjGgBAAAz+3jZzysi9d9XpvWbZTCE+Xs7yR391E/3jgnUKIOcZ33kTlltL/S77UAABKqVCotlOm9vjuSpGp2te+G6Ypkr/fdAAAAAAAAAACNjOOfAADAzGw6vSzpI5I+ovfcslzOXSCnN0gqTfsxHk1PSUrXqBDw59B13nfr+g7J6TjfObGy8/FW9XX4rgCAxAmiaJNk/AU6fQ8NDQ3d6jtiOpYtXbq4Iq313dHAHpa025wedeYek9leOfeozCLnbCowN+47cCacc52S/YnvDgAAAAAAACBpGFACAICjd9Hafkn9+pD7ex346Xo5XSBnr5a04Fnf75GwKgaUqFeHrvNmRPl0jx5cJed+KbNFvlMAICl6uns2StHrfHckitPVUjKuea2E4UvlZL476tiUSWUn3SnZ3eZ0VyQbDtzUA5UwvH94eHjCd+BsKpVKy4LIMaAEAAAAAAAAZogBJQAAOHYfskjSDZJu0If6/1rjj79YpldL9jJJzc94+wNBk6ZMSnOrLurUoeu879QNnYwo/0eg8al71JZhQAkA07B69er0I7t3f1YyBnYzYLLv+m6YNqeX+U6oM4/K6Von3RSGdtO+gwdv3blz537fUQAAAAAAAADijQElAACYXR9aPinpW5K+pXfe2KxU+LuS3iDpRfr1qZMm7clICw96ywRqjuu8n2nnvoValvFdAQCJ8Mju3X8n2QrfHQmzP3ug5RrfEdNRLBab5PRC3x2J57RDga50UfCdjgUdm7dt2zblOwkAAAAAAABAsjCgBAAAtfMP6w9IulzS5XrnjZ2HxpTu9ZKdr4fTxoASdY/rvJ8qbb5OgeK4WwCJ0lconOlk7/PdkUDf6n+of9x3xHSkzdZGzjX57kioSHI/Nhd8vmt06MprpYokadRvFAAAAAAAAIBkYkAJAADmxj+s3yPpK5K+onf/tJRpsyumZCucXNp3GlBTXOf9P5a2R74TACDuVi1cmNsn+5Kk0HdL0pizr/lumK4ois6SuJ19hiKZrnCV4AODY4P3SdKA7yIAAAAAAAAAiceAEgAAzL1LzhhacvuNPzR19kxVK3fsndzfOj45tUq8iox6xXXeUktqWGk7zXcGAMTdvqamT0k6yXdHAu3NtrV833fEtDk7i898Z8B0varhn5Z3lO/wnQIAAAAAAACgvgS+AwAAQGNyTt+VXHs6DDcc39x2aqm9Y9cJufx1LanM7b7bgJo4dJ33QzI97DvFi0L7DvH1BwA8q77u0usle5PvjmRyV/T390/6rpgmk2md74iE2O+c/rI8PHwu40kAAAAAAAAAtcALmAAAwIvhu8dukLTnV7822aLmVOrsRbnWlaV8x+DCltbNmTA14jERmH2NOqJMhXvVkub0SQB4FqVS6VRn7nO+OxIsMdd3n9TdXZLU7rsjAXaa3MbB0eFPS4p8xwAAAAAAAACoTwwoAQCAH696VdVJPzjcb5lZTy6dOaerNV8o5jsHFzTltoQWPjTXiUBNNOKIcmluu6ScxwLn8bkB4Dl1dXV1BpH7pqRm3y0J9cvyyMhm3xHTVQ2CVb4bYs90u1VSZwyMjPzMdwoAAAAAAACA+saAEgAA+HTVc71BYOppy2Y3FPLtHYW2eT/tyDZfG5jG5yIOqJlGGlGaptTRfIrvDACIq76+vmw2TH1TUo/vluSyr0qq+q6YLheJAeWzG65KvzVw/8CY75Akcc6Z7wYAAAAAAAAgiRhQAgAAb8Km8NuSDkzzzVNhEJzR0dR8bjHfmerOt2/NZ5puMrPJWjYCNdMoI8pFrbfI7HjfGQAQUxZNTf2zpHN8hySYc6F93nfETFigFb4bYuyRQO53hoeHf+k7JGnCKPJ52jcAAAAAAACQWAwoAQCANwMnrnvMZN85indtSlm4Zn5zy5mlfOeBpa3tW9oy2a2WoJOHAEmNMaJcmJvvOwEA4qqnULzUZK/z3ZFkZvrh4ODgvb47ZsS5ku+E2DL95X0jI3f5zkgiC4JW3w0AAAAAAABAEjGgBAAAXkVB9NVjewTXng7DDQuac2uK7R0PnZDLX9eSytw+O3XAHKjnEWV79ucKbZnvDACIo55i8b0mvdN3R9JFzn3Od8NRKPoOiKkfl4eHv+I7Iqki5xhQAgAAAAAAAEeBASUAAPCq80DTNZJ2z8ZjmWxRcyp19qJc68pSvmNwYUvr5kwqNTwbjw3UVL2OKLvzU74TJElOzncCADxZb6HwLnP6uO+OOvBAx/z53/YdMROrFi7MScbpzM/kAtO7JD5mHy0zY0AJAAAAAAAAHAUGlAAAwKttp58+Jee+PtuPa2Y9uXTmnK5cvljMdw4uaMptCYPwwdl+HmDW1NuIsik9rEy42ncGAMRNb6HwLsku8d1RD8z0hW3btsVjrD9NB5qaun03xNT37hse/rnviESLtNB3AgAAAAAAAJBEDCgBAIB3QRj8S00f39TTls1uKLS1H1dsm3dLR1PTtYHZ47V8TuCo1NOIspDfIb7eAICn6CsU3s94ctZUXRj+s++ImXJmx/tuiCML7FO+GxLP3Im+EwAAAAAAAIAk4gVNAADg3cDy9T+T3JY5eKowCIK1HdmWc4v5jnR3vn3rvKbmW8xscg6eG5ieehhRpoJH1Jri9EkA+B9hT6H0f5zso75D6si3yuXyDt8RMxU5d5zvhhh6tL2z8ye+I5LOOTvJdwMAAAAAAACQRAwoAQBALJjZP87xUzalLFzTmW1eW8p3Hlja2r6lLZPdalJ1jjuAZ0r6iHJp2y8ka/GdAQBxUCwWm3qLxa+Z3J/6bqknJpfIkzwDBZ2+G2LomqRdxR5LJk6gBIAEs/BAxncDAAAAADQqBpQAACAW5k1kr5B0v59nd+3pMNywoDm3ppTv3H1CLn9dSypzu58W4AlJHVGaptTRzAlIACBp2dKliwOna+V0ge+WOvPjgZGRm3xHHA0ndfhuiBuTu953Q9ItW7aszaRu3x0AgKNXcRl+CBEAAAAAPGFACQAAYmHb6adPSfqC7w6ZFjanUmcvyrWu7GnvvH9hrnVLJghGfGehQSVxRLmwZatMJ/jOeAqT850AoPH0dPdsrAThrSad4bul3jgXfNx3w9GL8r4LYses33dC0k1NTJwtKfTdAQA4elE6YkAJAAAAAJ4woAQAALHhFP6TpAO+O55kSS6V2dDVNq9Qyndsn9+c+1EYhA/6jkKDSdqIclHbPN8JAOBbb3fpzWbRj6SYDcrrw88GRwd/5DviqJlxPefTBJMZBpTHLHih7wIAmCkzq/puiJOUxNfSAAAAAOAJA0oAABAbQyvX7XJxOIXyMMxsVT6TPb/Q1j6/mO+4vbOp+frA7HHfXWgQSRlRdmR/odCe5zsDAHzp7u7u6C0Wvy5zn5PEUK4GnNxHpeSeLGwRfy6eZvLenffu9h2RfI4BJYDEceYqvhvixFXV7bsBAAAAABoVA0oAABArUVj9hOJ1CuXTBYHZynnZ5rOK+Y5Md759a0dTyxYz2+87DHUuCSPKJfmDvhMAwJee7u7z02bb5fQq3y117J7BkZErfUcci4gTKJ/CpHHfDUlXKBROMGmV7w4AmClzxoDyySxiQAkAAAAAnjCgBAAAsTLyvLMfkPSvvjumKZuycE1HtmlDqb2jsrS1fUtbJrvVJF4EQG3EeUTZHI4pG57uOwMA5trixYtbeovFT5kFP5Csy3dPPTNnH5UU+e44FqaIAeWTOIkT3Y9Rytnrxfd4ASSRuSnfCXESKejx3QAAAAAAjYpvrgEAgNgxVT4hadJ3x4w45dNhuGFBc25NKd/58Am5/HUtqcztvrNQh+I6ouxuH1Rsv75wib3qFUC89RYK5zWnM7fJ6R2SzHdPXTPdPjA69FXfGcfMLNED0BrgY/SxMv2R7wQAOBrOMaB8MpM7zXcDAAAAADSqmL7ACQAAGll55Tk7JP2z746jZlrYnEqdvSjXurLU3jG0sKX12kwYDvvOQh2J24gyZY8ql17tOwMA5kqxWFzUWyh8RbIfS1rmu6chOPceJfz0SUmSc8n6IaHay/kOSLLe7u4Nkk7x3QEARyNwwbjvhphZ0dXV1ew7AgAAAAAaEQNKAAAQS8FU9UOSHvXdcaxMVsqlM+d2tbYXi/nO8oLm3OYwtF2+u1AH4jSi7Mr/XGYMIADUva6uruaeYvG9odPdkr3ed08DubY8MnKN74jZ4GSctvVUrb4DEs2CP/OdAABHywXuMd8NMZPOBgGnUAIAAACABwwoAQBALA2cdvZDZvqY747ZFJh62zLZcwqtHQuK+Y7bj2tpuTE0e9x3FxIsDiNKs4qOaz7R2/MDwNwI+rpLF2TD1J3m9HFJ7b6DGogz0/t8R8yWwMQJlE/VvGzZsjbfEUlUKpVOlfSHvjsA4GiZ9IjvhrhxCl7iuwEAAAAAGhEDSgAAEFtNNu9TkgZ8d9RAEJitbE83rS/kOzLd+fatHU0tW8xsv+8wJJDvEeXxLbdIWuzluQGg9oK+7tIf9BYKv3DmLpNU9B3UcEzfGBgevtl3xiya8B0QN1P7p5b5bkiiINJHxfd2ASSYOZf4W0dmm5l7qe8GAAAAAGhEfJMNAADEVv/y5ZPO2ft9d9RYNmXhmo5s04ZSe0dlaWv7lrZMdqtJFd9hSBCfI8pFuXlz/pwzZeZ8JwBIltWrV6d7u0tv6C0U73DmLpdshe+mBjXlKsEHfEfMpojTtp4hMHey74akKS0tnSU5TikDkGhBFDGgfAZbUSwW6/Lj4urVq9M9S3tO990BAAAAAIfDgBIAAMTa0MozvyHTj3x3zAmnfDoMNyxozq0p5Tv3nJBrv7Y5nf6FJMZfeG4+RpTtTduVCp43Z88HADVWLBbn9RWL73xk98P3ydyXJZ3iu6mROdn/HhwbvM93x2wyaa/vhrhxgWNMMQNdXV3NQeD+yXcHAByrE3bseFBS1XdH3KQivcV3Qy08uvvhT5tF/7F69eq07xYAAAAAeDoGlAAAIN7MXDQVvEnSuO+UOWU6vjkVnntCS9upPfnOnYtaWjdngnDYdxZibq5HlN35A3PyPABQY32Fwmm9xeLnAqcx5/RJSQXfTdADQTr8sO+I2WaR7fHdEDtOv+k7IUmyqdTHJfEDLAAS79pDN2885LsjbpzpjV1dXc2+O2ZTT3fxHU56m0wn7n344T/23QMAAAAAT8eAEgAAxN7wC84cltnf+u7wxrSkJZ05p6utvVjMd5YXNOc2h0HwoO8sxNRcjSibwjFlAk6MApBYfX19C3oLpT/vLRZvcbJtcnqzSTnfXTjEyf3FwMDAY747Zlsk4wTKZ3peT09Pt++IJOjp7j5fTn/huwMAZtEDvgNiqKMpDN/mO2K29BWLLzJzl/zq1+b0d6sWLuRzbgAAAACxwoASAAAkwuDyMz8j6QbfHb4Fpt62TPacQtu8+cV8x+3zm3PXhUHASUZ4qrkYUXa3lyWFNXv82TMlZw3/dweAQxYvXtzSWyxe2FsoXeWmKvdL7n/LaY3vLjzDNYMjI1f4jqiFwE0xFDkMq7o3+G6Iu74lfV1mwZfF93MB1BXb6bsgjpz0vr6+vrzvjmPVVyic5pwukyz1pH98wv7m5rd7iwIAAACAw+AbbgAAIBnMoiCovkXShO+UmAgCs5X5TPbsQtu8lu629pvas02bRf3nHAAAIABJREFUzWy/7zDERC1HlKE9rrbMabP+uLNnQtJVkt6iyakuXdj9+76DAPjT19e3oLe79IbeYvGy5nR6l5y+JrmXSEr7bsNhHbCoWr8n7GWzY5Kc74z4cW9bvXo1/00eQV9fX16pylWSlvhuAYBZ5dwO3wnxZPNVqbzfd8Wx6Fnas8bJfijpGUNQ5/Q3XV1dnR6yAAAAAOCwUs/9JgAAAPEwsPzsO0t3bHm7OX3ed0vMNKWC8Mzjmlp0XHPLY1OV6pZHJicy45MHX+D4fK+xHRpR3q3rOySn42btcZe03SbpnFl7vNmxX9KPJV2u5gNX6vdOftx3EAA/Fi9e3JJNZTeY3Hlm7jfdVGW1THZosma+8/Cc7GMDO3aUfVfUysDAwMHeQnGXpEW+W2Jm8aMP7flDSf/uOyRuli9fnpkY3/dfkk713QIAs87cAJ+fHZ5z7l2lUumbQ0NDt/humane7u7VZtH3nNRxhDeZlw3D90n667nsAgAAAIAj4QV1AACQKEMrNnyhtP3GDWbujb5bYskpnw7DDQuac5rfnNtzsFrpf2RiYt7+yuQK8apEY5rtEaVZVfNbTpyFsmPn9LBMV8t0udom/1u/c+JB30kA5t5Ji0+aX00fXGNmZzjphXI6Q3KZQ7/Lh76EucvS4SbfEbVmTqPOGFA+nbPo46sWLrxy+65d+3y3xMXy5cszB8bHv2qy83y3AEAtWBTc5wIOZj48SwWR++LixYvX7ty5MzG3jfR2d2+QBVe7w5w8+VT25729vZ8pl8ucQgoAAADAOwaUAAAgcfa7x/8sZ21rJPc83y1xZlJnU5g6a1GuVXK6f39lcmDPwYnuyWql5LsNc2w2R5QLcrfIdOYslR2NHZKukekqLey+RudZxWMLgDnW29u71KLoFBfpVJk73TmtqWqyJJkcr70n3ZRc9PqBgYG6H8M7aUjSWt8d8WNd+5pa3i/pA75L4qCvry8/Mb7/myY733cLANSKBdF9jh94eTbLW9LZr0i6QFLsP9vtKRReK9nnJbVM482brFL9kKQ/rm0VAAAAADw3BpQAACBxdp36on19/dddEEXhzZLafPckgmlJSzqzpCWdUSR35/jBg7/cOzmxohpFx/tOwxyZrRHlklYf/80NynSVTJfrgu4tMov9C0cAjl6hUDghbVZwUkGRCs7sJMmtMOkUVar5X/8F4Dhfsr7Y35dHR7f5rpgLTrqTP7tH4t7bVyptHhga+m/fJT6VSqWFbqpytaTTfLcAQC25dHpQU5WqpNB3S1w5ud/v6S7+3eDo8Id9txzJoROT93/S5P5sJu/npDeeWChcct/IyF21agMAAACA6WBACQAAEmlg+dl39t5xw+85Z9dIyvruSZJA9rx8tul5+WxTFDl3+/jU5N69B/evqEau03cbauxYR5T57B0KtKIGZYdzp5wuV6jv6FWFhhjUAPVk+YLlrY83P57OZDKpYHKyLTJrj1yYC4Iop8jysmhB5GyBzBZI0UIzWyin4yUVJDX9+jRJkyz+h+3g2N28dGToE2XfFXPF3B3Mf48ocJH7t74lfasH7h8Y8x3jQ29392oXucslcWo8gLo3MDBwsLdQvFfSKb5b4sxMH+otlPaVR4Yu8d3ydMuWLl08Mb7vcpPWH8W7h5Hso5JeOdtdAAAAADATDCgBAEBilVds/Env9hsvdOa+IU4rOBpBYLYyn8kqn8kerLjq1scnpyYfmTzwfBe5nO841MixjCi78+M1qpKkSNJNcvqOouCbeu3S+2r4XEBcWW+huMd3xFHKScr86hcT2qe0ArmpiqoWSJLMokPXbJuTZDKTDt1EaAm4kBC14qR9qgZvuFaq+G6ZKy4I+i3iD/2zON6lKj9ctnTpC+/ZsWOn75g5ZD3dxbfLdJHxA2IAGohJP3MMKKfBbeorFtMDw8Mf913yhKCnWHxzxeljkjqO4XFe3lcsrhsYHr55tsIAAAAAYKYYUAIAgEQrr1r/Xz233/Dnkn3Wd0vCZVMWrunIhurIZA9MueiWRw5O2Pjk5AucHJ8z1pujGVFmwvuVDU+f5ZKqpJslXa4pd5leX3xglh8fSKJjefERSBwzvas8NthQo/nC0FB5R6F4QFKz75YYW1YJwh8Wi8UXDg8P/9J3TK2dtPik+ZXM5BfN6aW+WwBgrjnZzyT3Gt8dSeCcPtZbKK48WK388djY2AFfHaVS6dQgcp+V05mz8HDmpIslnT0LjwUAAAAARyXwHQAAAHCsBldu/Ccn9wHfHXXDrDkdhGsXNOfWlPLz9ixuzf+oOZXaLs4Hqy+HRpQPyfTwtN6+mC9rdn4A64CkqyS9Udlovi4sbNSFhU8zngSARmTfLQ8Pf953xVy7VqpIbpvvjgQ4JXRua8/SnjW+Q2qpr7t0QTU92c94EkCjcq76M98NCfPqbBhe19fdvXyun7hv6dLe3u7iZ4MoulWalfHkIU5n9RYKL561xwMAAACAGeI0IQAAUBeGVm78WOn2GydNbpPvlrpidnxTmDr/hFxecrp/f2VyYM/Bie7JaqXkOw2zYLonUYYaV2v2+cfwTHsl/VDSVQqav6lXHV/Lq8ABAMkwGk6l/0iN+wMaN0va6Dsi/qzLgmhzb7H4tvLw8Jd918ymnq6eEy10n3Vy5/tuAQCfoiDYFjpF4sCPGbDTndm23kLpo7mJ/Z/cvmvXvlo+24nF4hlV597tZK+UFEg2689hso9L+r6kaNYfHAAAAACeA1+QAgCAujG0cv0lTnq37466ZVrSks6c09WaLxXzneWFLa2bU0E45jsLx2g6J1Euyd8mU36Gj7xb0r/J9DIF44t0YeFVurDwFcaTAABJB10U/MG9O+/d7TvEF3doQInpaZbTl3oLpat6enq6fcccq97e3uN7CsVPWhhtF+NJANDw8PAjTtruuyOBspL7+31NzQM93cV39PX1zfRr9mfV29Xb11sovbu3ULwpcrrZZH+gGr6m6KRTewqFV9fq8QEAAADg2XACJQAAqCtDKzdcWrp9i0y6xHdLPQtMvbl0pjeXzkSRc7ePT03u3Tuxf0XVuU7fbTgKz3YSpVlV81ume+LoiEzfkvQdHd99rc6zyqy3AgCSz9lfDO4Y3Oo7w6d0FN1UCULfGQnjXmLVqL+3ULrI0uFnBgYGHvNdNBMnL1lyXCWd/uuoUv1zk3K+ewAgTsx0nZyO5daDRrbITJ9yU5WP9XYXL7dAVyqV+slMP06WSqWCVW2lmVsnRb8nVVfUKvhITPb3y5cvv7y/v39yrp8bAAAAQGNjQAkAAOrO0MoNl/Zs3+JkutR3SwMIArOV+UxW+Uz2YMVVtz4+OTX5yOSB57vI8cJwkhxpRDm/eatM657lPQdlukqmy3VB9xaZNepVrACAaXBy/z44OvwF3x2+3bNjx87eQvFOSc/z3ZIs1iq5j7ipyl/1dBc/FWRSnx0YGHjId9WzKZVKpwZV99Ypc6+TU+vsX3oKAMlnkV3vzL3dd0fCtcj0Ruf0Rk1NVXoLxe2S7nFO95hsjwvcuElOkfIyy0tRu1PQIedONNMqRW6efv3lvLePVj0T4/vfLOkffQUAAAAAaEwMKAEAQF0aXLXhkz3bb3Ay+6TvlgaSTVm4piMbqiPbdKDiqjftnZhIjU9OPt/JpX3HYRoON6Jc3NZ6mLe8U06Xy9zXdWHxrrmNBAAk2PaJqam3+I6ICyd93xhQHq0OM33YTVU+0FsoXmXOvtS+oPN727Ztm/IdJkldXV2d2VTqZXJ6syJ35qEdCtNJADgSlw6uU6UaqYZXRDcWS0k6TdJpZpLknraNdJJMJhfDD0/ug8sXLP9S/0P9475LAAAAADQOBpQAAKBuDa7a+A89228QI0ovmlMWnrmgOacFzbm9E9XKHY9MTMzbX5lcoRh+ex5P8uQRZWvmQaVshaSqpJslXa5KeIVe1zXmuRIAkDAm7Qlc9IqdO3fu990SF0Fg33ORe6fvjoTLSHqlM/fKR3Y//FhvofhDOft+yqIf3DMyMjSXIb1dvX2Wqr7UOb1UcmfJ8X1XAJiucrn8YF938VZnWuu7Bd4tPNC8768k/b3vEAAAAACNg2/kAQCAusaIMhY6msLUWYtyrXJyo/srU4N7D0x0T0aVHt9hOIKOqZO1ce8d2lm8TuYuUTXzbb1m8W7fWQCAxJp0chfcOzo66DskTiampq7Phqn9klp8t9SJvKRXytwrKzL1Fgq75WybzG515voDaciF4WC5XH7wWJ7kXCk1UiotCaVlLtJaZ26tOa2Vqgvdr0734ueFAGDGIum7JgaUkMzcX5dKpc8NDQ3t8t0CAAAAoDEwoAQAAHVvcNXGf+i5/YYDkv3/4tVMr0zWnUtlunNtGUVO5QOVybE9Bw/0TFWrS3234RAzHZyXbbl1XinbVGh74B3XnndexXcTACDRnDl708Do8I99h8TN2NjYgZ5C4WqT/YHvlvpk82V6keReZO7QZaWqVNVbKIxLtlPSHskelqI9MjsgZ4+buYokRZEOBIGaI2dtpigjs3Y5HS+psEOuK4hc6tc3obojPD0AYEZM0Xel4MO+OxAH1hpW3XslcVI3AAAAgDnBgBIAADSEwZUb/6l3+43OmfusGFHGQmDqzaUzvbl0Joqcu318anLv3ol9y6tOx/lua0ShBQ/Nb265syWVWWmmDZL+lfEkAOBYOdP7yyND/+a7I64CF3zdmWNAOaesVdJJh/63k2RPrCudfnWCpJnknGRP+f1fv/8ctgJA4yiPjt7WWyjeL2mJ7xb450xvKxaLnx4eHh723QIAAACg/gW+AwAAAOZKedX6z5mzt+ppL4HCuyAwW5nPZM8u5DvnFfLtv+hoatkSmPb7DmsE2VTqnsWt+esL+XltuXTmHDN1SpKz6ErfbQCAZHOyfxkcHv6E74442185eLXkxn13AAAQA85Jl/mOQGxkQ4kTSQEAAADMCQaUAACgoZRXrf88I8pYC0MLT+3INm0o5jutO99+U1smu9VkU77D6otFuUzmtu58+9YlufxJTWHqLElNT3qD8anHwh/6qgMA1IXvdY8MvdV3RNzt3Llzv8m+7bsDAIBYiIL/8J2AGHF63YnF4vN9ZwAAAACofwwoAQBAwymvWv95Z3qLpMh3C55Vc8rCMxc059aU2jvGF7fmr29JZW4X49ejZmYTHU0tW0r5ecMLm1tPS1m4Roe5h9JkV4+tX3/AQyIAoB6Ytqaasq+6Vqr4TkkCJ/fPvhsAAIiDwR2Dt0q6x3cHYiNwzn3EdwQAAACA+seAEgAANKShFRu+4ExvFSPKpOhoClNnLcq1rizlOx44IZe/rimVvtt3VFKEQfjgwpbWzcV8x/6ObNMGM+t51ncwx/XdAICjtT09NfXie+6553HfIUlRHhn5iaQ7fXcAABAHzolTKPFrTva7Pd09G313AAAAAKhvDCgBAEDDOjSidJxEmTBmtrg5lTp7ca7t5GK+s7ywpXVzxoIdvrviqCmVvntpa/uWQlt7Ry6dOcekzmm820HLhlfXPA4AUI/uiQL7rbvvv/9h3yFJYyZOoQQAQFLV3BckTfnuQIxYdIkOc3sGAAAAAMwWBpQAAKChDa3Y+M9O7s1iRJlIgak3l86c05Wft6SY77h9fnPuutCswUcbFrVlslsL+Xm3Lc61nZwOww2S0jN4gB8MnLjusVrVAQDqlNN9FbnzhoaGdvlOSaLJKPqS5MZ9dwAA4NvIyMgDkr7juwPxYdIZfd2l3/XdAQAAAKB+MaAEAAANb2jlxn9hRJl4QWC2Mp/Jnl3Id8wr5Ofd1tHUsiWQ7fMdNlcC2b7OpubrS+3zhhc059aEFpx2dI9kXN8NAJipkSi033xi8ICjMDo6utfJvuC7AwCAOHAu+KzvBsSMuYvPlVK+MwAAAADUJwaUAAAAOjSilOxPxIiyHoShBad1ZJs2FNs7gu58+01tmexWk9XlFWBhaLsWtrRuLrZ3TM7LNp9lsp5jeLhqMFXhpA8AwEyMRIGdMzQ0NOI7JOmCSuqTkiZ9dwAA4Nvg6OCPJN3luwPx4aSTdxSLr/XdAQAAAKA+MaAEAAB4wuDK9V9kRFl3mlMWnrmgObem1N4x3tWavzmXzvRLcr7DjlVTmL5raWv7lkJrR2cunTlHUscxP6jT5oHTzn7o2OsAAA2ibFH1fMaTs2Pg/oExk/7ddwcAADHgZLrIdwRixunDfX19Wd8ZAAAAAOoPA0oAAIAnGVy5/otyepMYUdajjkyYWrewpXV5Kd/5wAm5/HVNQfoe31EzY1FbJru1kJ932+LWtlPSYbhBUnq2Ht3JcX03AGCa3K2WTp05sGNH2XdJXYmqHxOnUAIAoHnHHfcfkoZ9dyBWCqpU/tR3BAAAAID6w4ASAADgaQZXbfhXmb1OUtV3C2rDTIubU6mzF7e1LSvmO8sLW1o3ZyzY4bvrSALT+HFNLT8utc8bWdCcWxNacFoNnsYFVv1WDR4XAFB/fmzp9PkDAwOcWjzLBnbsKMv0Wd8dAAD4tm3btimT2+S7A/HinHt/X19f3ncHAAAAgPrCgBIAAOAwBles/5qZXiep4rsFtRWYenPpzDld+XlLivmO2+c3564LLdjtu0uS0mG4Y1FL6+ZivrPSnm16oclKtXouk35aXnlObEekAIDYuLJqesnAwMBjvkPq1VQUfVjSXt8dAAD4VjH7oqRR3x2IE5vvpqbe7bsCAAAAQH1hQAkAAHAE5RUb/tNMrxcjykYRBGYr85ns2YX8vI5Cft5tHU0tWwLZvrkOaUqFdy1tbd+ytLX9hJZ05hxJ82r+pCau7wYAPCsn+z/lkeE/GB4envDdUs9GR0f3OtPFvjsAAPBteHh4wpx90HcH4sXJ/qpYLC7y3QEAAACgfjCgBAAAeBblFRv+0+Q4ibLxhKEFp3VkmzYU2zuC7nz7TW2Z7FaTTdXuKS1qy2S3FvPzti/OtZ+SDsMNklK1e76ncpXov+bquQAAiVOV3LsHR4b+XFLkO6YRNOdyn5R0p+8OAAB8Gxgd+qpk23x3ID5MygUMawEAAADMIgaUAAAAz6G8cuPXGVE2tOaUhWcuaM6tKbV3jC9tbd+Sy2Ruk+Rm48EDs8fnN+eu68l3PLCgObcmsGDVbDzuzLjtg88/6965f14AQNyZtCdy9uLyyMilvlsaSX9//2QU2Vs1S59vAACQYJFz1ff4jkC8mNyf9C1d2uu7AwAAAEB9YEAJAAAwDeWVG7/u5F4rRpSNriMdhhsWNreeVsp3PnBCLn9dU5i++2geKGPBjkUtrZuL+c4on8meLdOS2Y6dPuP6bgDA4WwPXLRmaHToB75DGtHQjqHrTfpX3x0AAPg2ODr6I5ku992BWMm4IPyI7wgAAAAA9YEBJQAAwDQNrdx4GSNK/IqZFjenUmcvbm07uZjvLC9sad2cCYLR53q/plR419LW9i1d+XkntKQz50iufS56n41T+E3fDQCAmDFdlps4sP7e0dFB3ymNbNJF75bcmO8OAAB8q0pvl/SI7w7EyoV9hcJpviMAAAAAJB8DSgAAgBkYWrnxMufsNWJEiScJTL25dOacrrZ53cX2zrvmN+euCy3Y/aQ3mWrLZLYU8h13LM61n5IOww2SUr56n8qGhlau2+67AgAQG85MF5WHhy/cvmvXPt8xjW50dHRvFAWvkVT13QIAgE/Dw8O/NLkP+u5ArJiTfdR3BAAAAIDkY0AJAAAwQ0Or1l9ucq8TI0ocRiCdks9kzy7k57V3t7ZvXZRrvbbU3rF7QXPrhtBshe++pzNFV/huAADEhNMOyZ0/MDz8XknOdw4OGdoxdL1Ml/ruAADAt4GRkc/KdL3vDsTKb/cVi+f6jgAAAACQbAwoAQAAjkJ55cavu0CvljTluwWxlU6F4ZqWVOZck53gO+ZIzBnXdwMA5OS+cTCqPL88MvIT3y14pqZc7m/N6RbfHQAAeBYpDF8raa/vEMSHky6WZL47AAAAACQXA0oAAICjNLR8wzdkjCiRXOa0c2Dl+p/67gAAePWYnL1lcGTkgrGxsT2+Y3B4/f39k6qmfl/SLt8tSBROkgVQd8rl8g5z9g7fHYgRpzU9hcIrfGcAAAAASC4GlAAAAMdgcMWGKxhRIqmc3JUyi3x3AAC8uVnVcHV5dOjzvkPw3AbuHxiT3CslTfpuQSL0S3a17wgAqIWB0aF/k/Q13x2Ij0D20XOllO8OAAAAAMnEgBIAAOAYDa7YcIXkLhQjSiSNC670nQAA8GLC5D5QHhneWB4rD/iOwfSVR0ZulOxdvjsQezutkvptk3vUdwgA1ErT/tybJXeH7w7Eg5NOHiuU/sh3BwAAAIBkYkAJAAAwCwZXbvympFdIOui7BZgOJz3cvefgZt8dAIA5tzmQO21gZORjkqq+YzBz5ZGhf5TcJb47EFv7o8BecejEUgCoX/0P9Y+rmnqFpEd8tyAenNyHFy9e3OK7AwAAAEDyMKAEAACYJYMrN3xX0u+LESUSwKRvX3veeRXfHQCAObNLzt5YHhk+776Rkbt8x+DYlEdG/sZkX/XdgdipWmSvHhoausV3CADMhfJYecDJvU5S5LsFsbC4OZ39M98RAAAAAJKHASUAAMAsGly54bty7pViRImYcxZxfTcANAYnuX8LpzIryqNDXzn0a9QBl21t+V9m+oHvEMSGk7M/Hdgx9G3fIQAwlwZHRr7rTIzmIJP2RJFu9t0BAAAAIHkYUAIAAMyywVUbrzbnXiFpwncLcATjLldhcAEAdc6kX0huY3lk5A337rx3t+8ezK7+/v7JiUrl9yT3Q98t8M85va88OvR53x0A4MPg8PA/SW6T7w7446ShimnD0I6h6323AAAAAEgeBpQAAAA1UF618Ro7dBIlI0rEjpO+O1w6jz+bAFC33JicvWVgZHh1eWTkRt81qJ2xsbEDB6vVl0n2I98t8Mj0mcHR4Yt8ZwCAT+WRkfeY9B++O+CDu9UFdubw8PDdvksAAAAAJBMDSgAAgBopr9p4jQXGSZSInUCO67sBoD7tdU7vPVitnvTESXRV30GovbGxsQMHpg4yomxY7gvl4eG/9F0BADHg2ucf90eS+Hq3gTjTd3ITE+cODQ3t8t0CAAAAILkYUAIAANRQefn67zGiRMwctKbUNb4jAACzalKmz0y5qHdwdPiisbGxA76DMLd27ty5v6m15Xck/afvFswl94XyyMhbJTnfJQAQB9u2bZuaN/+4P5T0X75bMAdMnxkcHn759l279vlOAQAAAJBsDCgBAABqrLx8/fcis5eLESViwf574MR1j/muAADMiikn+xerpHrLw8PvGB0d3es7CP709/dPlkeGXyPZpb5bMAecPvfEeDLynQIAcbJt27apptbcH8rpW75bUDMHnOk15eHhd4iPgwAAAABmAQNKAACAOTC8Yv33GVEiFhzXdwNAHTgo0+ddGPQNjgy9aeD+gTHfQYgNVx4ZerczvU8MCuqWOX2qPDr8NvH/MQAcVn9//+S8Bcdd4OT+3XcLZpsbc1Fw9uDw8Nd8lwAAAACoHwwogf/L3p2H21XW9wL/rn2SQAhhkHkwAlFTmRWqMqholUqrVTs4tBbtYLkWrdreUm/vLcVeW4taZ61TB7HWto51KhWcBa9DpCJBwTPscxJQBAUMCVPOWfeP9+QJVQnJydp77b3P5/M860kIybu+e5199lrnXb/1ewGgT7rHnvqfdfKUJJbVpC2znS2zH2s7BAAL9qNUecNslSMmut1zJicnZ9oOxGCa7Hb/upqrnpZkY9tZaFZV5WXjM92XxLLdANu1du3auyenp89O6le1nYXGfGa2qn52cv3k19oOAgAAjBYFlAAAfTR13GmfrJOnRhElbajzufGHPfrGtmMAsNNuqKq8rB7rrJrodl/U7Xa/13YgBt/4+qmP1GOdk6vk221noRGzdZXnj3e7F7QdBGCI1BPT0+fVdV4ahefDbDapzp+Y7j7edTAAANALCigBAPqsFFHWOlHSd3Us3w0wZC6v6urs3fdcsWq8271gcnLy1rYDMVwmJyevvWN2y2l1lY+2nYWFq5NNdd156mS3+9a2swAMo8mZ7oV16l+rk01tZ2GnfS+pz5yYnvq/SebaDgMAAIwmBZQAAC2YOu70S+o6T0xqk/f0S92pZv+97RAA3KeNqfL2TpWHTkx3TxufmXr3unXr7mo7FMNrw4YNP5zsdp9SVfnDJN5Lw+f6ulM9bnJm8mNtBwEYZpPT0x+oO9WpSabbzsIOu3hL6odNTE9/uu0gAADAaFNACQDQkqnjT/t8XVe/kOS2trMw+qrkyxPHPWZ92zkAuDfV2tTVObtvXnHoRLd7zne63f9qOxEjpR7vdl9bz3VOTzLRdhh2VHXZbJWTpqamvtJ2EoBRMDU1deVslUcm+VzbWdie+rYq1fMmprtnTU9Pf7ftNAAAwOhTQAkA0KKp40/7fD1XK6Kk96pYvhtg8NxYp3pzPdd5+MT01MkTM1NvX3fjOtcE9Mzk+smv3jm75biqyoWxDOZgq/L23ffc43Hdbvd7bUcBGCXdbvd7E9Pdn0uqv4xz4QCqLqvm5k4cn556Z9tJAACAxUMBJQBAy6ZOOP0LiijptXrL3IfbzgBAkmRzqryvqqtf2mf//Q6bnJ56weT6ya+2HYrFY8OGDbePd7svreu5M2MZ0wFU35a6es5Et3vOunXrLLkO0BuzE9NT/ydVfjHJ99sOQ5LkR1Xqcyempx49vn69btkAAEBfKaAEABgAiijprfrKyRMfdW3bKQAWsTuq1B9LXT1nxR23HzjR7T59fGbqo2vXrr277WAsXpMzM59asvtux1V1XpfUW9rOQ1LV+Upmlzx0YmbqorazACwGE93uxdXSJcdWqT7QdpbFrEr9sXqsc9z49PRboisoAADQAgWUAAADYuqE07+QTn1Wko1tZ2HUVJbvBuizKvlJy4KMAAAgAElEQVRhkvfWqX+jWrrkoPHp6SdPzExddOUNN2xqOxtsdc0112wcn+m+ZK7TOSmpLms7zyJWp8obdlu54lETGybG2w4DsJiMj4/fOD499at16mcnubntPItJnUwl9S+PT08/eXJycqbtPAAAwOKlgBIAYIBMHnP6F9OpfyGKKGlQnbEPtp0BYJGYTJU31HXnCXvvv9/BE9PdX5+cnv7n8fHxH7UdDLZnamrqyonpqUelynNTZ33beRaX+qqkPn2i232RJbsB2jM5Pf2e2SpHJ/W7k9Rt5xlxm6sqL5urcvTE9LQHPgEAgNYpoAQAGDCTx5z+xarq6ERJQ6qpqeMeeWXbKQBG1Ma6ykfrKs/PkrFVE9Pd1RPd7osmZyYvtTw3Q6ie6HbftfvKFQ9MXZ2T5Ma2A424O6oqL6uWLj15Ynr68rbDAJB0u93vTUxPn11VeVySq9vOM4LmUuWisdktDx7vdi/odrt3tB0IAAAgSZa0HQAAgJ80cewpl62+6ktn1fXcfyRZ2XYehlhdv6/tCAAjZGNSf7muq0uTzmXLVy7/io5xjJr59/TbV61a9b4l6fxxVeXcJHu1nWvEfCKzYy8at1w3wEAa73Y/e9JJJ514y00/PCepz09yQNuZhlyd5MOZGzt/Yv3EVW2HAQAA+HEKKAEABtTEsadctvqblz+xTv0fcdOaBZqra8thASzcjVXqL8/V1RerzF06MTNzRZK5tkNBP8zMzNyc5E/XrFnzirtvv/P3qyp/nGS/tnMNuavr1OdNTk9/vO0gAGzffDfxN61Zs+ZdW+6447w61UuqZEXbuYbQxfVc588m109+re0gAAAA90YBJQDAAJs47tTLV3/z8rMUUbJA13WPP+3LbYcAGBK3JtVVqeq1mavWVpldOz4zc3VKxxxYtK655pqNSS5cs2bNW+6+/c7frpJzU+VBbecaMtOpcsFEt3tRFGEDDJX58+CfPfjQB79+btldL6jr/EGSfdvONeDmqtSfqKrq5d/pds1JAAAAA08BJQDAgJs47tTLH3jlZU+cq3JxFFGyE6qq+lCqSuEPwE/6Xup8I1W1ts7c1+eqam232+22HQoG2XwByeuTvHH1EUecmTovTPLEJJ12kw2uKvl2XeXCffbb7z3zncwAGFLXXn/tTUkuOOqoo15bzc6+IKnOTXJI27kGSZ1squq8u6pnXz2+fv1E23kAAAB2lAJKAIAhMH78aV9afeUXHldXnUui0wE7qrJ8N7CY1VuSaiapJ1NVV2euWlenmqzH6m9OTU3d0HY6GGJzE93uxUkuXr169f2rLVt+s051dpI1bQcbIF+qU//NxPT0h5LMRX02wMiYnJy8NclfHnPMMa+6c+Pmp9TV3O8l1ePbztWmKvn2XJ1/vGtuyzs2bNjww7bzAAAA7CwFlAAAQ2Li+EetXX3lF56giJIdUSc/WPX9uz6v5QMw4m5Msj7JTKrMVHU9PZd0x5JvLdtzz4l169bd1XZAGGUTExPrk/xVkr964AMecEpdVc9InacmeUDL0dpwa53qPXUnb5uamrqy7TAA9Nb8deb7krzvyCOPPL6ay3Oq1M9McmjL0frl5qT+QJJ/GJ+evrztMAAAALtCASUAwBC5RxHlJ5Pcr+08DK4q+chnH/vYLW3nAFiY+qYq1U116puS6qZU+X6VfDd1vX627szUnXr9li1bpjds2HB720mBYnx6+ktJvpTkxatXrTop1dgvJ/WTkhyXpGo3Xc/cleRTqfJvK26//X1X3nDDprYDAdB/84Xzf5TkvCNXHfm4sap+Vp08KckBLUdrVJ1sqpKPVnPVe3fba4+LPawEAACMCgWUAABDZuL4R609ct3lZ1Vz9QeT7NF2np1QJdmn7RCLRV3NWb4b6Keb7/kfdXJLlWxOlc2p61uT6rYq2VxXuS11fWtVVZvruWxOqluq5OZ06u9nbu6m2bGxm6ampm5KMtvS6wAaMDEzszbJ2iT/+4gjjjh4yVz1+LqaOzOpHpfksJbj7arNSfWZVPX7756b+/eZmZmb7/ufALBIzE7NTF2S5JIkY0etOuqUqpr9pSRnJdUxGcIHCupkqkr98VTVx+eSz3a73TvazgQAANC0ofthDQAABsUx69Yt2zj7wxVt5/hpZo47/dZU1VzbOeC+HH744cs7nc7ubedgx+1z55136bIGLNTq1avvn9nZU5OcUtd5ZFU6VA7yQ0GzSX1FXVeXVFV9abV06WXj4+N3th1qRxx/0EErbtltt2Vt52jDsmXLNg/L12k7qlWrVnkAbV6n07ld4RbDbPXq1QdWd8+dkao+o05OS+qjk2oQm5zM1Kk/X9WdL8x26s93u91vtx0IAACg1xRQAgAAAABtGTvqqKNWd7bUJ9TV3PGpqjWpszrJUel/9/I7k/o7Sa6o62ptlbmvrbjzzv9SNA5A0w499NA9li9demLq6uRU9XFJfqZs1f79ylC6S+YbVZVvzNX1lRkb+9rk5ORMv/YPAAAwKBRQAgAAAAAD52cOO2y/uzq7Hdmp6kPq5JA69SGdKgfVVfavkn3m6uxVJXsl9cqk2toVvMq2wss7k2xOMpfk1iq5q65yY+rclDo3pKpvTN3ZkGpuvB4bG5+cnNww/3cBoBWHH374/ZYuXfrAztzcYamr+6eqD6+TQzrJPnU6+yb1Pkm99z3Oe0uSrMz8ua78Ub0pdXV7qvygSn1TXVc/SFXfmHSm68xNjSWTd1fVlK6uAAAAAAAAAAAAAAAAAAAAAAAAAAAAAAAAAAAAAAAAAAAAAAAAAAAAAAAAAAAAAAAAAAAAAAAAAAAAAAAAAAAAAAAAAAAAAAAAAAAAAAAAAAAAAAAAAAAAAAAAAAAAAAAAAAAAAAAAAAAAAAAAAAAAAAAAAAAAAAAAAAAAAAAAAAAAAAAAAAAAAAAAAAAAAAAAAAAAAAAAAAAAAAAAAAAAAAAAAAAAAAAAAAAAAAAAAAAAAAAAAAAAAAAAAAAAAAAAAAAAAAAAAAAAAAAAAAAAAAAAAAAAAAAAAAAAAAAAAAAAAAAAAAAAAAAAAAAAAAAAAAAAAAAAAAAAAAAAAAAAAAAAAAAAAAAAAAAAAAAAAAAAAAAAAAAAAAAAAAAAAAAAAAAAAAAAAAAAAAAAAAAAAAAAAAAAAAAAAAAAAAAAAAAAAAAAAAAAAAAAAAAAAAAAAAAAAAAAAAAAAAAAAAAAAAAAAAAAAAAAAAAAAAAAAAAAAAAAAAAAAAAAAAAAAAAAAAAAAAAAAAAAAAAAAAAAAAAAAAAAAAAAAAAAAAAAAAAAAAAAAAAAAAAAAAAAAAAAAAAAAAAAAAAAAAAAAAAAAAAAAAAAAAAAAAAAAAAAAAAAAAAAAAAAAAAAAAAAAAAAAAAAAAAAAAAAAAAAAAAAAAAAAAAAAAAAAAAAAAAAAAAAAAAAAAAAAAAAAAAAAAAAAAAAAAAAAAAAAAAAAAAAAAAAAAAAAAAAAAAAAAAAAAAAAAAAAAAAAAAAAAAAAAAAAAAAAAAAAAAAAAAAAAAAAAAAAAAAAAAAAAAAAAAAAAAAAAAAAAAAAAAAAAAAAAAAAAAAAAAAAAAAAAAAAAAAAAAAAAAAAAAAAAAAAAAAAAAAAAAAAAAAAAAAAAAAAAAAAAAAAAAAAAAAAAAAAAAAAAAAAAAAAAAAAAAAAAAAAAAAAAAAAAAAAAAAAAAAAAAAAAAAAAAAAAAAAAAAAAAAAAAAAAAAAAAAAAAAAAAAAAAAAAAAAAAAAAAAAAAAAAAAAAAAAAAAAAAAAAAAAAAAAAAAAAAAAAAAAAAAAAAAAAAAAAAAAAAAAAAAAAAAAAAAAAAAAAAAAAAAAAAAAAAAAAAAAAAAAAAAAAAAAAAAAAAAAAAAAAAAAAAAAAAAAAAAAAAAAAAAAAAAAAAAAAAAAAAAAAAAAAAAAAAAAAAAAAAAAAAAAAAAAAAAAAAAAAAAAAAAAAAAAAAAAAAAAAAAAAAAAAAAAAAAAAAAAAAAAAAAAAAAAAAAAAAAAAAAAAAAAAAAAAAAAAAAAAAAAAAAAAAAAAAAAAAAAAAAAAAAAAAAAAAAAAAAAAAAAAAAAAAAAAAAAAAAAAAAAAAAAAAAAAAAAAAAAAAAAAAAAAAAAAAAAAAAAAAAAAAAAAAAAAAAAAAAAAAAAAAAAAAAAAAAAAAAAAAAAAAAAAAAAAAAAAAAAAAAAAAAAAAAAAAAAAAAAAAAAAAAAAAAAAAAAAAAAAAAAAAAAAAAAAAAAAAAAAAAAAAAAAAAAAAAAAAAAAAAAAAAAAAAAAAAAAAAAAAAAAAAAAAAAAAAAAAAAAAAAAAAAAAAAAAAAAAAAAAAAAAAAAAAAAAAAAAAAAAAAAAAAAAAAAAAAAAAAAAAAAAAAAAAAAAAAAAAAAAAAAAAAAAAAAAAAAAAAAAAAAAAAAAAAAAAAAAAAAAAAAAAAAAAAAAAAAAAAAAAAAAAAAAAAAAAAAAAAAAAAAAAAAAAAAAAAAAAAAAAAAAAAAAAAAAAAAAAAAAAAAAAAAAAAAAAAAAAAAAAAAAAAAAAAAAAAAAAAAAAAAAAAAAAAAAAAAAAAAAAAAAAAAAAAAAAAAAAAAAAAAAAAAAAAAAAAAAAAAAAAAAAAAAAAAAAAAAAAAAAAAAAAAAAAAAAAAAAAAAAAAAAAAAAAAAAAAAAAAAAAAAAAAAAAAAAAAAAAAAAAAAAAAAAAAAAAAAAAAAAAAAAAAAAAAAAAAAAAAAAAAAAAAAAAAAAAAAAAAAAAAAAAAAAAAAAAAAAAAAAAAAAAAAAAAAAAAAAAAAAAAAAAAAAAAAAAAAAAAAAAAAAAAAAAAAAAAAAAAAAAAAAAAAAAAAAAAAAAAAAAAAAAAAAAAAAAAAAAAAAAAAAAAAAAAAAAAAAAAAAAAAAAAAAAAAAAAAAAAAAAAAAAAAAAAAAAAAAAAAAAAAAAAAAAAAAAAAAAAAAAAAAAAAAAAAAAAAAAAAAAAAAAAAAAAAAAAAAAAAAAAAAAAAAAAAAAAAAAAAAAAAAAAAAAAAAAAAAAAAAAAAAAAAAAAAAAAAAAAAAAAAAAAAAAAAAAAAAAAAAAAAAAAAAAAAAAAAAAAAAAAAAAAAAAAAAAAAAAAAAAAAAAAAAAAAAAAAAAAAAAAAAAAAAAAAAAAAAAAAAAAAAAAAAAAAAAAAAAAAAAAAAAAAAAAAAAAAAAAAAAAAAAAAAAAAAAAAAAAAAAAAAAAAAAAAAAAAAAAAAAAAAAAAAAAAAAAAAAAAAAAAAAAAAAAAAI6pqOwAAAAAAAADspHVJDmlorLOSfLmhsQAAABgiS9oOAAAAAAAAADtp7yT7NjSW+2UAAACLVKftAAAAAAAAAAAAAAD9poASAAAAAAAAAAAAWHQUUAIAAAAAAAAAAACLjgJKAAAAAAAAAAAAYNFRQAkAAAAAAAAAAAAsOkvaDgCwQL+Y5N1th9gFW5JsnP/9LfP/fUOS795juz7Jt5JMJplrISMAvfW7SV7ZdohdcFeSTUnqlHPZ3Snnsuvmf71+/vffStJtJyIAAADQkPOTvLjtEEPomiSntB0CAAC4dwoogWG1LMm+bYfYRQfs4N/bnFJ8clWSK5J8Jsk3UwpWABheu2f4z2U7amOSq1POX19P8umUGwgAAADAcFhM8xhN2rPtAAAAwPYpoAQYfHskOWl+e878n30/pZDy00k+lOTGdqIBwA5ZmeQR89tW16Wcxy5J8pEkt7aQCwAAAKCXZtsOAAAAbF+n7QAALMiBSZ6R5G0py31fkuTseJoVgOFxWJLfTHJRypLfH005l+3RZigAAACABs21HQAAANg+BZQAw28syeOTvCvJ9Ulek+TwVhMBwM7ZLcmTUs5lM0lelmT/VhMBAAAA7DoFlAAAMOAUUAKMlpVJXpJkIsk7kzyo3TgAsNP2S3J+km6S18VDAQAAAMDwUkAJAAADTgElwGhaluR3klyd5PUphZUAMExWJHlRkmuTXJDSpRIAAABgmMy2HQAAANi+JW0HAKCnliT5gyS/nNKZ8v3txoGR8xdJXtDQWH+d5JUNjQWjZHmSP0/yzJTvt0vbjQMA/JhHJvlEQ2NdmeSMhsYCABgEOlDy70ke1dBYv57k4obGAgBgngJKgMXh8CTvS/LeJL+X5LZ248DIWJ5k3wbHAu7dmiSXJHl7khcmuavdOADAvCVp7pp4r4bGAQAYFDpQsmeau15e2tA4AADcgyW8ARaXZyX5WpJj2g4CAAv0e0kuS3JEyzkAAAAA7osOlAAAMOAUUAIsPmuSfCnJk9sOAgALdHKSryQ5te0gAAAAANuhgBIAAAacAkqAxWllkg8leXbbQQBggQ5IWdL78W0HAQAAALgXlvAGAIABp4ASYPEaS/KPSZ7bbgwAWLA9knwsyS+1HQQAAADgp9CBEgAABpwCSoDFbSzJ3yX51baDAMAC7Zbk35I8uu0gAAAAAD9GASUAAAw4BZQAdJJclOTktoMAwALtluSDSY5qOwgAAADAPVjCGwAABpwCSgCSZHmSDyQ5sO0gALBA+6UUUa5oOwgAAADAPB0oAQBgwCmgBGCrVUne3XYIANgFJyR5c9shAAAAAOYpoAQAgAG3pO0AAAPi6iTX93F/e6QsN7pvkoMyON2yzkzym1FICTCMrkjygz7ub88kS5Psn+SAlHPbIDg7yT8lubTtIAAAAMC9+lKSTW2H6IP/ajsAAACwfQooAYpXJ/mHFve/PMmRSdYkeXCSRyQ5NaW4st9ek+Q/ktzUwr4BWLiXJvlki/vfM8nqlPPYmmw7l92vzzmqJG9NclyS2/u8bwAAAGDHPC/JurZDAAAAKKAEGAy3p3TBvPrH/nxNkqckeWqSR6YUhfTa/kkuTPI7fdgXAKPjtiTfmN+2qpIcn3Iue1qSE/uUZXWSP03yZ33aHwAAAAAAADCEOm0HAGC7rknyypQOXg9J8sYkG/uw37NTOmICwK6oUwoq/yLJQ5M8LMnfJ7mjD/v+gyT79mE/AAAAAAAAwJBSQAkwPK5JKQY5IqVD5J093NeSJOf1cHwAFqcrUjocPzDJ25PM9nBfeyV5YQ/HBwAAAAAAAIacAkqA4fPDJC9N6eL19R7u57eSHNbD8QFYvK5Lck6S05J8p4f7eVGSPXs4PgAAAAAAADDEFFACDK+rk5yS5A09Gn+3JL/bo7EBIEm+nLK093t7NP79kjyrR2MDAAAAAAAAQ04BJcBwuyulu9YfJal7ML6iEwB6bVOS30jyqh6N71wGAAAAAAAA/FQKKAFGw2uS/K8ejLsmpTMYAPRSneS8JK/vwdiPSXJYD8YFAAAAAAAAhpwCSoDRcWGSd/ZgXJ27AOiXP0rysYbH7CT51YbHBAAAAAAAAEbAkrYDANCoFyc5I8kDGxzzCQ2O1U9LkhyY5KAkh87//sD5/7d3SkHN7kmWp3Q+u2X+/92S5LYkG5LcMP/rdUnm+hV8yOyT5GdSupUenOSQlOO8PMme9/h7s0l+lOTuJD9M8t2UY7s+yUySqTjGQPms+J0k65Ls3+C4T0hvulsOg2VJVid5UMrn9MFJ9kj5jP5skve3lmxh7pf//loOTLIiydJsO+/cnHJOuTXJliQ3Zdv5Zn2SO/sbeWjsm3JOf3DK+Xzr8b23c/pdKcf6+pRz+oaUYzyZcm3FT1qa5KgkR6Qc2wPmtyrJXknGktye5I4km1KO8cb892umH/Q7NP/NkiSHJzky5Wu4d5KVKZ+rK1Kujbek/Dxx+/yv1yWZnt++G98f0IalKd+zh6bMERycZL/5/7dPyufw8pQ5gq3nua3zBD9K+T7+3vyv18f3cdv2SfkcXpVy/bJHymfx3vO/X57ydduS8jW8OeUcOpOkm2Rz3xMPt4NSrhEflNLZf+v1y8qU761k27X3xpRz38aUa8Krknw75esBANALB6dcqxyebXMty1J+Rv8fLeZaiKUp17lb5xwOSJkj72T780bXZdu85019Tw0wIhRQAoyWTUnOSfKpBsc8LmUS+tYGx2zSkiQnJDk2ydHzvx6TMpFeNbSPzUmuTnJlkm8k+XTKJPBiU6Us6f7o+e0RKTegmnBbkm+mHOMrknwuZZIdWHy+n+QPk1zU4Jinpkw0NVWofXqSjzQ01m0p56ym7J/k51M+p09JOTeO3cvfvSODXUB5aMrX7pFJfjbltTRRWPvdlPP4V+e3r6QUQywmnWw7pz8mycNTiiabsDHbzulfT/L5JNc0NPYw2S3lffuIlPfwiSmFk7s6D7M5yXeSfC3b3r9XpTykMoz2T3Jtg+OdkHLDoCkPSXlA7eEp3zNHZ1uxyELckvJ1+3KSy1N+rlDUDc3ZLeXzduu8wLEp38eHN7iPjSmfu99MOc99OuVzeZj9TZLfamisf0ryBw2NlZQivdOTPCrJw1I+iw/c7r/YvrmUuYavpHwWfzKl0I+ik3L98riUnyVOSTPX3zMpD8l9LuV7Zm08RAs74nMpc/NNeHGanWfph9cmeU5DY70mycsbGosd8+tJ3tTQWFenXA8Mk4ckuayhsTYluX9DY+2ozyY5vqGxXpLkXQ2NNZYyz3JmylzLI1Iervlp6gx2AeWylLmGR8xvJ6YUTu7qvNHtKfMsa7Nt3uibGd55IwAA7sPTUi5+m9qamigeFJem2ePz8/2Nf58ekjIh/5Fs6wzR7+36lEmnp6T8oDOqqpQbFW9IuRndz2N8XZJ3J3lumu1E16RXpbnX++d9zk77XpBmv2fO7G/8nuqk3GBr8vgc22C+xzaYq4luLHsneV5KodqWndj3qxvYd5OqlILJC1MeWOjnOWcipXjg9JT33yiqUool35Ryju3n8d2Qct10drZ1/BpFByV5fso16m3p3/HdlOTDKTcX79fzV9msA9PssXjALubppBSNvCXbusz1crs1yb8k+ZXsWmFm205Pc8fk633OznCrUm40/s8kF6d8Hvbz/LZ16yZ5R8rcyb09uDLI/jbNHYt3NpDnkCQvTLlxf3eD2e5tuyLJ+SldohejTkrH/n9IWYmlH98zG1JWCDipgfwbGsx1WgN5Rt1fpdn3wjH9jT90rkhzx/p5fc7ehLeludffdvHkp9Lca3lyn7Mv1G+ludd8ZZ+zN+HYNPf6N/Y5e1J+Lmsq/+81kOfUJG9PcuNO7HcQH9Y4MKWo899Tvq5NHeP72jbP7/O5Ge15OQCARUkB5fY1WdhRJ/mL/sb/qdYkeVlKZ4d+/VCxo9tNKcUITRbntG1lknNTnu5s+/jWKQVBl6R0WN2VbhNNU0DJrlBAuX3PTrPHp8knjgelgPKoJG/MwosFBqWA8oiUa42JtH++qVM6VL4hZZnCUbBXyoMn3077x7ZOKYT4z5QbeIP6gMTOWJbkWUk+kf4UeezI8b0kya9lOIp4BqWA8sAk/zulCKqtr936JC/N8BXBJgoo6b8TU34W6/dDfjuyXTefbZiK8QahgLJKKUD9cNo7n84m+WDKAyeLwYEp82wzafd75ispXcoWet2igLK/FFD2lwLK5l6/Asr+U0DZ3OtfrAWUy1IeFP3mAvc7KAWUS5M8I8nHMzjzRpcmeXqsVgvw3/hQBBhNn025+XdEQ+M1tVTIzlqZ8gPSc9PMU+m9sl9KseHzU57ienmG98bfHilFXedlsJ5EG0vy+PntTSnH+W9Tln6qG9rHnindx3bGIxvad1Imv5paEn17Lk9zS2ZAL30wpQPYyobGG6Ui9wOTXJByA2SYf6Y7PWUZsadmsAq9Dk7penRuyuTma5N8ptVEC7MipXDyj5Ps23KWe1qSUvB9ZpI3pxRK/G3K9WtT5/R+2D/l2u/5aW758yYsybZrpm5KkfU700y321F0QJI/SSmyX9FylsOTvCKliPLlKYXcd7WU5bwkq3fi7x/c4L7vn3KzvNc2JfnDPuyH5uyX5HdTuhkf3XKW7Tk0pSPmi5P8c0qx0TWtJhp8T0p5oPDklnN0Uh7YflpKocuLU5ZrHzWrUh4aODvJ7i1nScqS4e9JeQ/8aZIPtBsH4D4dneRFO/lvfqbB/Z+bcu7stX/JcM6FMPyqlIdCX5Hheijpx+2XMtfw++nPfZ8dtSTJz81v09k2b3Rrm6EAAFg4HSjv2yvS3PH5rz5nX51SrHBrA9nb2OZSlp4epE6JO+KZ6c9ShU1u306ZNNqtgde//wC8nn5sf9/AsaIZOlDet4vS3PH5eIO52upAWaVMvN3S0L7b6kD58CSf3MGMg7J9Nu09ULIQz07yvbR/3HZmuzrl/b2sB8ejSXundGv6Udo/Zju6/TBlwn6QCpW3aqsD5ZKUm543N7z/JrdrU843bfjiDmYc5u0HjR0teu3YlOX6Nqf9981Cti0pNyX3avrANKitDpRHp3RNbvtrdG/b3Slfuz124jUNsn2SXJjk9rR/bLe3/Ud2rohfB8r+0oGyv3SgbO71N9mB8swGcw3y9sJdPE46UDb3+hdTB8o1ST7X0H7b6kC5MuXBkGG6v3lzyvf8MD+oD7DLOm0HAKBnLmlwrCMbHGt7fjalC9G1KU/6D/INhu2pUgoXvpXkt1vOsiMOS/LRJO/NYHVQ2hFrUjpSfidlee9BL7oAds4wnst65fCUIr6/TSngGkaHJfnXJP8vyRNazrKzHpMyefy6DPbxX5WylPS7kxzUcpad9ZCU9/e1KR3GlrYb5yd0Uq41JpKcn+a64/bDvindPr+a5NSWswyCB6d05H5dSjHJoHpQyrJafxE3MVicHptyLXhlStHH8nbjLNhYyoNT30rpuk05p/5JSmHQ41vOsj1LUr52X83wd7N/RsoDqOdlMLpObs8TUzp/np/Bux4EAHqjSvKSlGYuj245y0J1UuazJlNWDhqm+5v7pKyC8bUkj2o5C0BrFFACjK4vpzwt34S90tvlnE9OKeD7SpKnZHTOT/dL8ncpHdQG9WbPY1NuWvRj2Y9eun+St1eBYn0AACAASURBVKbcEHhKy1mA5nyxwbGOSJmMG0aPTyneG9YJxLGUZVK/leTpGd6vw9aOdesymEVoT0h5n5zVdpBd9IAk70h5vwzK9clDk3wp5Vqjl9fEvfbQlM/VC7N4C/J+I+X75GfbDrKDOkn+LKWIbJCLPaFJZ6Q8NPLplGugYb1u+HGHJvlQktdk8X4GJ2Xlh0uT/HWG5wHIo1Pmq57ZdpAFODBlvu1fMlwP1+ye0vH7kiQHtJwFAOitlUk+kHKdPOgPetybE5JcljKftX/LWXbFCSkdQF+dxf0zC7BIjUqBCgA/aVOSaxoc7/AGx9rqYdlWODkoN8h74TdTfnha1XaQH/OClCVUR2ky+siULqYfTimqBIbbVMoSIk1YnuEsfHpuSkfBYf2sPiLJZ5L8TYarY9/2HJbyml7QdpB7eEnKcofD+B6/N6tTrhPfn3LM29BJ8tKUrqkPbylD06qU7lOfTCmqWCyqJK9I8k9JVrScZSHOSLmJcXDLOaCXHp1SOPmZlM7Po+olKUVho3TO3lHHpMz/PLbtIAuwPMl7kjy/7SA74bEpXZyGeb7tMSkdQB/adhAAoCcOSfL5JE9rO8gCdZL8cUpDm0e2nKUpVZI/SnnoyRwEsKgooAQYbZMNjrVng2MdluQfUyZBn5TR6SixPQ9Nuek5KEvIvjjJGzO6T5E9Jc0u/Qu0Z1DPZf3w4iR/n+Fduu6XU27ajuLSL8tSzqPvSvvn0vNSntIfazlHr/xKkotb2O+BST6VUnQ3LB2ydsZjUzoxnth2kD7oJHlbSjHsMDs+pYNoWwXF0CsPSvLBlJ+XR7lw8p7OSOmwOawPyCzEoM2JLEQnyVtSbpIPuhelzIkc0naQBjwg5fw3rIUVAMBPd/+UxiPDOi9xQMr11iuT7NZyll54TJK1KY1wABYFBZQAo63b4Fh7NDTGn6d0xnxOFt956IiUGwarW87xvJRCi1H3lrYDAI2YanCsYeo6dk7KZ/UwPmTQSVly7/1J9m45S6+dndKNqK0iynNTlmMedW/u8/4elvKgzxl93m+/HZbSUeCEtoP02FtTrn9HweokH8vodPRlcds3pUP1VVmchVHHp3TbHKZllRfq+JSHEkal6+aFSX697RD3YizJm5K8LqP1cM0eKcuQ/0LbQQCARhyScn04rA/XnJjSWf1xbQfpsUNTikQVUQKLwmIrXAFYbJpa9jTZ9aKTI1MKJy9oYKxhdv8kH097BSUnp3TMGsaCnJ3x3STvaDsE0IhbGhyriYcB+uFJKQVjw/hZvTTJPyc5P8OZfyGennaKKE9J8to+77MN65P8Qx/3d1aSLyRZ1cd9tmm/jHYR5QUZneLJrU5MKSIZpcIYFp+TknwnyR9mNLv87qhjknwoo9mxZqtVST6RUjA7KqqULvGPbjvIjxlLWe3l3JZz9MqylAe0zmg5BwCwa/ZI8tGUTvTD6MyU7thHtJyjX+6XUkT50LaDAPSaAkqA0ba5wbF2teixm3IDnGRNSqFFv8/DK5P8W0b75sxWr0pye9shgEZsanCsYSjgPyalAHEYC2OWJ/lwkme0HaQFT09ZIrhf9knyrxne5d13xoVJ7uzTvp6e8h4elmLrpuyfMhk+rJ0f7s2vpXS/H0W/kOFfkpzF7ao0+8DnMDslo7t6wu4p59XD2g7SA7ulFLMPSlfNTpKLkjy77SA9tjzJ/2fvvuPsqKv/j7+y6aRTQpXee+iCCIJ0pENUOoJ8QaoiICiCoCCCFEGk96IU6b2FIgFCJwRIgEAIpEF6z2Z/f5y7v2yWLffeOZ/5zMx9Px+PeaDonjlzd/bOzOdz5nweBDaNnYiIiIhU7Sbshao82hcr/szDGLOnxiLK2KvriYgEpQJKEZFim+UYq8Hh548H5jvkUgS7AaemvM/fUbyJ8ZaMJd0iFhEJy7NwKum1LLRu2ERsHpdm7YJNkNfysnpHAMektK/fY12ti240cH1K+9ofK16u1U5oSwD3YoUJRbAqcF3sJAI7C+tGKZJHs4GTYieRIUcAh8ROIoBLKHanmqWxrvFZcAnZXVbcWy+sE+WisRMRERGRih2Djb/k0d7Yy8y1Om60GHAftffSsYjUEBVQiogUm+cEqEcHsDco/kRmJc7CJnfTsCJwckr7iu0ifLuvikhcnteyrH83/BVYN3YSVeiIdVbeMXYiGXAp1kkqpFWxl1JqwYX4vhDUmh2B28hn51dPA4B/xU7CQR1wM9A7diKBdcGOs9bPW8mvR4CHYyeRIX/HitmLYlfg/2InkYKBWCeimH4NnBA5h7Qtj71k0yF2IiIiIlK2NYGLYydRpe2BO9Hz9/rAtbGTEBEJpVPsBEREJCjPNvJeRSdnAvsR703xSdhkYxbekuqOTVL/OIV9nYx1NgtpIvAh9hlPK209sc+6F7ACtnRXyPuP8cBVAeOLSPo8r2Wey4F72ww4LnYSVboYu7bHUA+MwX63U0v/rgt23vTHrkNp6gLcjRXCTgq0j98Q/m33b7Fr+mS+e03vjU1aL0fYgeOvSWdQdj2s82KsDgKTgW+AKdj5DNAHO4eXIv3CgEOAQcANKe/X03HAlrGTSMn6wGGk16lVxNvJwA7Ycshpa8Cu1d0J/6xcjsWwe6oidKLsRTEK8st1Abas9NwI+94We+GkFu0F/Cp2EiIiIlKWDtj9YR5XvVgH+C9xnlnAxosmYOOe80r/rg82Rrc06Y8b/RwbN7om5f2KiASnAkoRkWLr5xjLq4ByAtZ58QqneM19ArwKvA18BnwKjMIeMpovA9v4gLEM9vbbOsBWWPedtN4k2760PRNwHz0IMwkzDXgIeAB7YBpTxs90xpYcHQBsDGyKderyKpC6mGwXSIlI5bJ4LfNWhw0i5nGFgEOBE1Pa1zzgxdI2BHgPW+K5rcnqfsBKLLjm7IB1ZQ5pWeAvwLEBYvcGDgwQdyo28f8gdk0fW8bPdMYKKQcAm5S2LfC7pv8NmOkUqzWLYkvPp1VoOxJ4EngNeBO7T53cxv+/C1aouh52Dv8A2JrwYzkXYV3hxgXeTwiLA3+KnUTKzsaWnw/99yISwgjsGe6MALEbgI+w8YF3se/cz4AvsevenGb//57YNXxpbHxgPew7d13Sm5Q8EOtIPjSl/YVyBvbcXytWBY4C/pnyfpciG52QJmBjcWOwcbdJ2HNNH6w4eRlgFaBvgH3/DZgfIK6IiIj4OhjYJnYSVeiHFU/2Sml/n7Ng3OgNyhs3Wpbvjht1Dpsmf8XmBr8OvB8RERERKcPe2GC413Z4uumn5iH8PqMNHfPqiBU4euQ1AbgV2B+/5a76Yp1cnsYGYj3PtZa255zybs0hzvnOwjoceH3eXbCuCX8B3kqQ1wSSFUAsnmDfedry3FGqaI7D93db1OWT38TvM/L63vqRY05TsEHEGN8HFyX8HDbACnZC5/kyVqjpVUy7PtYpaFzAnOuxYkJvRzrnORM4H+t65aErsB32+b6TIK8xhO8W3gF4NEGO5W7jsfum9Z3y7od9Z7wUOO9bnfJtT3/nvB9wjpeX7fhKP/h2hD6/srB94/ZpSVI9gC/w+b1+jXVC2QO/Yq3+wDHA/5xybG+73SnvSlyVIN/m25PYS0ux/8bT3kYTfqK6uQedcq9km4/9LfwJe/6s5O9scWB37D5xSITcy9m2quB4atVf8P3M10k3/dxJMk7afDsq5dw9XI3f8Z/nmNeOjnlleUv6jHG4Yy7vJswlhnXxO/6ppM9zPPYE/O73K9mSvmTRAd851ta2CdhLIV5zsH2Bg4AXAud9p1O+IiKZoQ6UIiLFtpJjrK8cY9VjD+CDqK6Tw0xsqcWbgOdZsNyhl0ml2DdhxSFnAfs476OpbYHNsc4YIeziGGs0sC++uc7Bfo/PY50qVsWWgt0f2KiCOH/HumJWax72Vl8llgOWTLDPpr4inTf2Pk9hHyKevK5ls8lmsURH4JzA+xiPXdsms2BZ6X5YB6ZqdQNuI+ySl48Af8AmjTy9W9r+iL0wcRbWGcdTY1fRjfG9T/G8po/C7m+GOMacDTxb2k4HVmfBNb2SgeCLCN8x9lf4fp7NfQWcC9zId7ugJzERK268Fev+eS6wm2P8Rgdh98Ihu6SHsIdjrHnAMKxD3kis6Hoq1vW2M9aBYimsE+ta2Pkeq5PwMViH/waneB9R2fd7T2ANp33PwD730KaksA8pz3TgFODfVf78lNLP3gQMxr8b3TiswPAqYEvsvu3HzvtoaiBwJva9k0c7OMcbi30nfILdu05jwd9vb+z7Z8XSNqD072JYBnvZ+z8p7e8g4Ccp7Qus6OFqrMC32jGFCViH64dL/311bAnIo7HrqYhIXkyh8jHk1fHrYDeCtjvSecnjigSSTUcTtjv5TOx8bRz3nIMtFZ50ye2jsZc/QvkaK+6+AWta4mUSNmZ7Gza/eS5h7ht/io15PRkgtoiIiIhUQB0o27cI9qDg8flMJ8ySVbdVmMdwbHKwT4Bc2rMTNlgf6m2tKwPlXYcVznjkOAObHE7TAGyQfko7uX1DnImSv7WTVyXbH1POXeJTB8r2rYjf5/OxY16eHSg9t3lYMdwlwAFYwZrXcsrNXRTwOIZjn3FaFsG6MM5zPo4GfJfb7ogVz3nkNQ1YzTG3cmwMXFvad1u5jSPcedtoDez+NsT5Oxf4M+E7aDa1HVZY4n0sg1PI3bsDZdLtY+z3ty2V/w77YJMS12H3pmnnnub3ZnM/aCOvSrc3U85dsuNZKjtX3sE6VKf5fdtoIGH/zn+f3qEAvh0ok24zsWUSD8WWfa5EHbA28FvS6xjadHu2wnyrtShWjJjGMY0AjiBsd81uwLHYyz2xzz91oGyfOlCmSx0o/Y7fswNlNZ7B71jSLKBPQh0o/Y4/7x0oPbevsRdWjsee25cLdPyr0v74VbXbXKwjd+ixr6a2wcZbvY/F86VsEREREamSCijbty1+n8/QQDkuQ/uFcQ3YG50HYIUDMfUnXNv7cYQZkF7DMcdTAuRXrl6l/Y9pIa8GrENZDCqglCRUQNm+A/H7fDzfhs1SAWU9NhB/JDaZmoYNsMG+EMdzBXEKIcC6QX9WRo6VbO/j15FuPce8TnTKqRp9sO6UY1vIqwE4LYUcnmpl30m3j6mse7anHljhnvcxheyyBtkooJyLLT21ueNxdce+l0NMULS2pbXsektUQCke1qG8+4sXgF0J85JnJVbCijhD/D2HGoNpTRYKKEdgE+GeL0ZugHXFCfGSTEvbfGBlx/xbc0kKxzIHKzYK2W2+uZ7YyiKhnjPK2VRA2T4VUKZLBZR+x68CyvSpgNLv+Gu9gHIU9iL3JkGPeGGPBziOBuyed9MUj6OpRfD9Xm3cdk7zIERERETku1RA2b5z8Pt8Hg2Y56lt7Hc4tuxj7ImRproDjxHm4WmnAPnu4ZTbbGCxAPlVqjtwAvamYWNuE4nTlRRUQCnJqICyfZ7FQNc65pWFAspZpc/Ha8nUcnUAXkyYe2vHk4X7sf7Ay/ge2z5Oue3nlM9M4l03m1oEOJmFCyknYJPnIe2Pz+fYfHsc6Bc493KciG+hyPOB841dQHkvYYtdumCd0GakcCwTiPfCmQooxUtbhWFvk7373X5Yt94Qf9PrpXgcMQsox2AdDkN+f20AvJTS8ZwQ8DjAloD1Wm2mtW049pnFsjm2ZHiM81EFlO1TAWW6VEDpd/wqoEyfCij9jr9WCyjfBn4OdAp8rM15zz83bk+R3svvbTkO3xdWXko3fRERERFpTgWU7RuG3+dzacA8uwAfNtvfBKzzQMglgpJYBGtN7/0AdX6AXH/rlNugALkl0Rv4K1bYeXbEPFRAKUmogLJtnfFdGvG3jrnFLqD8L7a8eQwhis+mAzukeRDt6I7v5MarTnmd6ZTPU075eOmDdRKYA5wReF9dgJH4n8O3k/6Aflt+jm8R5RYBc41VQPkVYV5eas06WEe50Mf1g7QOqBkVUIqXPnx31YEvgcPw6+jsbTGsk4z33/PxKR5DrALK60nvpY6O2IvG9YGP6YnAx3FT4PwfBvoGPoZy9AeeI/1zUgWU7VMBZbpUQOl3/CqgTJ8KKP2Ov9YKKL/CViWK0VilM/BJhfmWs91FtuY7B+I7bhRrLEJExFVWB55ERCSZjYE1HeMNdozV3BwWXkbyDmBt4B/YW1BZNAPrJuX94PpD53hgy6R7GOUUx8sUbInPdQhb4Csi8eyM71u5Ia9laRkH7I69SDIywv474l+0PhNbhjNLRX0zsQ7O/3OKtxk+E4NFvaZPBk7BOm1dEXhfvwBWcI55K3AINvCcFXfgO0F6mGOsLHgK2JDwRS5NDcWKMkJ3ZtglcHyR0CYDvyv95/nAP7HxgZtK/z2LvgH2xX/8IsT4QFZMB36GXZcnp7TPeuylxYMJO9a0DfbSbQgrYi9JhHIbsCcwKeA+yjUOex58KHYiIiIikqprsLnN27HCvLQdhv8qFXdgBaFZmu/8N9YF3uszPswpjohIVFnqkCAiIn5OcY73inO85p7AJswfxZbHzoMvsE5QlzvG3ATohi1j6sVrGcwsDKC3ZETsBEQkGM+OkXOxzsF59gI20fxVxBwGYkUMXhqwAbasdTkGm9jfF3gDn8LFg4HTE8Yo+jX9o8Dxu+Lf4fI5rPij3jmuhxuB9YGTHGIdgL3wNNshVmy3AEcSZ+JiEtb18ilgy0D72DxQXJE03YQVoV0LvBw3lbK9A1xM8mt9U0Xt4jIB65wV6+WmO7AXef9NmOYSXbEifa8XcZo6mXCdi27C7mmyVKg8G9gP69i0d+RcJJw/AhNjJ+HsD1gRsIiIlG8acDR2rxZLF+D3zjFfwLqxZnHc6BbsZWaP+eT9sA76Mx1iiYiIiEiFtIR369bEt/X66HTTz5UuwOf4noveS9fc4ZTXvc55FYWW8JYktIR367yXyH494/m1t91CNpZ58V6+59x006/KNthEctJjHUXySfp7HPJoAO5MmEdeHYrv+fs50C/VI6hcJ+A1fI5330A5prmE91XEWQKsucWA4YQ5xm+Jc4xawlvElj2ehO/fdFrXmbSW8B6P78s4SZxMuOMMsfz6IliRWYh8HyPbjTa6YS92p3GOagnv9nkv4V3EbbWqP93v0hLefsevJbzTpyW8/Y6/6Et4jwEGpHNYbToQ3+MahT3/Z1kn7MUfj+MdmHLuIiLutIS3iEixdMCWuOroGDMvHR9imIP/UpOrOsfzmkD1XBJeRKQtXYB/OMcMvWRqSJdihV+xl3nZCt/BzNeAcxzjhTIIuM4hznIkX4pT1/RkPIsZ5mPLdme9W8484Jf4LC8ecsnQNNwJ/Aob1I/tG+zzDPG93g//5cZEpDyTsO6/nrzHB2KaCuwCfBA7kZJLCLc89MYBYh6AFel6ex+b7Pa4VwhlFvYi/RexExERERF3I7EX8t6KnAf4jxsdij3/Z9k8rPOnx/hE3seNRERUQCkiUjBHYV2xPN3vHK9o7sJ3iSPvCZLJTnHWBjZziiUi0pYz8e/Gm9dr2Y3Ar8lGwc+xjrHmYkt3Z3mitqnf4fO2f9IusV7X9A1LWy3ZDN9ihn+SzaXnW/I2tgxuUtuT7e5UbRmCdT/J0rKkr2OdzEOo1SJpkSzwXnKwKAWUDdgE8pDYiTRzFH73V02tFSDmwQFizsIKM6cEiO1tDPbySpau5SIiIpLMBGAnYETsRICNgM0d410DPOsYL6T3gH85xNmObKygJCJSNRVQiogUx5bA5c4xZxHujfyiGIW9se9lKcdYYF0wvJxFNpY9FJHi2hP4vXPMMeSzA+WTWOe4LBRP9sB+N17+BQxzjBfaN/h0nN4+4c/rml69Ax1jfQuc7RgvDRdgndOT6ANs4pBL2iYC+wOzYyfSgguAcQHifi9ATBEpzxBsmWov3uMDsVwC/Dd2Ei0YC/w1QNzlnOMtAWzjHBPgDPJ1Tz4IuCx2EiIiIuJiNrYc/cexEynxHDeahI275clfST5u0hPfIlQRkdSpgFJEpBjWxgajuzrHfRyfjktF51mY09sxFvh2U9gN+INjPBGRprYEbsP/GeU+oN45ZmhfAweRnQ6Ne2BFlB5mAH9yipWmy0j++9gYW163Wp7X9L2B0xzjZVlHrLuSlwvJ/hJMzX0B/MchTtIi4Bh+iy0JlkVTsaIib96FOyJSvgbgZcd43uMDMXyMdZjPqsuxYntPS+HbfWcv7H7G0xvksxjx98Do2EmIiIhIYqcBg2MnUVIHDHSMdxG+L1WlYTRwp0OcPI4biYj8fyqgFBHJv82AF4D+AWLfFSBmEXm+sd/LMRbYhLmnc4ArgW7OcUWktu2EdVzsGSB23q5lDdhSs1kaaNvPMdb12BI9eTMWe7EkiY4k6x7kfU3/CzZx7v0CTtZshV8Hryn4LGsUwy0OMfI2EP4icEPsJNpxHdb135MKKEXi+sAxVhEKKI/B/3vO03TgJueYdcDSjvF2cozV6LfkcznsGeSvE7iIiIgs7An8V9NLYgtgWadYU4F/OsVKWy2OG4mILEQFlCIi+fZL4DlgsQCxP8e6dkn7PnOM5V089LpzPIBjsaXJ9qC2lv8UEX91wO+Ah/DrcNjUEKyAJk/uwQYSs6ITsJ1TrAbgUqdYMXgU426a4Ge9r+kdgBOA17Au00XlWXRwPb6dQNP0LMmXi96YfN37/Q773smyCSQvzm6uCAVXInk20jFWiJeL0vQEdv3JutsCxPT6Lq4DtnWK1ehxbCwxr24EhsdOQkRERKoyBziObD2re44b3YR/d/O0DMJWRUpiI1R/JCI5pi8wEZF8WgFbsvtqYJFA+7gEmBsodtF4PhB5L8s0HJjkHBNgHeAB4FVgX6zARkSkEmsDT2Nd8DyXuGvqwkBxQ5lN9pZV3gzo6xTrJeBTp1gxPE3yAd71EvzsMGBawv23ZH3gYeAVbGlv73uR2HZ0jHWrY6y01QPPJIzRG1gxeSqpeBrfZXRDesg5XnfneCJSmSyPD6TtnNgJlOkt4EvnmF7fxevh/9L0Jc7x0laPrYwiIiIi+fMPYETsJJrRuJGZj42lJNEDWMUhFxGRKFRAKSKSL0tghSbDgL0C7udbrMOOlGe6Yyzvrj4NhOlC2WhTrFvaJ8DpwJIB9yUixfA94ArgHeBHAfczgvx1Ur4Z367GHrZ1jHW7Y6wYxgJDE8ZIUkBZD7yRcP9t2QL7mxkBnIrdd+Zdb+ztdw8fYAUWeebRBSzJOZymy2InUAHv7mwqoBSJK8vjA2l6DXs5Iw8a8O/I6PWyc5Lu5S35CHjKOWYMN+P7tyYiIiLhzQL+GjuJZnoAmzjF+piwc3FpqKVxIxGR71ABpYhI9nUAvg9cC3yBLUUXelLsb4TpcFRU9bETaId3V5uWLA+cj3VteAjYD+iawn5FJB86YstA34V1IPwV4TvXnkv2v5+byury1p6Tto84xoolaQHdCiRb0jGNa/qK2ID2aKzb9D7k95q+MX7jHkU4f992iJGHgfAvgcdiJ1GBkcB4x3gqoBSJK0/3nyFdFzuBCnlPdndziuP1Ikijm8jWkpnVmgQ8GDsJERERqcht+D77etgIvzFqjRuZPIwbiYi0SAWUIiLZ1B9bQvEy4HPgf8CR+A3AtuVD4O8p7EdaFqLDxH+AOQHitqQTsDtwN/A1cAOwC+GW5xWR7FoW+ClwNfAVtnTsQMIXToItFZ23JVOewzpMZ41XAeUH+C+NGMMHCX++A7BWgp+/C5iXMIdydQb2AO7F/oavA3YiX9d0zwLgInRrGoYtyZREkvM3Lf8mfwVM7znGynPHOhFZWF7/nudi4xB58q5zPK95lwFOcRrlrUN/W1RAKSIiki9Xxk6gBRo3WtiHJB9PycO4kYhIi9KYvBQRyYNFgH4p7asT0AvrxrVEaVsaWBm7sVwLWCWlXFpyHOkV2yXVDfvslilt/UpbZ6Bninks7hgrxATJWKzg4pAAsdvSDzi8tE3EuljdDTxNfs4xkTzpSXrXsi7YEiedsKL//tj38SrA2qXteynl0tw84Fjy11nl7tgJtGBxrBDWwwtOcWL7xCFGks90NHAPVpycpkWBX5S2b4H7sXP2WbJ9TV/fKU498LJTrJimA2Ow++ZqLeeUS0gPx06gCl/ETkCkALpj19ilS//sC/RhwX1rWlZyjJXXAsoXgcmxk6jQqNgJtGI1x1hDsaUli+Jx7NlPc1wiIiLZNxyf7obevMaN5mMv9OfdLGzscfkEMfIwbiQi0iI9XIqImCtKW627A+sQlkW9gK2x5czXwdrAr4QVokr7zsOKLbpE2n8/4LDSNhlbgvRe4AlgZqScRIrm3tgJZMSl+HbySsN8rCAta1Z1jJV06eusGOcQY+mEP/8nYD/iPc8vChxR2hqXT7wXeBIbaM0Sr6KDD4EZTrFiG0eyAsqk529oU8lnsevo2AmI5MyiwA+BzYF1sTGCFclvwWHRPB47gSpk8Xu4D7CYY7xBjrGyYBL23OfdpVNERET8ZbULtte40XBsPKIIxpGsgDLr40YiIq1SAaWIiDT6CDgmdhLNrI4V/e0KbExtXLdCTfgMx5ZmPz1Q/Er0AQ4qbdOAR7HCi0dL/11EpFqvAGfGTqIK72Fd4bLGs+NNd+DHjvFiWdEhRpLiNbBlmC8Hfu2QS1J9sQ7Xh2ADxY+w4JqehYJDryLgCRTj/IXk3XmTnr+hvYEtHZs3ugcWad8GwEBgF6xTjNcSyVmW14LQV2MnUIXZWFftWC+dtsSzmynAYOd4WfA6KqAUERHJg6djJ9AKr3Gj8RRn3CiprI8biYi0qhYKUUREpH3TgH2BKbETwZZTPww4ktocBA05QfJHYEdgo4D7qFRP4IDSNhN4DLip9M958dISkRwaC+xPtpcTbs3/YifQihUcY13qGCvvPN7EPhMbmPVaashDL+zFl59ixZOPADdjXajqI+WzqFOsbUqb2L1bL7Lb4VbnsQAAIABJREFUWeH12AlUKQsFxyJZ1Af4JXA4sFbkXGLIYwFlPfBm7CSqNINsFVAu6RzvNed4WfBG7ARERESkXfVk8wWb7kB/p1g/AJ5yipV33bAV6SbGTkREpFK18KauiIi0rQH4BTA0ch59gXOBL4Arqc3iSQg7QTIH+AnwecB9JNEd2AdbCnQU8Dd8l48VkeKai3UkyuLSe+XIajeYJWInUFAeg7OzgN2BLx1ihbAIVtD8MHZvdwGwcso56PwNx2uCIYRhsROokl4cElnYktgKCqOAC6nN4knIZwHlF+S3q27WvosXd4xVD3zqGC8rinhMIiIiRTOUbL6EqXGjcLI8biQi0ip1oBQRqW0NwPHAfyLm0BHrNnkuemBJw1fAzsBLwGKRc2nLUsAp2PKkj2FLlT5F8mUnRaR45gE/AwbFTiSBj2In0Apdl8Po7hRnFLaM6YvYiyhZtQxwGvBbrKDyH8AzhL+ma7A2HK9zOISRsRMQkUS6AidinZZ7R85FqjMydgIF4llA+SX20lnRfBE7AUlsCnG61YdUtOMREUkqq+OeGjcKJ8vjRiIirVIBpYhI7WrAJiaujJjDKsAdwGYRc8iaNDpMfIgt+/koPsuIhlQH7Fba3gLOwoovRETAiicPBO6NnUhCn8ROoBVeyx/Lwro5xnof2AFbLjvrA791wB6lbQh2TX8s4P76BYxd6zzPYW+jYicgIlXbEBsfqNVuky3JYwdKfQ/76eEYa6RjrCzR+ZZ/WxJ/VSQREQkrq+OeGjcKJ8vjRiIirdIS3iIitWk+cDLWASiWA7GCOBVPLiytCZK3sUHKrL7915IBwEPAK8BGkXMRkfjmAAcTt4uyh5nAhNhJtKJr7AQKynsQcQh2TR/hHDekTbAXOV4GNgi0D52/4WR5ILyI3bVEasEJwGBUPNlcHgso9T3sp4tjrEmOsbJkJtlbel1EREQWltWO0Ro3CifL40YiIq1SAaWISO2ZAuwFXBYxh7OB24BeEXPIqjQnSEZiBRf3pLhPD1tgk2u/R920RWrVGGA74K7YiTjI8oSf56StLBBiEPET4PvA/QFih7Ql8BpwOtDRObYGwsPRQLiIeOkI/BMbn9D3tsjCPP8mpjnGypoZsRMQkWDy+CKBiHxXfewEWqHnj3A0biQiuaQCShGR2vIRsDnWxS+GDsDVwB8j7V++61tgf+AIrLg2LzoD5wKDgMUj5yIi6XoN6173cuxEaoAKKMMI9blOAPYGfkm+Jsm7AOcDz+K7bHxnx1iyMH03iIiHzsDdwDGxE8kwFY7UNs/ff57uDSulAkqR4tJzh+SZivOyT+NG4ej7W0RySQWUIiK1oQG4Hlsu+8OIeVyATepL62JNkNwIrA5cRb6W3NoS+B+wcuxERCS4ecBFwDbA6Mi51Io8XQ/yZGbg+Ndi1/RryHaH0+Z+iBVGr+AUL0/HnjezYicgIrnXAbgOK/yX1qmAsrbNdoxV5ElsFT+IFFf32AmIJKDzN/s0bhSOxo1EJJdUQCkiUnzDge2BI4nbYfAY4NSI+8+LmBMkY4FjgXWBfwFTI+ZSidWwIsq1YyciIsG8hXVQ/i0agEnTnNgJFNT0FPbxNXA0sD5WUJmXrkNrAq8AazjE8iw6kIXl5XwSkew6BzgkdhIiGed5L97LMVbWLBI7AREJpkfsBEQS0PUp+zRuFI7GjUQkl1RAKSJSXJOxSYkNgOci57IecEnkHKR8H2MFr8tgHUPfiJtOWZYEHsVyFpHiGAf8Guug/GbkXGqRBhLDSHMQcRh2LV8Gu7a/leK+q7U0dk1fMmEcFQCHk0YRsIgU17bAmbGTyAl1oKxtnl3Li1pAWQd0i52EiASzVOwERBLQ+Zt9GjcKR+NGIpJLKqAUESmeicDZwIqlf4ZeJrI9XYBbga6R88iLLE2QTMO6Vm0CbEr2O1itADwC9I6diIgkNgb4DbASVoCvJVXimBQ7gYKKMYg4FesuvRHWzfWGSHmUa2XgYaBnghgTnXKR78ry/aCIZFsf4GY0Jl2uLI0PSPq+cYxV1JdNl0J/JyJFtlzsBEQS+F7sBKRdGjcKR+NGIpJLnWInICIibt4HbgSux7pPZsUvsS6YodUDo4BPgM+xwtFppX+GXu51SeBkp1hZHfgdUtpOBHYB9gN2J3tdDDbECj0Hxk5ERKryKnYtu4X4LwAIjI+dQEHFHkR8rbQdD+yKXdN3I1mxYgibAFcBB1f58zp/w8ly8a2IZNtvgeVT2M88bFzgE2ycYEZpm074TjOrAb9wipXV8QFJh2cB5UqOsbIkje8TEYljEaB/7CREElghdgLSLo0bhaNxIxHJJRVQiojk2wTgLqyDw5DIubSkB+GW5poOPA88BTyDLTsdq+X+uhS/gLLRTOC+0tYN2BErvNgD6yaSBQcADwB3xE5ERMoyGrgdu5Z9EDkXWdi42AkUVFYGEWcA95S27sBO2DX9J2Snm/NB2DX9nip+VgPh4cQuAhaRfFoSOClQ7EnAs9j4wHNY4WSsDuY74ldAKbXN8168J1aIVLT7exVQipQvb/PB65P9cXJJT+fYCVQhjaYikozGjcLRuJGI5FLebphFRGrdLOBl4GlsYuAtYH7UjNp2OLacjqevgIuAa8hOAUKtmgU8WNq6Aj8G9sWKKReLmBfAhVjBhc4RkeyZDgzCrmNPYx2UJZtGOcb6DCtmEHg7dgItmAncX9q6YsUfjdf0fhHzArvve4TKu9JOAqbgUwxajxXkiD17hO7uLiLFdAL2kqWnT4ELsBdxYr1QGZIKR2rb587xBgBPOMeMTcUpIuXrHjuBCg2InYBkSt7O305YEbBk2zTgW2BRh1jzsRe6xMyInYCISDVUQCkikl3jgKHAu8B7wDtYkUmeJiyPdIw1DzgPmxyZ7Rg3a/I6QTIbK254BLu/2BbYB9gLWDpCPstiXT8uj7BvETENwNfYtewdFlzPhgJzI+Yl5RvhGOsdYG/HeBLObOCh0tYZu6bvC+yJ/4sx5VgBOBT4VxU/OwLYyCGHjth9rXchg4hIregEHOYYbyZwOvBP4nWaTENexwfExzjs5TOvwuMtKF4B5eaxExDJkV6xE6jQlrETkEzpGTuBCg3AVu+S7BsBbOYQpw74P/TyuIhIrqmAUkTEDAI+SnF/U7BONo3/nAqMxQpNRgNjyH+R4Eb4vQk+B1tS8iGneFlWhAmSeVhXuaeB44DvY8tq/xxYPMU8TgT+gRVxidSCR4EvU9zfJOzvazL2lu1k7Do2tpTHWFQomXfDHWNtixWh1TvGlPDmYt1inwKOBbZiwTXd4w39cp1EdQWUw/EpoATYHrjBKZaISK3ZCVjGKdZUYFfgJad4IlnVgE3Ce3WwKloxUkdgk9hJiOTIsrETqEAdtiqCSKNFsS6Ula5MEcvOsROQsg3Hp4ASbNxIBZQiIjmmAkoREXMzcGPsJArG8yHxJGqjeLKI5mPLzr8M/BbYDes8sgvW1SqklbEJgpcD70ckKy4DnoydhBTKGGA8sIRDrL7Yd/KLDrEkjvnY7+9F4BRgd+yavjPhxxbWADYFXq/w594HBjrlsAsqoBQRqZbn+MAh1E7xZBFesJRk3sOvgHIboDf2MncRbAX0iZ2ESI58L3YCFdgE6B87CcmUDtg5/HHsRMq0S+wEpGzvO8baBbjGMZ6IiKSsLnYCIiJSWD9yijOY6joO5VWRJ0jmAP/FlgBdHvgzMDHwPvcKHF9EpOiGOMbyKmST+GYD9wI/wZbYPh/rQhtSNdf0Sgsu27Ib+Vv2TkQkK7zGB+4vbbWiyOMDUp63HGN1xbq3FsUesRMQScF8x1jrOcYK7aDYCYgL7xVI8nIOrwZsETsJKZvnuNHO6OUOEZFcUwGliIiE0AFbttnD36itJZhrZYJkDPB7bEDhKsL9jr0m6kREapXnQOL+hO8+LOn7CjgDu6ZfS7au6UPwy6c7sLdTLBGRWtIXWNsp1oVOcfKiVsYHpHVvOsf7qXO8WDoC+8ZOQiQFnssVLwss6RgvlG7AgbGTEBfey21v5BwvlMPRPVyevIHfuFE3dH8iIpJrKqAUEZEQlgN6OMSZATziECc0z2Ura+3h+hvgWOztvPEB4q+PdVkQEZHqvOAYqz9WRCnFNB74Jba09zcB4g+g8nuub4Chjjn8yjGWiEitWB2f59xRwCsOcULzHB8QeRVbzcPL7sCKjvFi2ZViHIdIe7wL0LZzjhfCQcCisZMQF7Oc4+Xh/O0BHBk7CanIJOAdx3gaNxIRyTEVUIqISAirOcV5E1siMutWjZ1AATwJbAl84hy3MzZhJyIi1XkJe6HBy0mOsSSbHgW2AkY6x+0GrFLFzz3pmMNm+HVZFxGpFV7jA4Od4oTmOT5Qay9YynfNwIoovXTEXmLNu+NiJyCSEu8Cyt2c43nrjK1uIMXgff5uBizhHNPbsWQ/R/kuz3GjjYCtHeOJiEiKVEApIiIhLOMU52unOKF5Lh9RyxMkI4Ad8e9E6XU+iojUotnAIMd4m5L9SRtJ7iPsmu7dibKaa7rnQDjA2c7xRESKrtbGBwY4xqrl8QFZ4FnneMcASzvHTNNW2H2mSC2Y6BxvD6CXc0xPRwErxU5C3Hifv3XAz51jeuoLnBI7CamKxo1ERARQAaWIiITR0ynOWKc4oe3sGKvWJ0g+xZb/9NTPOV4oHWMnICLSivuc452PvvNqwXD8OxxVc01/Dt+Jmx2BHzvGE5GF6fpQPLU0PtAB2Cl2ElI49zvH60m+J/YvjJ2ASIq+dI7Xi+wWoC0F/Dl2EjmRl/tl7/MXbN4gq/MnFwD9YychVXkBmOAYbzt85wxFRCQlKqAUEZEQejjF8VwyNJQ1gQ1jJ1Ew9wNvOMbr6xgrJK+/GxERb/cCcxzjrYeW3asVdwPvOsar5po+B/8i4MuBrs4xRcTonrh4aml8YBt8O/tltUBA0vU28IlzzCOwzvB5cxCwZewkRFIUogDtVKBLgLhJXU5+xnBjy8v98jhsVRNPawP7OMf0sDXWQVXyaS429unpMqC7c0wREQlMBZQiIpJlS8VOoAzH4zupoQkS4/nAmpcOlHkZ/BKR2jMReNw55p+BlZ1jSvY04Fu8WO01/Q7HHADWAs5yjikixqtboWRHg1OcPIwPnOAcT+MD0ug/zvE6AbeQr4n9ZbECK5FaMipAzJWBYwLETeIYYP/YSeRIXu6XGwhTBHwe2SoC7g/ciWou8s573Gh18t3xW0SkJuliLiIiIUxyiuPZuSGEVYEjnWOGmiDZHOgTKHYIr8ZOIIJFYycgItKGq5zj9QDuAro5x03LksTrjrEFtvRaXmThmv4c8KFzzNPI91Lea8ROQKQVfdF4ZdFMdoqT9fGBzYG9YichhXUDfsXIjdYELnaOGUpH4Cby84KsiJf3A8U9j+y80Ph94JLYSeRMnsaQQ5zDa5KdFxq7YMWTy8ZORBJ7ERjqHPMUYCfnmGnSuJGI1BwNSIqISAheEyRrO8UJoQNwBf5vO4YooKwDbgReB9YNED+EMY6xpjnGas5zSdu1HGOJiHh7AvjYOeamwD+dY6ZhReAl4BHS7x7c2C3oNfJz3cjCNb0BuNIxD7CJ/Dux8yFPOgB/A94BdoycixSH59J8XYGVHONJfF7jA+s4xQmhC3ad8X6eVwdKaTQCeyHE2zHAsQHievs7+X5xRaRaI4FvAsTtiXVbi/1C44bYc3XXyHmkwXMMeU3HWKG9GSjuacD2gWKXqxP2d7Rd5DzERwM23+epDjtHVnGOG1oH4ALgXWCXyLmIiKRKBZQiIhKCVwfKZbGBlCw6lfy8PTYQK7JYDRgM/CxuOmXxHMCb6hiruZmOsVbDBl5ERLKoAbgsQNzDseW882IdrHhyVWBL4L+kO9lzIHa9WBPr7JiHZc6yck2/GfjWK5GSxYEnyceysmBFn9dhXRC6Ysurbxk1IymKWc7xsvwinVTOa3xgANntQnkhsHGAuCqglKa8J/UbXQbsFii2h+OBE2InIRLRW4Hibo51du0YKH57NsOepWqls6znGHKe7pVDFVB2Au4m3mfRDbgd2DfS/iWMW4EJzjEXxV5KX8Y5bigdgauxIuUuwD3A1lEzEhFJkQooRUQkhBGOsX7pGMvLQOAvgWJ7T5DUAX9o8t97YG+93Uu2H9qWc4zl2fmqOc/Br67oYVREsu164IsAcc8gO8svtWV/4H8svDTTDth1NY0C+E7AmU3+ey/gP8C/yXYBX1au6VMJs0zlasBTZLeop9FSwNPAEU3+XQ+s40tWX1iS/PC8J4b43WTEl9f4QB1wlFMsT8cDJwaKrQJKaeoBYFiAuJ2wlyr2CRA7qZMJ8xKXSJ68HDD2QKyrvvcKS+3ZH3geWCLl/cbkeb+8AfYyXx4MBuoDxe6HnUebBIrfmv7As8ABKe9XwpuOrdjhbRVs3CjL83EAS2LFnk2fuRYBHiLMy2IiIpmjAkoREQlhJH7Li/yCbLW4H4gtnRnqGuo9QdLYfbK5fYAPgKPJ5v2A5wPZR46xmhvvHG+gczwREU+zCfcCwTnAVcTrftGWLsDlWLFi7xb+932wrn6hixwau082dwB2Tf9FCjlUI0vX9Mvx7yYAsC5WXJvVpdR+hHWu2baF/60vNkC+RpoJSeGMc463P9l8RpHqvIPfxPnJZKtg4Djg0thJSM2YD/w1UOwu2Es5WSlSrgPOw5buzuL9rUiaHgkcv7GYccXA+wF7nr4W+77pnsL+ssRzDLkz2Sx6b8kE4LWA8ZfAzt/DAu6jqb2xZY2/n9L+JH1XAmMDxF0beAVb2SaLtsHGjVp6mbEP8DgtzzOKiIiISAbsjS0l6bUdnm76NeFJ/H4/LxJ/aeMOwOnYxI/nudd8e9sx5zqsoKK9fb4D7El2BqXrgM/w+TxnEHby9UdOeTZuU4HlnXPcBtjUOWZTnbBlf/bFOsYeWNpnrQ2EVuM4fM+fHdNNv6Z5/u1PSTn3pDphg8WhroPPkK1Ofj8ChlJe7pcHzKMT8HEZObwF/CRgHpXqCIzC72/F417l/5zyaWmbBOznkKOXRbHC5HLuX78AVoiQY/8ycqtki3EMHo7F7zMIOUHZlskV5FjO5v2MviLh/z5Xx76Dj8AmcXcj2x2C0/QefufGvSnn3pJOwEWEu540bo+mdDxXOeZ8XUo5hzAev89hl0A5dsT376ml7XriPs8vip37of++Wtq2SuH48u4v+H7mWS0kyZI64GvCn/8Tsa7KIcbgO2L3Rl7PhtVs5wU4rkr8Bt/j+RBbzchLJ6yY1nMFiUZnkM7v+D5gpQD5gxW/3ZfScbS0TQ10XG15M0G+zbcsrjLXliMJ97ucTLaaaPTDikbn0X7uXxLub0xEREREElABZfadh+/vKI3OTq1ZEni4jBw9Ns8Cyp9VuO/XgV2JX0jp+YD6UuBcV3XMtXF7FHuTOImu2MDkW6WYtyeM15KVgRuBb2n5OKYD9wDrB9h3UaiAMr9quYASYGusA06oa+FY4hehLYd9d1aa+7mB8jm0wjwGAzsR/5ruWRT2rFNOddg9T6jztwG4BhuEjqUTdj9VaSHIx6Rf7KUCSlOEAkrvgp4J+LxY9EOs4G4edt/qvURlD2xSeAQtH8d87HcykPjfyTFdj+/5EbMIYkXsOTPkdaRxeyydQ1IBZUkeCijB7vFCn3tDsRcj07Y3cQusVEDZPhVQxnE16f0dfIitWLSIQ96LYmNfH6aYf2tb7ALKA/A/Jo+uxP2AU4HPSzFPcYjZ3Nqk93ueid3XeHTKqwO2A+6gvOKykJsKKNNVh3WLDPk7vR77joylI/bi31gqy3sE2V+KXERERKTmqIAy+wbg/1BxK9AtxWPojA3yTHQ+jra2d5xyL7f7ZEvbR9jSaDEm/gdgXSO9Ps+zAufbERvA8D4PnsKWIKlEHbY057+wCeem8abg97fTAZsknk15x1IPXEL8LrJZpALK/Kr1AkrwL4RoaXsMWxo5TatjE//lfse1tHlPOJTbfbKlbRhwIrZMc9o2xSYvvM6H0x1z2xiY45hbS9tYbFn1pC9FVKIb1mHzkwR5v0O694AqoDRFKKC8o4Icy92+orrl8VYD/kDLHYR3rebgWvFDLMdyj+dlaneyaVf8z49LsOextHQHfo+9KBbq2tF8UwFluvJSQAnwoGOurW3zgVuwF0dD25D0Xlxua1MBZftUQBnHJqT/9zAFW2r7EOw5uZwXQboAG2DPoA8BsyLk3doWu4ByLcIc15VU3jW4Gza/9m++Ow7/apXH156XCXP8rW3zgSHYvdvWlF8QvDS2ytKVwMiUc25rUwFl+jYk2dhgOds44CjSHTfqiv0+WnsBsJztPWCxFHMWERERkXaogDIfhuH/UPERsH3gvLti50SSyedqt3edjqHS7pMtbTOwDoO74N+ppSX74r/03+Yp5P2Cc86N21RsWbgtafkhug4baD4SuAEY3U68vRyOtUNpX9Ucz5OkWwCdByqgzC8VUEJv4FPCfP813eqxzmFbBjyWbljHy/spb6nj9rb52ACol0MdcpqOFb3uRDoDsz/F/wWDAc45/sE5v9a2T7Gixl7O+Te1HnA+fkv7vQL0DJhvUyqgNEUooPRelrBxmw88AOxB68Xgy2DPEhfT/kTfjU7HO5DqJtS+ojaLRTrz3Ze8PLaXgDUC594DOIH2n7dCbI8HPrZGKqA0eSqgXBaY5JhvW9s84E7gB/h20u2E3Zs+Qtju9pVsKqBsnwoo4xlC3L+PSdjKSQ8Ct2FdMa8G/oO9CP4xMNd5n2McY8UuoKzDxn9C/G6+Bk7Dngtb+p7ujI2Rn4T9vtoaf59PmGeqgxMcn8c2F5vrea70GVyLnb+3Yuf0q/hfVz3PXxVQxvE70jk/P8PGBHoHPJZ1sWt4JS8AtrW9RthxLhERERGpgAoo8+GPhHuo+A/W8cNr8LYD1o3oInwHzSvdPAook3SfbG2bhA0o7IP/0gKbYUs9ew+Yf0g6y+T9zTnvlraZ2IP0EKwz1Ggq75zlsYx30mKTWx1yKBIVUOaXCijNVvhPkLS1DcO6B2xM8u/35YCDgJvxL95vwCaaf5owR0jWfbK17dvSce+Nf6fB7wP/dc63Ab8XTJrqSHpLsDYA04CbsHuppIPi3bCu02djn02IfJ8mnRcfVEBpilBAuVUFOVa7zQO+xO6Hh2D3x5V2A/RYxnszknXY/RRYPGEOefQvwpwXc7BJ8E0cc63DzukrCXOfUO72hOMxtUUFlCZPBZRgL+ykfU5+jo2b7UZ1Hc77Y/dC/6TyJSPT2FRA2T4VUMZzGPH/RtLc3sau717xYhdQAjxD+M9tCjaGMAR4H/uurfRF0RDLeHfHt6AwD5vnuK8KKOPoCAwivXNmOtb9e1+gT8LcuwHbYHO07wTK9zkq74ArIpJpWkpRRERCugY4lfKXSKjE/qVtBLZc3P+AN7CuFuXoCqyJFWH8AOtqubx/mhXzKPgbiC0L4qkPVmhyEPZw9AFWdPBy6T+PwCaWytENW85lZ2B3fCe6mmqcBArtEcIMLDXVDVixtFXrJ6U4s6r8+Y2xQo0kDsKW5fp3wjgikg0vYx3HLktpf2sC55a28diEwFtYd+pR2FvUs7HrUUesSK0X1klvVWxJ19Ww77NVAufaERv0nIpdJ6p1IJazp37YMmyHYC8vfAC8iN1LDQOGU35hb3dsWaPGa/pGzrk2uipAzHrsXnII6Syp2wPrJnooVnj8LjYh8S5WjPAldu5OK/3vPUs/0wMr+G08f9fG7p1CFzduD9yFdWedF3hfUgyDgW8Iu5RXR6zr2rIJYvQDfgw8WuXPd8Y6sSX5G1wJuBz4eYIYeXQFVvBV5xy3M9aV/0isUOAOrIvQm9iLgOXogd1nbIZ1vf4xsJRzniLergV2wO5n0rI8dv//G+w+cgTW0esTrDBmFguKPPpi35XLACtj998rO+czF7un02oXUgtuw7oMrhk7kZSchhVcF8nDwHaB99GL5F3h9seK5T3NxIpY/+EcN6seBZ6PnYQkVo/Ntb2OjcuEtgjWrfVgbBzmHeyZ5j1s3GgU5Y0brQVsSvj7o22xRjf7lPIREck9FVCKiEhIX2NvlYcsLlsVOKvJf298kJiEPUxML/37zthk2RLY4O3y2ARc1iQtoKzDugSG1AF7Q3wd4Ogm/34cNng+BRswn4wNqHfGHuYWwwbLl8d/0qy5xu5aaXiptD/vzpzeemEFLvdX+fNn4/N7OwfrOFrvEEtE4rscK4o/IuX9LoF19kmju0+1OmOTA09h3bEq1Qk40zWj76rDlvFZFzimyb8fhxVSTmXha3oXbGB2cawAKI1r+nhssjCEr7GB3udJd+K9M1bIu3GK+6zGnqXt3tiJSC7UYxOFB8dOpAz7U30B5WH4FAANBM7HJsNqxftY8emBAffRuDQd2Mt0n2Ld+ydjYwQzS/9bV6y4qz822bgc6axeUKks5iTZchT2Akvol4NaUgesXtpiORvr4pyksF4kL+ZhKzLcEzuRFNyNdWEuWgHlQ8DfYydRhk2xzv6fO8e9Bvg1NpZQZDOBE1BnvqIYg63g8gLp/k47kY9xo92x72o1zBARERGJSEt458fiWEFdWm3u874Nre5j/v9+loFjyMJ2XMLPsVL/cMw95FbtMt5L4bvEupbFMlrCO7+0hPfCOmNdFmN/x2Vt+4JkE8qHZuAYsrClsdTTXqS7HH1ettOTfKhl0hLepghLeIN17Yt93pazJVnGe7BjHhdWmUOerYq+byvZnqruY66YlvA2eVvCu9HawETH3POyvYC9GP2lY0yNVbRPS3jH1QF7+Sv231/I7VsWrBBwtWPcLCzhDbaSR+zPuJwtVEOMfTJwbKG300rHuq5jTC3hHd9PsJejY59fWdtCv/gtIpKq0J0iREREJpB82V8pTxrdJ/PgPeBfKe/zSuyBMesal/Gu1A74dj+kdp82AAAgAElEQVRRoZ9IsczFlvl9IXYiGfIp8EPg4yp/Po3uk3nwJnB9Cvu5H/gF+biWp6EBOBG4IHYikjvPAMNiJ1GGxmW8q/m5TRzzqMV74hHApbGTyBF1oJRyfADsS3Udz/NqEtbxWCtbSK1pwFZ/mBY7kYCOAr6KnURAV8ROoEz7B4p7H3BXoNhZ8Dzwt9hJSBAPYY145sdOJCMagN8Af46diIiIJxVQiohIGi4BnoydRECek+1JJkg6AUO8Esmp6VgXznkp7/dD4MGU91mNxmW8K7W+cx7qMCBSPDOB3YCnYyeSAcOw4smRCWJ0At5wySa/pgI/J72J8VuwpXnTvofImnrgaODy2IlILjWQnwnDaiaF18G6nXlZm9oskDsTK5AvKhXjSwzPYmMhc2MnkoJ52D2b99KyInnxKXBq7CQCuQK4N3YSgd0DfBI7iTI0LuMdwnHA14FixzQGOAgV2BXZ7cAh1Mb9VlvqsVU0/h47ERERbyqgFBGRNDRgy1COi51IIL9zjJVkAm0O9gB3IrX7EHc0yZdBr9ap5KPjQzWTxYs759DfOZ6IZMM0YHeKP+HRlv8CWwCjE8aZhU2C/4baLeg7Evgo5X3egnVwmpnyfrNiHNYR79rYiUiu3Qy8FTuJMuxJ5ct4e98Td8a6WtaaOdg1bnrsRAKYD5zhGK8WC2ylevdR/CLKBuwe8YHYiYhEdhV2z1UkTwInx04iBXPJRwFsB8J1ofwGW8VkVqD4MczEni+SjgVJ9t0O7A3MiJ1IJOOxBh1prwAnIpIKFVCKiEhaxmAT0kWbJPkzcFHsJJq5HNieYr7J2ZbTsQfYWD4GLo64/3JVs4x3pZPL7enuHE9EsmM2cAB2faylDkzzsEmQfYEpjnH/jhW0FfUllNb8GvhPpH0/iHUQHRVp/7G8AmyEdbASSWI+cDzZX1a1mmW8ve+JoXbviz8GDqR4hV4nArc5xlMBpVTqXuyFpqmxEwnkZIpXNCZSrV8Cg2In4eRVrFivVl4evA94InYSZQhVQAnwP2w55CKMG83BxsFei52IpOYRYGvgi9iJpOxVYGO0+pCIFJgKKEVEJE0vYW/iFeXtwsuA3zvH9JogeRFbYu4GijEQ0Z7Tgb/GTgL4I/YgmWXVLOPtXUQy3jmeiGTLfOz6uD8wOXIuafga2AFbtjbENfc5bJnXmwPFz5IGrHjyksh5DMGWLHs+ch5paMBevtkWdcsQPy8Df4qdRBkqnRT+0nn/DdT2ffEDwMFkv9i2HA3YyhRXxE5EBOvitjXFehmkAevuelnsREQyZA6wD/BG7EQSehXYCd8XEfPgUKzhRJaFXMYb4C5s1Y08j3PMxp4pHo6diKTuTWAT4JnYiaSgAbiS2nzZWERqjAooRUQkbc9ggzt5XhpxHtZZ4qQAsT07TEwEfgH8iPSXwEzLdKxzSRaKJ8E6qAwk+wUIlU4We79N6T35LCLZdC+wAcUtQqsH/gGsRfhj/AY4DCvUHBF4X7FMw66hsYsnG43FOnqfik2KFNF7WIHFidgErIinPwMPxU6iHZUu4+19TzwO/e39G+s+lOeOU7OAg4ALAsRWB0qp1jtYZ+nHYyfiYDZwCHB+7EREMuhbYDvghdiJVOl+LP9aePGyubHAT8l2o4mQy3g3ugTrpprHF2q+wTraPxg7EYlmPLZqzG/I9t9yEu8D2wDHoWdXEakBKqAUEZEYHgO2BD6NnUgVJgK7Yp16QggxQTII2BArACjSEqAfAt8H7oidSDOfYwUuWe4mU+ky3oOd9/+SczwRya7PsSK044FJkXPx9BqwGXAC6U72PAOsj3W5mpDifkMbCmwO3B07kWbmY51FN6FY165pwClYYcXLkXOR4qrHlrLLckeOSpfxHo1vx40ifa8kcSv2e8h6F6aWfIVNKIZ6JlUBpSQxAdgNOI38Tup/hr3scVvsREQybAq20kzWnqXaUg+cC+wLzIicS0yDgP2wF/KzKnQBJcB12HPD1BT25eVNYAt0Py82bvR3bNwor8XsLZmOzSduhK12JyJSE1RAKSIisbyNPVTkaXmDh7BOWk/FTqQKs7ACgJXJfyHlLOBsrCj0vbiptGoYNpH2SexEWjAeW/qqki4vb2HH5KEBeNYplojkw3xsScs1sWWo58dNJ5FPsO7O38cGzGOYiXW5Won8F1LOxJZ73wj4IHIubXkfW6roMGzJ9ryaA1yLdU29mHx3fJN8mAXsgXUkzpp5wNVUtuxlA76FcronXmAQsDH5Kuq+FXsmfS12IiJtmA9cCAwgX39fDcBN2D3i63FTEcmFmVgB2q/IfsH0SOzF87PI99iAl0ewF92z2IXzI8J02G7Jfdi94Fsp7a9a9diz9JYUd3UQqc5QYFvgYOwlq7yaA1wPrI3NJ2a5wFtERERESvbGBtO8tsPTTV+a6MCCyWjP36nnNhp7I7Y1HR33NbyCzy6JHljXrPcccw+91QN3AqsF+DxCWRwruI392TVgA3HnAb2rPJafO+VRhCXEvByH7+94x3TTr2k/wu/3NiXl3LNgbeAu7Hs99ndjudv7wIHYNT9regInY4O1sT+ncrd6rJPQygE+j9C6Y593lu9dm2/TgUuB5QJ8Hkn1x/dYV0g3fTfH4vcZZLGYqwPwJ6xoMfbfQz1wD1bUX42lsWu3x99lvypzKLJOwInYyg+xz5XWtuG03bl0Ocd9Darkw0vgKsecr0sp5xDG4/c57JJy7uXogBVYjSD+31Fb21Aq6w78peO+t6pgv7XqL/j+vtdJN/2asD7WFS/233LzbRZWjLdIBcdyteP+z6tgvzGsjb28Hvv31IB1XD8W6Bz0iFvWDftdzawg37S2wVhhf7nWddx3jO6cbybIt/n2y5Rzj6079kzzFfHP23K3Gdiqe98L8HmIiIiISGAqoCye3tgbTXOI/7DQuH0BnIQVG7bFs4AyxpuLW2CTHFOryDeNbQ5WaLNuqA8gsA5Ysep04nx+44E/kHyCtgPwoEM+uyXMo0hUQJlfKqD0sQY2ODeZ+NealrZ5wGPYfWdeVm/YCrgBW6I59ufX0jYbuB2bHMq77sCRWIeM2J9ra9tnwDnAEoE+Aw8qoDRFL6BstBVWfBbj72Eu1jHQ4/vnSId8rnbIo8iWAK4hWy9bfIT97ru2k7tnAWVaywCqgNIUvYCyURfsXP6A+H9Xzf/GjsIKqSuhAsp0qYAyHzpgL0J/Qfy/7VnYNX35Ko6jlgoowZ4xLyXe/c8I7Hu4S+gDLcPKWFfK+cQ/h98C9sT+riqhAsoFW60VUDbqDhyBrXoQ+zxubRsJnIuNzYiIiIhITqmAsriWwwY0xhLngWE+9jbhoZT/lmXeCygb9QT2x5ZJivX5N90+wZb1XDrgMadpOWz5g7Q67/wPOAR7c9dLb+CVBDm9QOWDTUWmAsr8UgGlr57YvdjjWIFL7OvPa9ib4kuFPOjAemMdhm4BxhH/Mx2OLTe+ZMiDjuj7wD/IRlfKb7BCmB+Qj2uuCihNrRRQghWf/QY7V9P4m/gCWyJyGefjOD9BTtNQZ49yrQr8nXgdKeuB57EVKcp9mcKzgPLFMveZlAooTa0UUDaqw15wvA97ySXG39h87BlgV6p/YUkFlOlSAWW+dAYOwrcQqtxtJPZCd5JnwForoGy0IfAE6fye5gEPkOx7OKR1sfH0WaR7/s4C7saWZE6Su1c+KqDMvy2wl8iz0JXyG+BfwNbkY9xIRERERNqhAsri64oN8DxC+M599VhR2G+obtLVs4Dykyr2H0IdsDnWtehpYBLhH9zmAUOw5f0GhD/EaFYBLga+xf8zfBcbnFwjYP49sY6g1fx+NwiYVx6pgDK/VEAZzhJY8fetpFeMNhq4EytgWi38IaauDivwOxd4lnQ6fs4FXgfOpra++zsC2wB/xorY0ugcMgt7QeE87DqQhW4hlVABpamlAspGvbB7oRBLFY7FCsJ+hP1dhvIrqis6OiNgTkXVAzgaeIrwE+hzgeewv8tqXqZQAWV+1VoBZVOLYcUNDxJ+DG4etrzwmcCaDrmrgDJdKqDMr82BC7Gx51B/3x9gLz5siU9RTq0WUDbaDHsp0vveZx4wCLsXz0vjgiWw69QThFvBbBJwLzZX2NchZxVQLthUQLlAR+CH2HfSq6TTbGMW9lzxZ2An8jduJCKSGlWVi0hebYVNyHq5CHv4kmzqhr0NtTOwKbAWsHiVseqxt7zexR5QBpf+maSApQ6/82cMcLBTLE8dsKK8TYGNsSLAlbBJ6p5VxJuJLc/0IfA+NtE7mDiDAbF0wd5i3RPrErUOlU3wzsUmnN/EJviexSYO0nAIcHOFP3MxcEqAXPJsT2yw0svp2JIgEt4G2L2Dh5nAHk6ximgVYBPs2rM21olqJaob7JuOTRaNKP1zGDaAGLP7cwx1fPeavmJp61FFvJnY9bzxmv5qaZuWPNXc6w1shJ3DG2Ln76pYkUKl5gOjWPgcHozdQ83ySDaSvlhnDy8HYcVzefMT4ASnWB/he3+Rhg2w+6LtsO+lSp8vPgfexoqJn8We9eZ7JtiKJUv7bm9J56aGYsc4O0hGtaEHdq7siH2/rgH0qzLWPOwZ6m3sO3Uw9lLf9AT5LY69mOFhKHCSU6y2nAjs7hTrcezZL4/uAfo4xToDe5kkj7phhVabY92S1sPuEytdWrvROKyoahhWsPMk1lXWy51UP0bY3EnY35207hfATx3jHYldSyVda2F/31tgRXqrYC+3lKse+70NB97Bvu8G4z8ueRLWKdfDHcCNTrHS1hubF9kdezly1Qp/fgbwHvZ7ehbrru35PZy2vliRbuO1al2sELSSDprfYufvMOzebwg2pjrPMc8VgWudYsUYO7yKys+11lyKNUqR7+rFwuNGq5Fs3OhLFowZjcDG517DziEREWmHCihFRCSvFsMGe76HPWT0xSZSGievZmCTUpOwSeXPS9uXWOGZ+FkM67LRB/v8+2ID7t2xAbXG4tTx2MD5WGyZAFlYD+ycXgE7r3sDizT53ydi5/OX2Ln8MfbGbQxvUlmX0OHYxLge1EXEQ0esa93iTTaw608H7B5gFvadOQP77hmDdbSUti0OLIt9ll2xa3vjNX0eC150aLymj8EmHqQyvbAJnsbztyv2GXdjwb3TdOzcnYJ97p+jgiupDR2xSaOVgeWx76OmHWCmYX8TX5a2j4k3AfxHKnuxsx6b7M1Ll9A8WRJ7lloWe67qhxXidi7979OwcYCJ2HfrSOx7dTT2exGRtnXBCqyWw/7elsD+1poWvE/F7l+mYR3Pv8IKU3SvKJIP/bAxycWx58Au2HPLdBaMSTb+8xvijUkKLIrd9yyP3fv0YsGcSONz+1jsPudzrJCq6Pc7XbDx9OWwz6M7Nrbe2Fmy6Tn8DbXVxEHyqRfWDb9x3KgbC8bn5mP3WtOx8c/J2P3XSDRuJCIiIiIiIpKabalsiYh6bFkKEREREZGi6IoV5ldyX/zXKJmKiIiIiIiIiIiIiIiIiIib/1LZRPFlcdIUEREREQnmcCq7J/4Q6xYiIiIiIiIiIiIiIiIiIiI5tRK2FEy5E8WfsfCSXiIiIiIiRfAWlXVk/0GcNEVERERERERERERERERExMullD9RPB/YIU6aIiIiIiLBbEdl3ScviZOmiIiIiIiIiIiIiIiIiIh46QVMovyJ4qvipCkiIiIiEtQDlH9P/CnqyC4iIiIiIiIiIiIiIiIiknsnU/5E8edYwaWIiIiISJGsBMyj/I7sP46TpoiIiIiIiIiIiIiIiIiIeKkDRlB+AeXOcdIUEREREQnqMsq/J74yUo4iIiIiIiIiIiIiIiIiIuJob8qfKL4+Uo4iIiIiIiH1AiZT3j3xSNSRXURERERERERERERERESkEAZR3kTxV0C/SDmKiIiIiIT0a8pfununSDmKiIiIiIiIiIiIiIiIiIijAZTffXKvSDmKiIiIiITUEfiE8u6Jr42Uo4iIiIiIiIiIiIiIiIiIOLuZ8iaKb4mVoIiIiIhIYPtS3j3xaNSRXURERERERERERERERESkEPoDM2l/ongcsESkHEVEREREQnuB8goo94yVoIiIiIiIiIiIiFSnQ+wERERERCSzVge2LeP/9xbwethURERERESi6AocWsb/byJwd+BcRERERERERERERERERERERERERERERERERERERERERERERERERERERERERERERERERERERERERERERERERERERERERERERERERERERERERERERERERERERERERERERERERERERERERERERERERERERERERERERERERERERERERERERERERERERERERET+H3twIAAAAAAA5P/aCKqqqqqqqqqqqqqqqqqqqqqqqqqqqqqqqqqqqqqqqqqqqqqqqqqqqqqqqqqqqqqqqqqqqqqqqqqqqqqqqqqqqqqqqqqqqqqqqqqqqqqqqqqqqqqqqqqqqqqqqqqqqqqqqqqqqqqqqqqqqqqqqqqqqqqqqqqqqqqqqqqqqqqqqqqqqqqqqqqqqqqqqqqqqqqqqqqqqqqqqqqqqqqqqqqqqqqqqqqqqqqqqqqqqqqqqqqqqqqqqqqqqqqqqqqqqqqqqqqqqqqqqqqqqqqqqqqqqqqqqqqqqqqqqqqqqqqqqqqqqqqqqqqqqqqqqqqqqqqqqqqqqqqqqqqqqqqqqqqqqqqqqqqqqqqqqqqqqqqqqqqqqqqqqqqqqqqqqqqqqqqqqqqqqqqqqqqqqqqqqqqqqqqqqqqqqqqqqqqqqqqqqqqqqqqqqqqqqqqqqqqqqqqqqqqqqqqqqqqqqqqqqqqqqqqqqqqqqqqqqqqqqqqqqqqqqqqqqqqqqqqqqqqqqqqqqqqqqqqqqqqqqqqqqqqqqqqqqqqqqqqqqqqqqqqqqqqqqqqqqqqqqqqqqqqqqqqqqqqqqqqqqqqqqqqqqqqqqqqqqqqqqqqqqqqqqqqqqqqqqqqqqqqqqqqqqqqqqqqqqqqqqqqqqqqqqqqqqqqqqqqqqqqqqqqqqqqqqqqqqqqqqqqqqqqqqqqqqqqqqqqqqqqqqqqqqqqqqqqqqqqqqqqqqqqqqqqqqqqqqqqqqqqqqqqqqqqqqqqqqqqqqqqqqqqqqqqqqqqqqqqqqqqqqqqqqqqqqqqqqqqqqqqqqqqqqqqqqqqqqqqqqqqqqqqqqqqqqqqqqqqqqqqqqqqqqqqqqqqqqqqqqqqqqqqqqqqqqqqqqqqqqqqqqqqqqqqqqqqqqqqqqqqqqqqqqqqqqqqqqqqqqqqqqqqqqqqqqqqqqqqqqqqqqqqqqqqqqqqqqqqqqqqqqqqqqqqqqqqqqqqqqqqqqqqqqqqqqqqqqqqqqqqqqqqqqqqqqqqqqqqqqqqqqqqqqqqqqqqqqqqqqqqqqqqqqqqqqqqqqqqqqqqqqqqqqqqqqqqqqqqqqqqqqqqqqqqqqqqqqqqqqqqqqqqqqqqqqqqqqqqqqqqqqqqqqqqqqqqqqqqqqqqqqqqqqqqqqqqqqqqqqqqqqqqqqqqqqqqqqqqqqqqqqqqqqqqqqqqqqqqqqqqqqqqqqqqqqqqqqqqqqqqqqqqqqqqqqqqqqqqqqqqqqqqqqqqqqqqqqqqqqqqqqqqqqqqqqqqqqqqqqqqqqqqqqqqqqqqqqqqqqqqqqqqqqqqqqqqqqqqqqqqqqqqqqqqqqqqqqqqqqqqqqqqqqqqqqqqqqqqqqqqqqqqqqqqqqqqqqqqqqqqqqqqqqqqqqqqqqqqqqqqqqqqqqqqqqqqqqqqqqqqqqqqqqqqqqqqqqqqqqqqqqqqqqqqqqqqqqqqqqqqqqqqqqqqqqqqqqqqqqqqqqqqqqqqqqqqqqqqqqqqqqqqqqqqqqqqqqqqqqqqqqqqqqqqqqqqqqqqqqqqqqqqqqqqqqqqqqqqqqqqqqqqqqqqqqqqqqqqqqqqqqqqqqqqqqqqqqqqqqqqqqqqqqqqqqqqqqqqqqqqqqqqqqqqqqqqqqqqqqqqqqqqqqqqqqqqqqqqqqqqqqqqqqqqqqqqqqqqqqqqqqqqqqqqqqqqqqqqqqqqqqqqqqqqqqqqqqqqqqqqqqqqqqqqqqqqqqqqqqqqqqqqqqqqqqqqqqqqqqqqqqqqqqqqqqqqqqqqqqqqqqqqqqqqqqqqqqqqqqqqqqqqqqqqqqqqqqqqqqqqqqqqqqqqqqqqqqqqqqqqqqqqqqqqqqqqqqqqqqqqqqqqqqqqqqqqqqqqqqqqqqqqqqqqqqqqqqqqqqqqqqqqqqqqqqqqqqqqqqqqqqqqqqqqqqqqqqqqqqqqqqqqqqqqqqqqqqqqqqqqqqqqqqqqqqqqqqqqqqqqqqqqqqqqqqqqqqqqqqqqqqqqqqqqqqqqqqqqqqqqqqqqqqqqqqqqqqqqqqqqqqqqqqqqqqqqqqqqqqqqqqqqqqqqqqqqqqqqqqqqqqqqqqqqqqqqqqqqqqqqqqqqqqqqqqqqqqqqqqqqqqqqqqqqqqqqqqqqqqqqqqqqqqqqqqqqqqqqqqqqqqqqqqqqqqqqqqqqqqqqqqqqqqqqqqqqqqqqqqqqqqqqqqqqqqqqqqqqqqqqqqqqqqqqqqqqqqqqqqqqqqqqqqqqqqqqqqqqqqqqqqqqqqqqqqqqqqqqqqqqqqqqqqqqqqqqqqqqqqqqqqqqqqqqqqqqqqqqqqqqqqqqqqqqqqqqqqqqqqqqqqqqqqqqqqqqqqqqqqqqqqqqqqqqqqqqqqqqqqqqqqqqqqqqqqqqqqqqqqqqqqqqqqqqqqqqqqqqqqqqqqqqqqqqqqqqqqqqqqqqqqqqqqqqqqqqqqqqqqqqqqqqqqqqqqqqqqqqqqqqqqqqqqqqqqqqqqqqqqqqqqqqqqqqqqqqqqqqqqqqqqqqqqqqqqqqqqqqqqqqqqqqqqqqqqqqqqqqqqqqqqqqqqqqqqqqqqqqqqqqqqqqqqqqqqqqqqqqqqqqqqqqqqqqqqqqqqqqqqqqqqqqqqqqqqqqqqqqqqqqqqqqqqqqqqqqqqqqqqqqqqqqqqqqqqqqqqqqqqqqqqqqqqqqqqqqqqqqqqqqqqqqqqqqqqqqqqqqqqqqqqqqqqqqqqqqqqqqqqqqqqqqqqqqqqqqqqqqqqqqqqqqqqqqqqqqqqqqqqqqqqqqqqqqqqqqqqqqqqqqqqqqqqqqqqqqqqqqqqqqqqqqqqqqqqqqqqqqqqqqqqqqqqqqqqqqqqqqqqqqqqqqqqqqqqqqqqqqqqqqqqqqqqqqqqqqqqqqqqqqqqqqqqqqqqqqqqqqqqqqqqqqqqqqqqqqqqqqqqqqqqqqqqqqqqqqqqqqqqqqqqqqqqqqqqqqqqqqqqqqqqqqqqqqqqqqqqqqqqqqqqqqqqqqqqqqqqqqqqqqqqqqqqqqqqqqqqqqqqqqqqqqqqqqqqqqqqqqqqqqqqqqqqqqqqqqqqqqqqqqqqqqqqqqqqqqqqqqqqqqqqqqqqqqqqqqqqqqqqqqqqqqqqqqqqqqqqqqqqqqqqqqqqqqqqqqqqqqqqqqqqqqqqqqqqqqqqqqqqqqqqqqqqqqqqqqqqqqqqqqqqqqqqqqqqqqqqqqqqqqqqqqqqqqqqqqqqqqqqqqqqqqqqqqqqqqqqqqqqqqqqqqqqqqqqqqqqqqqqqqqqqqqqqqqqqqqqqqqqqqqqqqqqqqqqqqqqqqqqqqqqqqqqqqqqqqqqqqqqqqqqqqqqqqqqqqqqqqqqqqqqqqqqqqqqqqqqqqqqqqqqqqqqqqqqqqqqqqqqqqqqqqqqqqqqqqqqqqqqqqqqqqqqqqqqqqqqqqqqqqqqqqqqqqqqqqqqqqqqqqqqqqqqqqqqqqqqqqqqqqqqqqqqqqqqqqqqqqqqqqqqqqqqqqqqqqqqqqqqqqqqqqqqqqqqqqqqqqqqqqqqqqqqqqqqqqqqqqqqqqqqqqqqqqqqqqqqqqqqqqqqqqqqqqqqqqqqqqqqqqqqqqqqqqqqqqqqqqqqqqqqqqqqqqqqqqqqqqqqqqqqqqqqqqqqqqqqqqqqqqqqqqqqqqqqqqqqqqqqqqqqqqqqqqqqqqqqqqqqqqqqqqqqqqqqqqqqqqqqqqqqqqqqqqqqqqqqqqqqqqqqqqqqqqqqqqqqqqqqqqqqqqqqqqqqqqqqqqqqqqqqqqqqqqqqqqqqqqqqqqqqqqqqqqqqqqqqqqqqqqqqqqqqqqqqqqqqqqqqqqqqqqqqqqqqqqqqqqqqqqqqqqqqqqqqqqqqqqqqqqqqqqqqqqqqqqqqqqqqqqqqqqqqqqqqqqqqqqqqqqqqqqqqqqqqqqqqqqqqqqqqqqqqqqqqqqqqqqqqqqqqqqqqqqqqqqqqqqqqqqqqqqqqqqqqqqqqqqqqqqqqqqqqqqqqqqqqqqqqqqqqqqqqqqqqqqqqqqqqqqqqqqqqqqqqqqqqqqqqqqqqqqqqqqqqqqqqqqqqqqqqqqqqqqqqqqqqqqqqqqqqqqqqqqqqqqqqqqqqqqqqqqqqqqqqqqqqqqqqqqqqqqqqqqqqqqqqqqqqqqqqqqqqqqqqqqqqqqqqqqqqqqqqqqqqqqqqqqqqqqqqqqqqqqqqqqqqqqqqqqqqqqqqqqqqqqqqqqqqqqqqqqqqqqqqqqqqqqqqqqqqqqqqqqqqqqqqqqqqqqqqqqqqqqqqqqqqqqqqqqqqqqqqqqqqqqqqqqqqqqqqqqqqqqqqqqqqqqqqqqqqqqqqqqqqqqqqqqqqqqqqqqqqqqqqqqqqqqqqqqqqqqqqqqqqqqqqqqqqqqqqqqqqqqqqqqqqqqqqqqqqqqqqqqqqqqqqqqqqqqqqqqqqqqqqqqqqqqqqqqqqqqqqqqqqqqqqqqqqqqqqqqqqqqqqqqqqqqqqqqqqqqqqqqqqqqqqqqqqqqqqqqqqqqqqqqqqqqqqqqqqqqqqqqqqqqqqqqqqqqqqqqqqqqqqqqqqlDQ5PcAAA1YSURBVKqqqqqqqqqqqqqqqqqqqqqqqqqqqqqqqqqqqqqqqqqqqqqqqqqqqqqqqqqqqqqqqqqqqqqqqqqqqqqqqqqqqqqqqqqqqqqqqqqqqqqqqqqqqqqqqqqqqqqqqqqqqqqqqqqqqqqqqqqqqqqqqqqqqqqqqqqqqqqqqqqqqqqqqqqqqqqqqqqqqqqqqqqqqqqqqqqqqqqqqqqqqqqqqqqqqqqqqqqqqqqqqqqqqqqqqqqqqqqqqqqqqqqqqqqqqqqqqqqqqqqqqqqqqqqqqqqqqqqqqqqqqqqqqqqqqqqqqqqqqqqqqqqqqqqqqqqqqqqqqqqqqqqqqqqqqqqqqqqqqqqqqqqqqqqqqqqqqqqqqqqqqqqqqqqqqqqqqqqqqqqqqqqqqqqqqqqqqqqqqqqqqqqqqqqqqqqqqqqqqqqqqqqqqqqqqqqqqqqqqqqqqqqqqqqqqqqqqqqqqqqqqqqqqqqqqqqqqqqqqqqqqqqqqqqqqqqqqqqqqqqqqqqqqqqqqqqqqqqqqqqqqqqqqqqqqqqqqqqqqqqqqqqqqqqqqqqqqqqqqqqqqqqqqqqqqqqqqqqqqqqqqqqqqqqqqqqqqqqqqqqqqqqqqqqqqqqqqqqqqqqqqqqqqqqqqqqqqqqqqqqqqqqqqqqqqqqqqqqqqqqqqqqqqqqqqqqqqqqqqqqqqqqqqqqqqqqqqqqqqqqqqqqqqqqqqqqqqqqqqqqqqqqqqqqqqqqqqqqqqqqqqqqqqqqqqqqqqqqqqqqqqqqqqqqqqqqqqqqqqqqqqqqqqqqqqqqqqqqqqqqqqqqqqqqqqqqqqqqqqqqqqqqqqqqqqqqqqqqqqqqqqqqqqqqqqqqqqqqqqqqqqqqqqqqqqqqqqqqqqirtwQEBAAAAgJD/rxsSAAAAAAAAAAAAAAAAAAAAAAAAAAAAAAAAAAAAAAAAAAAAAAAAAAAAAAAAAAAAAAAAAAAAAAAAAAAAAAAAAAAAAAAAAAAAAAAAAAAAAAAAAAAAAAAAAAAAAAAAAAAAAAAAAAAAAAAAAAAAAAAAAAAAAAAAAAAAAAAAAAAAAAAAAAAAAAAAAAAAAAAAAAAAAAAAAAAAAAAAAAAAAAAAAAAAAAAAAAAAAAAAAAAAAAAAAAAAAAAAAAAAAAAAAAAAAAAAAAAAAAAAAAAAAAAAAAAAAAAAAAAAAAAAAAAAAAAAAAAAAAAAAAAAAAAAAAAAAAAAAAAAAAAAAAAAAAAAAAAAAAAAAAAAAAAAAAAAAAAAAAAAAAAAAAAAAAAAAAAAAAAAAAAAAAAAAAAAAAAAAAAAAAAAAAAAAAAAAAAAAAAAAAAAAAAAAAAAAAAAAAAAAAAAAAAAAAAAAAAAAAAAAAAAAAAAAAAAAAAAAAAAAAAAAAAAAAAAAAAAAAAAAAAAAAAAAAAAAAAAAAAAAAAAAAAAAAAAAAAAAAAAAAAAAAAAAAAAAAAAAAAAAAAAAAAAAAAAAAAAAAAAAAAAAAAAAAAAAAAAAAAAAAAAAAAAAAAAAAAAAAAAAAAAAAAAAAAAAAAAAAAAAAAAAAAAAAAAAAAAAAAAAAAAAAAAAAAAAAAAAAAAAAAAAAAAAAAAAAAAAAAAAAAAAAAAAAAAAAAAAAAAAAAAAAAAAAAAAAAAAAAAAAAAAAAAAAAAAAAAAAAAAAAAAAAAAAAAAAAAAAAAAAAAAAAAAAAAAAAAAAAAAAAAAAAAAAAAAAAAAAAAAAAAAAAAAAAAAAAAAAAAAAAAAAAAAAAAAAAAAAAAAAAAAAAAAAAAAAAAAAAAAAAAAAAAAAAAAAAAAAAAAAAAAAAAAAAAAAAAAAAAAAAAAAAAAAAAAAAAAAAAAAAAAAAAAAAAAAAAAAAAAAAAAAAAAAAAAAAAAAAAAAAAAAAAAAAAAAAAAAAAAAAAAAAAAAAAAAAAAAAAAAAAAAAAAAAAAAAAAAAAAAAAAAAAAAAAAAAAAAAAAAAAAAAAAAAAAAAAAAAAAAAAAAAAAAAAAAAAAAAAAAAAAAAAAAAAAAAAAAAAAAAAAAAAAAAAAAAAAAAAAAAAAAAAAAAAAAAAAAAAAAAAAAAAAAAAAAAAAAAAAAAAAAAAAAAAAAAAAAAAAAAAAAAAAAAAAAAAAAAAAAAAAAAAAAAAAAAAAAAAAAAAAAAAAAAAAAAAAAAAAAAAAAAAAAAAAAAAAAAAAAAAAAAAAAAAAAAAAAAAAAAAAAAAAAAAAAAAAAAAAAAAAAAAAAAAAAAAAAAAAAAAAAAAAAAAAAAAAAAAAAAAAAAAAAAAAAAAAAAAAAAAAAAAAAAAAAAAAAAAAAAAAAAAAAAAAAAAAAAAAAAAAAAAAAAAAAAAAAAAAAAAAAAAAAAAAAAAAAAAAAAAAAAAAAAAAAAAAAAAAAAAAAAAAAAAAAAAAAAAAAAAAAAAAAAAAAAAAAAAAAAAAAAAAAAAAAAAAAAAAAAAAAAAAAAAAAAAAAAAAAAAAAAAAAAAAAAAAAAAAAAAAAAAAAAAAAAAAAAAAAAAAAAAAAAAAAAAAAAAAAAAAAAAAAAAAAAAAAAAAAAAAAAAAAAAAAAAAAAAAAAAAAAAAAAAAAAAAAAAAAAAAAAAAAAAAAAAAAAAAAAAAAAAAAAAAAAAAAAAAAAAAAAAAAAAAAAAAAAAAAAAAAAAAAAAAAAAAAAAAAAAAAAAAAAAAAAAAAAAAAAAAAAAAAAAAAAAAAAAAAAAAAAAAAAAAAAAAAAAAAAAAAAAAAAAAAAAAAAAAAAAAAAAAAAAAAAAAAAAAAAAAAAAAAAAAAAAAAAAAAAAAAAAAAAAAAAAAAAAAAAAAAAAAAAAAAAAAAAAAAAAAAAAAAAAAAAAAAAAAAAAAAAAAAAAAAAAAAAAAAAAAAAAAAAAAAAAAAAAAAAAAAAAAAAAAAAAAAAAAAAAAAAAAAAAAAAAAAAAAAAAAAAAAAAAAAAAAAAAAAAAAAAAAAAAAAAAAAAAAAAAAAAAAAAAAAAAAAAAAAAAAAAAAAAAAAAAAAAAAAAAAAAAAAAAAAAAAAAAAAAAAAAAAAAAAAAAAAAAAAAAAAAAAAAAAAAAAAAAAAAAAAAAAAAAAAAAAAAAAAAAAAAAAAAAAAAAAAAAAAAAAAAAAAAAAAAAAAAAAAAAAAAAAAAAAAAAAAAAAAAAAAAAAAAAAAAAAAAAAAAAAAAAAAAAAAAAAAAAAAAAAAAAAAAAAAAAAAAAAAAAAAAAAAAAAAAAAAAAAAAAAAAAAAAAAAAAAAAAAAAAAAAAAAAAAAAAAAAAAAAAAAAAAAAAAAAAAAAAAAAAAAAAAAAAAAAAAAAAAAAAAAAAAAAAAAAAAAAAAAAAAAAAAAAAAAAAAAAAAAAAAAAAAAAAAAAAAAAAAAAAAAAAAAAAAAAAAAAAAAAAAAAAAAAAAAAAAAAAAAAAAAAAAAAAAAAAAAAAAAAAAAAAAAAAAAAAAAAAAAAAAAAAAAAAAAAAAAAAAAAAAAAAAAAAAAAAAAAAAAAAAAAAAAAAAAAAAAAAAAAAAAAAAAAAAAAAAAAAAAAAAAAAAAAAAAAAAAAAAAAAAAAAAAAAAAAAAAAAAAAAAAAAAAAAAAAAAAAAAAAAAAAAAAAAAAAAAAAAAAAAAAAAAAAAAAAAAAAAAAAAAAAAAAAAAAAAAAAAAAAAAAAAAAAAAAAAAAAAAAAAAAAAAAAAAAAAAAAAAAAAAAAAAAAAAAAAAAAAAAAAAAAAAAAAAAAAAAAAAAAAAAAAAAAAAAAAAAAAAAAAAAAAAAAAAAAAAAAAAAAAAAAAAAAAAAAAAAAAAAAAAAAAAAAAAAAAAAAAAAAAAAAAAAAAAAAAAAAAAAAAAAAAAAAAAAAAAAAAAAAAAAAAAAAAAAAAAAAAAAAAAAAAAAAAAAAAAAAAAAAAAAAAAAAAAAAAAAAAAAAAAAAAAAAAAAAAAAAAAAAAAAAAAAAAAAAAAAAAAAAAAAAAAAAAAAAAAAAAAAAAAAAAAAAAAAAAAAAAAAAAAAAAAAAAAAAAAAAAAAAAAAAAAAAAAAAAAAAAAAAAAAAAAAAAAAAAAAAAAAAAAAAAAAAAAAAAAAAAAAAAAAAAAAAAAAAAAAAAAAAAAAAAAAAAAAAAAAAAAAAAAAAAAAAAAAAAAAAAAAAAAAAAAAAAAAAAAAAAAAAAAAAAAAAAAAAAAAAAAAAAAAAAAAAAAAAAAAAAAAAAAAAAAAAAAAAAAAAAAAAAAAAAAAAAAAAAAAAAAAAAAAAAAAAAAAAAAAAAAAAAAAAAAAAAAAAAAAAAAAAAAAAAAAAAAAAAAAAAAAAAAAAAAAAAAAAAAAAAAAAAAAAAAAAAAAAAAAAAAAAAAAAAAAAAAAAAAAAAAAAAAAAAAAAAAAAAAAAAAAAAAAAAAAAAAAAAAAAAAAAAAAAAAAAAAAAAAAAAAAAAAAAAAAAAAAAAAAAAAAAAAAAAAAAAAAAAAAAAAAAAAAAAAAAAAAAAAAAAAAAAAAAAAAAAAAAAAAAAAAAAAAAAAAAAAAAAAAAAAAAAAAAAAAAAAAAAAAAAAAAAAAAAAAAAAAAAAAAAAAAAmAh88sCuDqbUzgAAAABJRU5ErkJggg==;" vertex="1" parent="aSS4Eyh5r4q3BVwhuA5f-28">
          <mxGeometry width="249" height="192.41" as="geometry" />
        </mxCell>
        <mxCell id="aSS4Eyh5r4q3BVwhuA5f-30" value="" style="fillColor=none;strokeColor=#147EBA;dashed=1;verticalAlign=top;fontStyle=0;fontColor=#147EBA;whiteSpace=wrap;html=1;" vertex="1" parent="aSS4Eyh5r4q3BVwhuA5f-28">
          <mxGeometry x="-29.5" y="15.6" width="299.5" height="304.4" as="geometry" />
        </mxCell>
        <mxCell id="aSS4Eyh5r4q3BVwhuA5f-22" value="" style="html=1;shadow=0;dashed=0;align=center;verticalAlign=middle;shape=mxgraph.arrows2.arrow;dy=0.34;dx=26.65;notch=0;container=0;fillColor=#dae8fc;strokeColor=#6c8ebf;" vertex="1" parent="1">
          <mxGeometry x="180" y="240" width="60" height="37.37319807794981" as="geometry" />
        </mxCell>
        <mxCell id="aSS4Eyh5r4q3BVwhuA5f-24" value="" style="html=1;shadow=0;dashed=0;align=center;verticalAlign=middle;shape=mxgraph.arrows2.arrow;dy=0.34;dx=26.65;notch=0;rotation=-180;container=0;fillColor=#dae8fc;strokeColor=#6c8ebf;" vertex="1" parent="1">
          <mxGeometry x="180" y="281.62680192205016" width="60" height="37.37319807794981" as="geometry" />
        </mxCell>
        <mxCell id="aSS4Eyh5r4q3BVwhuA5f-31" value="" style="group" vertex="1" connectable="0" parent="1">
          <mxGeometry x="50" y="230" width="102" height="85.31" as="geometry" />
        </mxCell>
        <mxCell id="aSS4Eyh5r4q3BVwhuA5f-11" value="" style="image;aspect=fixed;html=1;points=[];align=center;fontSize=12;image=img/lib/azure2/intune/Device_Compliance.svg;" vertex="1" parent="aSS4Eyh5r4q3BVwhuA5f-31">
          <mxGeometry x="40" width="62" height="68" as="geometry" />
        </mxCell>
        <mxCell id="aSS4Eyh5r4q3BVwhuA5f-9" value="Client" style="image;aspect=fixed;html=1;points=[];align=center;fontSize=12;image=img/lib/azure2/identity/Users.svg;" vertex="1" parent="aSS4Eyh5r4q3BVwhuA5f-31">
          <mxGeometry y="15.310000000000002" width="64" height="70" as="geometry" />
        </mxCell>
      </root>
    </mxGraphModel>
  </diagram>
</mxfile>
